SplineFontDB: 3.2
FontName: Kilroy3W65-8ptRegular
FullName: Kilroy3W65 8pt Regular
FamilyName: Kilroy3W65 8pt
Weight: Regular
Copyright: Copyright 2020 The Roboto Serif Project Authors (https://github.com/googlefonts/RobotoSerif) OFL
Version: 1.008
ItalicAngle: 0
UnderlinePosition: -200
UnderlineWidth: 100
Ascent: 800
Descent: 200
InvalidEm: 0
sfntRevision: 0x0001020c
LayerCount: 2
Layer: 0 1 "Back" 1
Layer: 1 1 "Fore" 0
XUID: [1021 1018 -1064020043 28973]
StyleMap: 0x0040
FSType: 0
OS2Version: 4
OS2_WeightWidthSlopeOnly: 0
OS2_UseTypoMetrics: 1
CreationTime: 1586430965
ModificationTime: 1751860305
PfmFamily: 81
TTFWeight: 450
TTFWidth: 2
LineGap: 0
VLineGap: 0
Panose: 0 0 0 0 0 0 0 0 0 0
OS2TypoAscent: 927
OS2TypoAOffset: 0
OS2TypoDescent: -244
OS2TypoDOffset: 0
OS2TypoLinegap: 0
OS2WinAscent: 1048
OS2WinAOffset: 0
OS2WinDescent: 251
OS2WinDOffset: 0
HheadAscent: 927
HheadAOffset: 0
HheadDescent: -244
HheadDOffset: 0
OS2SubXSize: 650
OS2SubYSize: 600
OS2SubXOff: 0
OS2SubYOff: 75
OS2SupXSize: 650
OS2SupYSize: 600
OS2SupXOff: 0
OS2SupYOff: 350
OS2StrikeYSize: 100
OS2StrikeYPos: 311
OS2CapHeight: 710
OS2XHeight: 518
OS2Vendor: 'COMM'
OS2CodePages: 20000193.00000000
OS2UnicodeRanges: a10000ef.4000267a.00000000.00000000
Lookup: 5 0 0 "'locl' Localized Forms in Latin lookup 0" { "'locl' Localized Forms in Latin lookup 0 subtable"  } ['locl' ('latn' <'AZE ' 'CRT ' 'TRK ' > ) ]
Lookup: 1 0 0 "Single Substitution lookup 1" { "Single Substitution lookup 1 subtable"  } []
Lookup: 5 0 0 "'locl' Localized Forms in Latin lookup 2" { "'locl' Localized Forms in Latin lookup 2 subtable"  } ['locl' ('latn' <'PLK ' > ) ]
Lookup: 1 0 0 "Single Substitution lookup 3" { "Single Substitution lookup 3 subtable"  } []
Lookup: 6 0 0 "'locl' Localized Forms in Latin lookup 4" { "'locl' Localized Forms in Latin lookup 4 subtable"  } ['locl' ('latn' <'CAT ' > ) ]
Lookup: 4 0 0 "Ligature Substitution lookup 5" { "Ligature Substitution lookup 5 subtable"  } []

StartChar: .notdef
Encoding: 65536 -1 0
Width: 400
GlyphClass: 1
Flags: W
LayerCount: 2
Fore
SplineSet
0 0 m 1,0,-1
 0 700 l 1,1,-1
 400 700 l 1,2,-1
 400 0 l 1,3,-1
 0 0 l 1,0,-1
50 650 m 1,4,-1
 50 50 l 1,5,-1
 350 50 l 1,6,-1
 350 650 l 1,7,-1
 50 650 l 1,4,-1
EndSplineSet
EndChar

StartChar: A
Encoding: 65 65 6
Width: 659
GlyphClass: 2
Flags: W
AnchorPoint: "Anchor-2" 521 0 basechar 0
AnchorPoint: "Anchor-1" 329 0 basechar 0
AnchorPoint: "Anchor-0" 329 721 basechar 0
LayerCount: 2
Fore
SplineSet
192 305 m 1,0,-1
 429 305 l 1,1,-1
 444 222 l 1,2,-1
 177 222 l 1,3,-1
 192 305 l 1,0,-1
297 687 m 1,4,-1
 333 682 l 1,5,-1
 166 105 l 2,6,7
 166 99 166 99 174 94 c 128,-1,8
 182 89 182 89 195.5 86 c 128,-1,9
 209 83 209 83 227 83 c 2,10,-1
 235 83 l 1,11,-1
 235 0 l 1,12,-1
 17 0 l 1,13,-1
 17 83 l 1,14,-1
 22 83 l 2,15,16
 40 83 40 83 56.5 95 c 128,-1,17
 73 107 73 107 84 147 c 2,18,-1
 257 722 l 1,19,-1
 396 722 l 1,20,-1
 569 147 l 2,21,22
 581 107 581 107 598.5 95 c 128,-1,23
 616 83 616 83 639 83 c 2,24,-1
 643 83 l 1,25,-1
 643 0 l 1,26,-1
 393 0 l 1,27,-1
 393 83 l 1,28,-1
 402 83 l 2,29,30
 423 83 423 83 438 84.5 c 128,-1,31
 453 86 453 86 461 88.5 c 128,-1,32
 469 91 469 91 469 94 c 2,33,-1
 297 687 l 1,4,-1
EndSplineSet
EndChar

StartChar: Aogonek
Encoding: 260 260 15
Width: 659
GlyphClass: 1
Flags: W
LayerCount: 2
Fore
SplineSet
192 304 m 1,0,-1
 429 304 l 1,1,-1
 444 224 l 1,2,-1
 177 224 l 1,3,-1
 192 304 l 1,0,-1
521 41 m 1,4,-1
 553 5 l 1,5,6
 510 -33 510 -33 486.5 -57 c 128,-1,7
 463 -81 463 -81 453.5 -100 c 128,-1,8
 444 -119 444 -119 444 -143 c 0,9,10
 444 -161 444 -161 453 -172.5 c 128,-1,11
 462 -184 462 -184 482 -184 c 0,12,13
 507 -184 507 -184 524.5 -170.5 c 128,-1,14
 542 -157 542 -157 553 -140 c 1,15,-1
 598 -180 l 1,16,17
 574 -212 574 -212 541.5 -232 c 128,-1,18
 509 -252 509 -252 458 -252 c 0,19,20
 404 -252 404 -252 367 -230 c 128,-1,21
 330 -208 330 -208 330 -156 c 0,22,23
 330 -129 330 -129 338 -109 c 128,-1,24
 346 -89 346 -89 367 -68.5 c 128,-1,25
 388 -48 388 -48 425.5 -22.5 c 128,-1,26
 463 3 463 3 521 41 c 1,4,-1
643 0 m 1,27,-1
 499 0 l 1,28,-1
 297 687 l 1,29,-1
 330 662 l 1,30,-1
 169 106 l 2,31,32
 169 100 169 100 176.5 94.5 c 128,-1,33
 184 89 184 89 197.5 86 c 128,-1,34
 211 83 211 83 229 83 c 2,35,-1
 238 83 l 1,36,-1
 238 0 l 1,37,-1
 17 0 l 1,38,-1
 17 83 l 1,39,-1
 23 83 l 2,40,41
 40 83 40 83 56.5 95 c 128,-1,42
 73 107 73 107 84 147 c 2,43,-1
 257 722 l 1,44,-1
 396 722 l 1,45,-1
 569 147 l 2,46,47
 581 107 581 107 598.5 95 c 128,-1,48
 616 83 616 83 638 83 c 2,49,-1
 643 83 l 1,50,-1
 643 0 l 1,27,-1
EndSplineSet
EndChar

StartChar: Acaron
Encoding: 461 461 16
Width: 659
GlyphClass: 1
Flags: W
LayerCount: 2
Fore
SplineSet
286 804 m 1,0,-1
 363 804 l 1,1,-1
 484 959 l 1,2,-1
 484 983 l 1,3,-1
 428 983 l 1,4,-1
 267 846 l 1,5,-1
 388 848 l 1,6,-1
 229 983 l 1,7,-1
 164 983 l 1,8,-1
 164 959 l 1,9,-1
 286 804 l 1,0,-1
192 305 m 1,10,-1
 429 305 l 1,11,-1
 444 222 l 1,12,-1
 177 222 l 1,13,-1
 192 305 l 1,10,-1
297 687 m 1,14,-1
 333 682 l 1,15,-1
 166 105 l 2,16,17
 166 99 166 99 173.5 94 c 128,-1,18
 181 89 181 89 195 86 c 128,-1,19
 209 83 209 83 227 83 c 2,20,-1
 235 83 l 1,21,-1
 235 0 l 1,22,-1
 17 0 l 1,23,-1
 17 83 l 1,24,-1
 23 83 l 2,25,26
 40 83 40 83 56.5 95 c 128,-1,27
 73 107 73 107 84 147 c 2,28,-1
 257 722 l 1,29,-1
 396 722 l 1,30,-1
 570 147 l 2,31,32
 581 107 581 107 598.5 95 c 128,-1,33
 616 83 616 83 638 83 c 2,34,-1
 643 83 l 1,35,-1
 643 0 l 1,36,-1
 393 0 l 1,37,-1
 393 83 l 1,38,-1
 402 83 l 2,39,40
 423 83 423 83 438 84.5 c 128,-1,41
 453 86 453 86 461 88.5 c 128,-1,42
 469 91 469 91 469 94 c 2,43,-1
 297 687 l 1,14,-1
EndSplineSet
EndChar

StartChar: Adblgrave
Encoding: 512 512 18
Width: 659
GlyphClass: 1
Flags: W
LayerCount: 2
Fore
SplineSet
422 927 m 2,0,-1
 462 828 l 1,1,-1
 462 792 l 1,2,-1
 417 792 l 1,3,-1
 349 855 l 2,4,5
 328 874 328 874 317 892.5 c 128,-1,6
 306 911 306 911 306 933 c 0,7,8
 306 952 306 952 319.5 965.5 c 128,-1,9
 333 979 333 979 357 979 c 0,10,11
 374 979 374 979 386.5 971.5 c 128,-1,12
 399 964 399 964 407.5 952.5 c 128,-1,13
 416 941 416 941 422 927 c 2,0,-1
239 927 m 2,14,-1
 276 828 l 1,15,-1
 276 792 l 1,16,-1
 232 792 l 1,17,-1
 164 855 l 2,18,19
 144 874 144 874 132 892.5 c 128,-1,20
 120 911 120 911 120 933 c 0,21,22
 120 952 120 952 134 965.5 c 128,-1,23
 148 979 148 979 172 979 c 0,24,25
 189 979 189 979 202 971.5 c 128,-1,26
 215 964 215 964 224.5 952.5 c 128,-1,27
 234 941 234 941 239 927 c 2,14,-1
192 305 m 1,28,-1
 429 305 l 1,29,-1
 444 222 l 1,30,-1
 177 222 l 1,31,-1
 192 305 l 1,28,-1
297 687 m 1,32,-1
 333 682 l 1,33,-1
 166 105 l 2,34,35
 166 99 166 99 173.5 94 c 128,-1,36
 181 89 181 89 195 86 c 128,-1,37
 209 83 209 83 227 83 c 2,38,-1
 235 83 l 1,39,-1
 235 0 l 1,40,-1
 17 0 l 1,41,-1
 17 83 l 1,42,-1
 23 83 l 2,43,44
 40 83 40 83 56.5 95 c 128,-1,45
 73 107 73 107 84 147 c 2,46,-1
 257 722 l 1,47,-1
 396 722 l 1,48,-1
 570 147 l 2,49,50
 581 107 581 107 598.5 95 c 128,-1,51
 616 83 616 83 638 83 c 2,52,-1
 643 83 l 1,53,-1
 643 0 l 1,54,-1
 393 0 l 1,55,-1
 393 83 l 1,56,-1
 402 83 l 2,57,58
 423 83 423 83 438 84.5 c 128,-1,59
 453 86 453 86 461 88.5 c 128,-1,60
 469 91 469 91 469 94 c 2,61,-1
 297 687 l 1,32,-1
EndSplineSet
EndChar

StartChar: Ainvertedbreve
Encoding: 514 514 19
Width: 659
GlyphClass: 1
Flags: W
LayerCount: 2
Fore
SplineSet
330 934 m 0,0,1
 275 934 275 934 238 917.5 c 128,-1,2
 201 901 201 901 182 864 c 128,-1,3
 163 827 163 827 162 765 c 1,4,-1
 240 765 l 1,5,6
 242 800 242 800 250 818.5 c 128,-1,7
 258 837 258 837 277 844.5 c 128,-1,8
 296 852 296 852 330 852 c 0,9,10
 360 852 360 852 378.5 844.5 c 128,-1,11
 397 837 397 837 405.5 818.5 c 128,-1,12
 414 800 414 800 416 765 c 1,13,-1
 498 765 l 1,14,15
 498 827 498 827 477.5 864 c 128,-1,16
 457 901 457 901 420 917.5 c 128,-1,17
 383 934 383 934 330 934 c 0,0,1
192 305 m 1,18,-1
 429 305 l 1,19,-1
 444 222 l 1,20,-1
 177 222 l 1,21,-1
 192 305 l 1,18,-1
297 687 m 1,22,-1
 333 682 l 1,23,-1
 166 105 l 2,24,25
 166 99 166 99 174 94 c 128,-1,26
 182 89 182 89 195.5 86 c 128,-1,27
 209 83 209 83 227 83 c 2,28,-1
 235 83 l 1,29,-1
 235 0 l 1,30,-1
 17 0 l 1,31,-1
 17 83 l 1,32,-1
 22 83 l 2,33,34
 40 83 40 83 56.5 95 c 128,-1,35
 73 107 73 107 84 147 c 2,36,-1
 257 722 l 1,37,-1
 396 722 l 1,38,-1
 569 147 l 2,39,40
 581 107 581 107 598.5 95 c 128,-1,41
 616 83 616 83 638 83 c 2,42,-1
 643 83 l 1,43,-1
 643 0 l 1,44,-1
 393 0 l 1,45,-1
 393 83 l 1,46,-1
 402 83 l 2,47,48
 423 83 423 83 438 84.5 c 128,-1,49
 453 86 453 86 461 88.5 c 128,-1,50
 469 91 469 91 469 94 c 2,51,-1
 297 687 l 1,22,-1
EndSplineSet
EndChar

StartChar: B
Encoding: 66 66 32
Width: 646
GlyphClass: 2
Flags: W
AnchorPoint: "Anchor-0" 319 741 basechar 0
LayerCount: 2
Fore
SplineSet
351 710 m 2,0,1
 403 710 403 710 443 699.5 c 128,-1,2
 483 689 483 689 510 667 c 128,-1,3
 537 645 537 645 551 612 c 128,-1,4
 565 579 565 579 565 534 c 256,5,6
 565 489 565 489 545.5 453 c 128,-1,7
 526 417 526 417 488 397 c 128,-1,8
 450 377 450 377 393 375 c 1,9,-1
 401 391 l 1,10,-1
 401 351 l 1,11,-1
 393 372 l 1,12,13
 458 368 458 368 501.5 346 c 128,-1,14
 545 324 545 324 568 286.5 c 128,-1,15
 591 249 591 249 591 197 c 0,16,17
 591 147 591 147 576 109.5 c 128,-1,18
 561 72 561 72 531.5 48 c 128,-1,19
 502 24 502 24 459 12 c 128,-1,20
 416 0 416 0 360 0 c 2,21,-1
 51 0 l 1,22,-1
 51 83 l 1,23,-1
 60 83 l 2,24,25
 83 83 83 83 101.5 90 c 128,-1,26
 120 97 120 97 120 119 c 2,27,-1
 120 591 l 2,28,29
 120 613 120 613 101.5 620 c 128,-1,30
 83 627 83 627 60 627 c 2,31,-1
 51 627 l 1,32,-1
 51 710 l 1,33,-1
 351 710 l 2,0,1
194 411 m 1,34,-1
 339 411 l 2,35,36
 379 411 379 411 402.5 423.5 c 128,-1,37
 426 436 426 436 437 461.5 c 128,-1,38
 448 487 448 487 448 526 c 0,39,40
 448 559 448 559 438 581.5 c 128,-1,41
 428 604 428 604 404 616.5 c 128,-1,42
 380 629 380 629 340 629 c 2,43,-1
 234 629 l 1,44,-1
 234 81 l 1,45,-1
 347 81 l 2,46,47
 392 81 392 81 419.5 95.5 c 128,-1,48
 447 110 447 110 460 137 c 128,-1,49
 473 164 473 164 473 204 c 0,50,51
 473 245 473 245 459 274 c 128,-1,52
 445 303 445 303 415 318 c 128,-1,53
 385 333 385 333 338 333 c 2,54,-1
 194 333 l 1,55,-1
 194 411 l 1,34,-1
EndSplineSet
EndChar

StartChar: C
Encoding: 67 67 33
Width: 680
GlyphClass: 2
Flags: W
AnchorPoint: "Anchor-1" 360 0 basechar 0
AnchorPoint: "Anchor-0" 360 741 basechar 0
LayerCount: 2
Fore
SplineSet
350 651 m 0,0,1
 304 651 304 651 270.5 633.5 c 128,-1,2
 237 616 237 616 215 580.5 c 128,-1,3
 193 545 193 545 183 489.5 c 128,-1,4
 173 434 173 434 173 356 c 0,5,6
 173 279 173 279 183.5 222.5 c 128,-1,7
 194 166 194 166 216.5 129.5 c 128,-1,8
 239 93 239 93 274.5 76 c 128,-1,9
 310 59 310 59 360 59 c 0,10,11
 419 59 419 59 456.5 84 c 128,-1,12
 494 109 494 109 516.5 149 c 128,-1,13
 539 189 539 189 552 233 c 1,14,-1
 627 203 l 1,15,16
 607 134 607 134 570.5 83 c 128,-1,17
 534 32 534 32 480 4.5 c 128,-1,18
 426 -23 426 -23 352 -23 c 0,19,20
 284 -23 284 -23 229 0.5 c 128,-1,21
 174 24 174 24 134 72 c 128,-1,22
 94 120 94 120 73 191 c 128,-1,23
 52 262 52 262 52 356 c 256,24,25
 52 450 52 450 73 520.5 c 128,-1,26
 94 591 94 591 133.5 638.5 c 128,-1,27
 173 686 173 686 226.5 709.5 c 128,-1,28
 280 733 280 733 344 733 c 0,29,30
 403 733 403 733 446 707.5 c 128,-1,31
 489 682 489 682 515.5 631 c 128,-1,32
 542 580 542 580 548 502 c 1,33,-1
 524 537 l 1,34,-1
 539 719 l 1,35,-1
 618 719 l 1,36,-1
 618 469 l 1,37,-1
 529 469 l 1,38,39
 513 525 513 525 489 566 c 128,-1,40
 465 607 465 607 431 629 c 128,-1,41
 397 651 397 651 350 651 c 0,0,1
EndSplineSet
EndChar

StartChar: Ccaron
Encoding: 268 268 38
Width: 680
GlyphClass: 1
Flags: W
LayerCount: 2
Fore
SplineSet
305 804 m 1,0,-1
 382 804 l 1,1,-1
 503 959 l 1,2,-1
 503 983 l 1,3,-1
 447 983 l 1,4,-1
 286 846 l 1,5,-1
 407 848 l 1,6,-1
 248 983 l 1,7,-1
 183 983 l 1,8,-1
 183 959 l 1,9,-1
 305 804 l 1,0,-1
350 651 m 0,10,11
 304 651 304 651 270.5 633.5 c 128,-1,12
 237 616 237 616 215 580.5 c 128,-1,13
 193 545 193 545 183 489.5 c 128,-1,14
 173 434 173 434 173 356 c 0,15,16
 173 279 173 279 183.5 222.5 c 128,-1,17
 194 166 194 166 216.5 129.5 c 128,-1,18
 239 93 239 93 274.5 76 c 128,-1,19
 310 59 310 59 360 59 c 0,20,21
 419 59 419 59 456.5 84 c 128,-1,22
 494 109 494 109 516.5 149 c 128,-1,23
 539 189 539 189 552 233 c 1,24,-1
 627 203 l 1,25,26
 607 134 607 134 570.5 83 c 128,-1,27
 534 32 534 32 480 4.5 c 128,-1,28
 426 -23 426 -23 352 -23 c 0,29,30
 284 -23 284 -23 229 0.5 c 128,-1,31
 174 24 174 24 134 72 c 128,-1,32
 94 120 94 120 73 191 c 128,-1,33
 52 262 52 262 52 356 c 256,34,35
 52 450 52 450 73 520.5 c 128,-1,36
 94 591 94 591 133.5 638.5 c 128,-1,37
 173 686 173 686 226.5 709.5 c 128,-1,38
 280 733 280 733 344 733 c 0,39,40
 403 733 403 733 446 707.5 c 128,-1,41
 489 682 489 682 515.5 631 c 128,-1,42
 542 580 542 580 548 502 c 1,43,-1
 524 537 l 1,44,-1
 539 719 l 1,45,-1
 618 719 l 1,46,-1
 618 469 l 1,47,-1
 529 469 l 1,48,49
 513 525 513 525 489 566 c 128,-1,50
 465 607 465 607 431 629 c 128,-1,51
 397 651 397 651 350 651 c 0,10,11
EndSplineSet
EndChar

StartChar: D
Encoding: 68 68 40
Width: 711
GlyphClass: 2
Flags: W
AnchorPoint: "Anchor-1" 358 0 basechar 0
AnchorPoint: "Anchor-0" 358 741 basechar 0
LayerCount: 2
Fore
SplineSet
51 627 m 1,0,-1
 51 710 l 1,1,-1
 327 710 l 2,2,3
 404 710 404 710 466 689 c 128,-1,4
 528 668 528 668 571 625 c 128,-1,5
 614 582 614 582 636.5 515.5 c 128,-1,6
 659 449 659 449 659 359 c 256,7,8
 659 269 659 269 636.5 201.5 c 128,-1,9
 614 134 614 134 571 89.5 c 128,-1,10
 528 45 528 45 466 22.5 c 128,-1,11
 404 0 404 0 327 0 c 2,12,-1
 51 0 l 1,13,-1
 51 83 l 1,14,-1
 61 83 l 2,15,16
 83 83 83 83 101.5 90 c 128,-1,17
 120 97 120 97 120 119 c 2,18,-1
 120 591 l 2,19,20
 120 613 120 613 101.5 620 c 128,-1,21
 83 627 83 627 61 627 c 2,22,-1
 51 627 l 1,0,-1
321 628 m 2,23,-1
 234 628 l 1,24,-1
 234 82 l 1,25,-1
 321 82 l 2,26,27
 377 82 377 82 418 98.5 c 128,-1,28
 459 115 459 115 486 149.5 c 128,-1,29
 513 184 513 184 526 236 c 128,-1,30
 539 288 539 288 539 359 c 256,31,32
 539 430 539 430 526 481 c 128,-1,33
 513 532 513 532 486 564.5 c 128,-1,34
 459 597 459 597 418 612.5 c 128,-1,35
 377 628 377 628 321 628 c 2,23,-1
EndSplineSet
EndChar

StartChar: Dcaron
Encoding: 270 270 41
Width: 711
GlyphClass: 1
Flags: W
LayerCount: 2
Fore
SplineSet
311 804 m 1,0,-1
 388 804 l 1,1,-1
 509 959 l 1,2,-1
 509 983 l 1,3,-1
 453 983 l 1,4,-1
 292 846 l 1,5,-1
 413 848 l 1,6,-1
 254 983 l 1,7,-1
 189 983 l 1,8,-1
 189 959 l 1,9,-1
 311 804 l 1,0,-1
51 627 m 1,10,-1
 51 710 l 1,11,-1
 327 710 l 2,12,13
 404 710 404 710 466 689 c 128,-1,14
 528 668 528 668 571 625 c 128,-1,15
 614 582 614 582 636.5 515.5 c 128,-1,16
 659 449 659 449 659 359 c 256,17,18
 659 269 659 269 636.5 201.5 c 128,-1,19
 614 134 614 134 571 89.5 c 128,-1,20
 528 45 528 45 466 22.5 c 128,-1,21
 404 0 404 0 327 0 c 2,22,-1
 51 0 l 1,23,-1
 51 83 l 1,24,-1
 61 83 l 2,25,26
 83 83 83 83 101.5 90 c 128,-1,27
 120 97 120 97 120 119 c 2,28,-1
 120 591 l 2,29,30
 120 613 120 613 101.5 620 c 128,-1,31
 83 627 83 627 61 627 c 2,32,-1
 51 627 l 1,10,-1
321 628 m 2,33,-1
 234 628 l 1,34,-1
 234 82 l 1,35,-1
 321 82 l 2,36,37
 377 82 377 82 418 98.5 c 128,-1,38
 459 115 459 115 486 149.5 c 128,-1,39
 513 184 513 184 526 236 c 128,-1,40
 539 288 539 288 539 359 c 256,41,42
 539 430 539 430 526 481 c 128,-1,43
 513 532 513 532 486 564.5 c 128,-1,44
 459 597 459 597 418 612.5 c 128,-1,45
 377 628 377 628 321 628 c 2,33,-1
EndSplineSet
EndChar

StartChar: E
Encoding: 69 69 44
Width: 633
GlyphClass: 2
Flags: W
AnchorPoint: "Anchor-2" 437 0 basechar 0
AnchorPoint: "Anchor-1" 374 0 basechar 0
AnchorPoint: "Anchor-0" 374 741 basechar 0
LayerCount: 2
Fore
SplineSet
572 224 m 1,0,-1
 572 0 l 1,1,-1
 51 0 l 1,2,-1
 51 83 l 1,3,-1
 60 83 l 2,4,5
 83 83 83 83 101.5 90 c 128,-1,6
 120 97 120 97 120 119 c 2,7,-1
 120 591 l 2,8,9
 120 613 120 613 101.5 620 c 128,-1,10
 83 627 83 627 60 627 c 2,11,-1
 51 627 l 1,12,-1
 51 710 l 1,13,-1
 553 710 l 1,14,-1
 553 511 l 1,15,-1
 473 511 l 1,16,-1
 462 584 l 2,17,18
 459 602 459 602 448.5 611.5 c 128,-1,19
 438 621 438 621 416 624.5 c 128,-1,20
 394 628 394 628 360 628 c 2,21,-1
 234 628 l 1,22,-1
 234 82 l 1,23,-1
 372 82 l 2,24,25
 399 82 399 82 418.5 84 c 128,-1,26
 438 86 438 86 450 91 c 128,-1,27
 462 96 462 96 468.5 105 c 128,-1,28
 475 114 475 114 477 126 c 2,29,-1
 489 224 l 1,30,-1
 572 224 l 1,0,-1
219 402 m 1,31,32
 261 406 261 406 303 408 c 128,-1,33
 345 410 345 410 386.5 413 c 128,-1,34
 428 416 428 416 469 418 c 1,35,-1
 469 313 l 1,36,37
 428 315 428 315 386.5 317.5 c 128,-1,38
 345 320 345 320 303 322.5 c 128,-1,39
 261 325 261 325 219 327 c 1,40,-1
 219 402 l 1,31,32
EndSplineSet
Substitution2: "'ss01' Style Set 1 lookup 61 subtable" E.alt
EndChar

StartChar: Ecaron
Encoding: 282 282 53
Width: 633
GlyphClass: 1
Flags: W
LayerCount: 2
Fore
SplineSet
287 804 m 1,0,-1
 364 804 l 1,1,-1
 485 959 l 1,2,-1
 485 983 l 1,3,-1
 429 983 l 1,4,-1
 268 846 l 1,5,-1
 389 848 l 1,6,-1
 230 983 l 1,7,-1
 165 983 l 1,8,-1
 165 959 l 1,9,-1
 287 804 l 1,0,-1
572 224 m 1,10,-1
 572 0 l 1,11,-1
 51 0 l 1,12,-1
 51 83 l 1,13,-1
 60 83 l 2,14,15
 83 83 83 83 101.5 90 c 128,-1,16
 120 97 120 97 120 119 c 2,17,-1
 120 591 l 2,18,19
 120 613 120 613 101.5 620 c 128,-1,20
 83 627 83 627 60 627 c 2,21,-1
 51 627 l 1,22,-1
 51 710 l 1,23,-1
 553 710 l 1,24,-1
 553 511 l 1,25,-1
 473 511 l 1,26,-1
 462 584 l 2,27,28
 459 602 459 602 448.5 611.5 c 128,-1,29
 438 621 438 621 416 624.5 c 128,-1,30
 394 628 394 628 360 628 c 2,31,-1
 234 628 l 1,32,-1
 234 82 l 1,33,-1
 372 82 l 2,34,35
 399 82 399 82 418.5 84 c 128,-1,36
 438 86 438 86 450 91 c 128,-1,37
 462 96 462 96 468.5 105 c 128,-1,38
 475 114 475 114 477 126 c 2,39,-1
 489 224 l 1,40,-1
 572 224 l 1,10,-1
219 402 m 1,41,42
 261 406 261 406 303 408 c 128,-1,43
 345 410 345 410 386.5 413 c 128,-1,44
 428 416 428 416 469 418 c 1,45,-1
 469 313 l 1,46,47
 428 315 428 315 386.5 317.5 c 128,-1,48
 345 320 345 320 303 322.5 c 128,-1,49
 261 325 261 325 219 327 c 1,50,-1
 219 402 l 1,41,42
EndSplineSet
Substitution2: "'ss01' Style Set 1 lookup 61 subtable" Ecaron.alt
EndChar

StartChar: Edblgrave
Encoding: 516 516 54
Width: 633
GlyphClass: 1
Flags: W
LayerCount: 2
Fore
SplineSet
403 927 m 2,0,-1
 443 829 l 1,1,-1
 443 792 l 1,2,-1
 398 792 l 1,3,-1
 330 855 l 2,4,5
 310 874 310 874 298.5 892.5 c 128,-1,6
 287 911 287 911 287 933 c 0,7,8
 287 952 287 952 301 965.5 c 128,-1,9
 315 979 315 979 338 979 c 0,10,11
 356 979 356 979 368.5 971.5 c 128,-1,12
 381 964 381 964 389.5 952.5 c 128,-1,13
 398 941 398 941 403 927 c 2,0,-1
221 927 m 2,14,-1
 258 829 l 1,15,-1
 258 792 l 1,16,-1
 213 792 l 1,17,-1
 146 855 l 2,18,19
 125 874 125 874 113.5 892.5 c 128,-1,20
 102 911 102 911 102 933 c 0,21,22
 102 952 102 952 115.5 965.5 c 128,-1,23
 129 979 129 979 153 979 c 0,24,25
 171 979 171 979 184 971.5 c 128,-1,26
 197 964 197 964 206.5 952.5 c 128,-1,27
 216 941 216 941 221 927 c 2,14,-1
572 224 m 1,28,-1
 572 0 l 1,29,-1
 51 0 l 1,30,-1
 51 83 l 1,31,-1
 60 83 l 2,32,33
 83 83 83 83 101.5 90 c 128,-1,34
 120 97 120 97 120 119 c 2,35,-1
 120 591 l 2,36,37
 120 613 120 613 101.5 620 c 128,-1,38
 83 627 83 627 60 627 c 2,39,-1
 51 627 l 1,40,-1
 51 710 l 1,41,-1
 553 710 l 1,42,-1
 553 511 l 1,43,-1
 473 511 l 1,44,-1
 462 584 l 2,45,46
 459 602 459 602 448.5 611 c 128,-1,47
 438 620 438 620 416.5 624 c 128,-1,48
 395 628 395 628 360 628 c 2,49,-1
 234 628 l 1,50,-1
 234 82 l 1,51,-1
 372 82 l 2,52,53
 400 82 400 82 419 84 c 128,-1,54
 438 86 438 86 450 90.5 c 128,-1,55
 462 95 462 95 468.5 104 c 128,-1,56
 475 113 475 113 477 126 c 2,57,-1
 489 224 l 1,58,-1
 572 224 l 1,28,-1
219 402 m 1,59,60
 261 406 261 406 302.5 408 c 128,-1,61
 344 410 344 410 386 413 c 128,-1,62
 428 416 428 416 469 418 c 1,63,-1
 469 313 l 1,64,65
 428 315 428 315 386 317.5 c 128,-1,66
 344 320 344 320 302.5 322.5 c 128,-1,67
 261 325 261 325 219 327 c 1,68,-1
 219 402 l 1,59,60
EndSplineSet
Substitution2: "'ss01' Style Set 1 lookup 61 subtable" Edblgrave.alt
EndChar

StartChar: Einvertedbreve
Encoding: 518 518 55
Width: 633
GlyphClass: 1
Flags: W
LayerCount: 2
Fore
SplineSet
312 934 m 0,0,1
 256 934 256 934 219.5 917.5 c 128,-1,2
 183 901 183 901 164 864 c 128,-1,3
 145 827 145 827 143 765 c 1,4,-1
 222 765 l 1,5,6
 224 800 224 800 232 819 c 128,-1,7
 240 838 240 838 259 845 c 128,-1,8
 278 852 278 852 311 852 c 0,9,10
 341 852 341 852 359.5 844.5 c 128,-1,11
 378 837 378 837 387 818.5 c 128,-1,12
 396 800 396 800 397 765 c 1,13,-1
 480 765 l 1,14,15
 479 827 479 827 459 864 c 128,-1,16
 439 901 439 901 401.5 917.5 c 128,-1,17
 364 934 364 934 312 934 c 0,0,1
572 224 m 1,18,-1
 572 0 l 1,19,-1
 51 0 l 1,20,-1
 51 83 l 1,21,-1
 60 83 l 2,22,23
 83 83 83 83 101.5 90 c 128,-1,24
 120 97 120 97 120 119 c 2,25,-1
 120 591 l 2,26,27
 120 613 120 613 101.5 620 c 128,-1,28
 83 627 83 627 60 627 c 2,29,-1
 51 627 l 1,30,-1
 51 710 l 1,31,-1
 553 710 l 1,32,-1
 553 511 l 1,33,-1
 473 511 l 1,34,-1
 462 584 l 2,35,36
 459 602 459 602 448.5 611.5 c 128,-1,37
 438 621 438 621 416.5 624.5 c 128,-1,38
 395 628 395 628 360 628 c 2,39,-1
 234 628 l 1,40,-1
 234 82 l 1,41,-1
 372 82 l 2,42,43
 400 82 400 82 419 84 c 128,-1,44
 438 86 438 86 450 90.5 c 128,-1,45
 462 95 462 95 468.5 104.5 c 128,-1,46
 475 114 475 114 477 126 c 2,47,-1
 489 224 l 1,48,-1
 572 224 l 1,18,-1
219 402 m 1,49,50
 261 406 261 406 303 408 c 128,-1,51
 345 410 345 410 386.5 413 c 128,-1,52
 428 416 428 416 469 418 c 1,53,-1
 469 313 l 1,54,55
 428 315 428 315 386.5 317.5 c 128,-1,56
 345 320 345 320 303 322.5 c 128,-1,57
 261 325 261 325 219 327 c 1,58,-1
 219 402 l 1,49,50
EndSplineSet
Substitution2: "'ss01' Style Set 1 lookup 61 subtable" Einvertedbreve.alt
EndChar

StartChar: F
Encoding: 70 70 67
Width: 608
GlyphClass: 2
Flags: W
AnchorPoint: "Anchor-0" 312 741 basechar 0
LayerCount: 2
Fore
SplineSet
234 628 m 1,0,-1
 234 93 l 2,1,2
 234 90 234 90 240.5 88.5 c 128,-1,3
 247 87 247 87 258 85.5 c 128,-1,4
 269 84 269 84 283 83.5 c 128,-1,5
 297 83 297 83 312 83 c 2,6,-1
 329 83 l 1,7,-1
 329 0 l 1,8,-1
 51 0 l 1,9,-1
 51 83 l 1,10,-1
 60 83 l 2,11,12
 83 83 83 83 101.5 90 c 128,-1,13
 120 97 120 97 120 119 c 2,14,-1
 120 591 l 2,15,16
 120 613 120 613 101.5 620 c 128,-1,17
 83 627 83 627 60 627 c 2,18,-1
 51 627 l 1,19,-1
 51 710 l 1,20,-1
 553 710 l 1,21,-1
 553 507 l 1,22,-1
 473 507 l 1,23,-1
 462 584 l 2,24,25
 459 602 459 602 448 611.5 c 128,-1,26
 437 621 437 621 415.5 624.5 c 128,-1,27
 394 628 394 628 360 628 c 2,28,-1
 234 628 l 1,0,-1
219 395 m 1,29,30
 261 397 261 397 303 399.5 c 128,-1,31
 345 402 345 402 386.5 404.5 c 128,-1,32
 428 407 428 407 469 409 c 1,33,-1
 469 304 l 1,34,35
 428 307 428 307 386.5 309.5 c 128,-1,36
 345 312 345 312 303 314.5 c 128,-1,37
 261 317 261 317 219 319 c 1,38,-1
 219 395 l 1,29,30
EndSplineSet
Substitution2: "'ss01' Style Set 1 lookup 61 subtable" F.alt
EndChar

StartChar: G
Encoding: 71 71 68
Width: 722
GlyphClass: 2
Flags: W
AnchorPoint: "Anchor-1" 368 0 basechar 0
AnchorPoint: "Anchor-0" 368 741 basechar 0
LayerCount: 2
Fore
SplineSet
617 227 m 2,0,-1
 617 86 l 1,1,2
 599 65 599 65 574 45.5 c 128,-1,3
 549 26 549 26 516.5 10.5 c 128,-1,4
 484 -5 484 -5 445.5 -14 c 128,-1,5
 407 -23 407 -23 363 -23 c 0,6,7
 292 -23 292 -23 234.5 0.5 c 128,-1,8
 177 24 177 24 136 72 c 128,-1,9
 95 120 95 120 73.5 191 c 128,-1,10
 52 262 52 262 52 356 c 256,11,12
 52 450 52 450 74.5 520.5 c 128,-1,13
 97 591 97 591 137.5 638.5 c 128,-1,14
 178 686 178 686 233 709.5 c 128,-1,15
 288 733 288 733 352 733 c 0,16,17
 411 733 411 733 452 710 c 128,-1,18
 493 687 493 687 518 641.5 c 128,-1,19
 543 596 543 596 552 527 c 1,20,-1
 528 562 l 1,21,-1
 541 719 l 1,22,-1
 620 719 l 1,23,-1
 620 497 l 1,24,-1
 537 497 l 1,25,26
 522 542 522 542 498 576.5 c 128,-1,27
 474 611 474 611 439.5 631 c 128,-1,28
 405 651 405 651 358 651 c 0,29,30
 312 651 312 651 277.5 633.5 c 128,-1,31
 243 616 243 616 219.5 580 c 128,-1,32
 196 544 196 544 184.5 488.5 c 128,-1,33
 173 433 173 433 173 356 c 256,34,35
 173 279 173 279 184.5 222 c 128,-1,36
 196 165 196 165 220 129 c 128,-1,37
 244 93 244 93 280.5 76 c 128,-1,38
 317 59 317 59 366 59 c 0,39,40
 401 59 401 59 428.5 67.5 c 128,-1,41
 456 76 456 76 476 89 c 128,-1,42
 496 102 496 102 509 116 c 1,43,-1
 509 227 l 2,44,45
 509 252 509 252 486 259.5 c 128,-1,46
 463 267 463 267 431 267 c 2,47,-1
 405 267 l 1,48,-1
 405 350 l 1,49,-1
 698 350 l 1,50,-1
 698 267 l 1,51,-1
 677 267 l 2,52,53
 648 267 648 267 632.5 259.5 c 128,-1,54
 617 252 617 252 617 227 c 2,0,-1
EndSplineSet
EndChar

StartChar: Gcaron
Encoding: 486 486 73
Width: 722
GlyphClass: 1
Flags: W
LayerCount: 2
Fore
SplineSet
323 804 m 1,0,-1
 401 804 l 1,1,-1
 521 959 l 1,2,-1
 521 983 l 1,3,-1
 465 983 l 1,4,-1
 305 846 l 1,5,-1
 425 848 l 1,6,-1
 266 983 l 1,7,-1
 202 983 l 1,8,-1
 202 959 l 1,9,-1
 323 804 l 1,0,-1
617 227 m 2,10,-1
 617 86 l 1,11,12
 599 65 599 65 574 45.5 c 128,-1,13
 549 26 549 26 516.5 10.5 c 128,-1,14
 484 -5 484 -5 445.5 -14 c 128,-1,15
 407 -23 407 -23 363 -23 c 0,16,17
 292 -23 292 -23 234.5 0.5 c 128,-1,18
 177 24 177 24 136 72 c 128,-1,19
 95 120 95 120 73.5 191 c 128,-1,20
 52 262 52 262 52 356 c 256,21,22
 52 450 52 450 74.5 520.5 c 128,-1,23
 97 591 97 591 137.5 638.5 c 128,-1,24
 178 686 178 686 233 709.5 c 128,-1,25
 288 733 288 733 352 733 c 0,26,27
 411 733 411 733 452 710 c 128,-1,28
 493 687 493 687 518 641.5 c 128,-1,29
 543 596 543 596 552 527 c 1,30,-1
 528 562 l 1,31,-1
 541 719 l 1,32,-1
 620 719 l 1,33,-1
 620 497 l 1,34,-1
 537 497 l 1,35,36
 522 542 522 542 498 576.5 c 128,-1,37
 474 611 474 611 439.5 631 c 128,-1,38
 405 651 405 651 358 651 c 0,39,40
 312 651 312 651 277.5 633.5 c 128,-1,41
 243 616 243 616 219.5 580 c 128,-1,42
 196 544 196 544 184.5 488.5 c 128,-1,43
 173 433 173 433 173 356 c 256,44,45
 173 279 173 279 184.5 222 c 128,-1,46
 196 165 196 165 220 129 c 128,-1,47
 244 93 244 93 280.5 76 c 128,-1,48
 317 59 317 59 366 59 c 0,49,50
 401 59 401 59 428.5 67.5 c 128,-1,51
 456 76 456 76 476 89 c 128,-1,52
 496 102 496 102 509 116 c 1,53,-1
 509 227 l 2,54,55
 509 252 509 252 486 259.5 c 128,-1,56
 463 267 463 267 431 267 c 2,57,-1
 405 267 l 1,58,-1
 405 350 l 1,59,-1
 698 350 l 1,60,-1
 698 267 l 1,61,-1
 677 267 l 2,62,63
 648 267 648 267 632.5 259.5 c 128,-1,64
 617 252 617 252 617 227 c 2,10,-1
EndSplineSet
EndChar

StartChar: H
Encoding: 72 72 75
Width: 766
GlyphClass: 2
Flags: W
AnchorPoint: "Anchor-1" 383 0 basechar 0
AnchorPoint: "Anchor-0" 383 741 basechar 0
LayerCount: 2
Fore
SplineSet
198 408 m 1,0,-1
 562 408 l 1,1,-1
 562 324 l 1,2,-1
 198 324 l 1,3,-1
 198 408 l 1,0,-1
51 0 m 1,4,-1
 51 83 l 1,5,-1
 60 83 l 2,6,7
 83 83 83 83 101.5 90 c 128,-1,8
 120 97 120 97 120 119 c 2,9,-1
 120 591 l 2,10,11
 120 613 120 613 101.5 620 c 128,-1,12
 83 627 83 627 60 627 c 2,13,-1
 51 627 l 1,14,-1
 51 710 l 1,15,-1
 311 710 l 1,16,-1
 311 628 l 1,17,-1
 303 628 l 2,18,19
 291 628 291 628 279 627 c 128,-1,20
 267 626 267 626 257 624.5 c 128,-1,21
 247 623 247 623 240 621.5 c 128,-1,22
 233 620 233 620 233 617 c 2,23,-1
 233 92 l 2,24,25
 233 89 233 89 240 88 c 128,-1,26
 247 87 247 87 257 85.5 c 128,-1,27
 267 84 267 84 279.5 83.5 c 128,-1,28
 292 83 292 83 302 83 c 2,29,-1
 311 83 l 1,30,-1
 311 0 l 1,31,-1
 51 0 l 1,4,-1
456 0 m 1,32,-1
 456 82 l 1,33,-1
 463 82 l 2,34,35
 474 82 474 82 486 83 c 128,-1,36
 498 84 498 84 508.5 85.5 c 128,-1,37
 519 87 519 87 525.5 88.5 c 128,-1,38
 532 90 532 90 532 93 c 2,39,-1
 532 618 l 2,40,41
 532 621 532 621 525.5 622 c 128,-1,42
 519 623 519 623 508.5 624.5 c 128,-1,43
 498 626 498 626 486 626.5 c 128,-1,44
 474 627 474 627 463 627 c 2,45,-1
 456 627 l 1,46,-1
 456 710 l 1,47,-1
 715 710 l 1,48,-1
 715 627 l 1,49,-1
 705 627 l 2,50,51
 683 627 683 627 664.5 620 c 128,-1,52
 646 613 646 613 646 591 c 2,53,-1
 646 119 l 2,54,55
 646 97 646 97 664.5 90 c 128,-1,56
 683 83 683 83 705 83 c 2,57,-1
 715 83 l 1,58,-1
 715 0 l 1,59,-1
 456 0 l 1,32,-1
EndSplineSet
EndChar

StartChar: I
Encoding: 73 73 79
Width: 374
GlyphClass: 2
Flags: W
AnchorPoint: "Anchor-2" 246 0 basechar 0
AnchorPoint: "Anchor-1" 187 0 basechar 0
AnchorPoint: "Anchor-0" 187 741 basechar 0
LayerCount: 2
Fore
SplineSet
130 119 m 2,0,-1
 130 591 l 2,1,2
 130 613 130 613 111 620 c 128,-1,3
 92 627 92 627 66 627 c 2,4,-1
 49 627 l 1,5,-1
 49 710 l 1,6,-1
 325 710 l 1,7,-1
 325 627 l 1,8,-1
 308 627 l 2,9,10
 282 627 282 627 263 620 c 128,-1,11
 244 613 244 613 244 591 c 2,12,-1
 244 119 l 2,13,14
 244 97 244 97 263 90 c 128,-1,15
 282 83 282 83 308 83 c 2,16,-1
 325 83 l 1,17,-1
 325 0 l 1,18,-1
 49 0 l 1,19,-1
 49 83 l 1,20,-1
 66 83 l 2,21,22
 92 83 92 83 111 90 c 128,-1,23
 130 97 130 97 130 119 c 2,0,-1
EndSplineSet
EndChar

StartChar: Icaron
Encoding: 463 463 89
Width: 374
GlyphClass: 1
Flags: W
LayerCount: 2
Fore
SplineSet
149 804 m 1,0,-1
 226 804 l 1,1,-1
 347 959 l 1,2,-1
 347 983 l 1,3,-1
 291 983 l 1,4,-1
 130 846 l 1,5,-1
 251 848 l 1,6,-1
 92 983 l 1,7,-1
 27 983 l 1,8,-1
 27 959 l 1,9,-1
 149 804 l 1,0,-1
130 119 m 2,10,-1
 130 591 l 2,11,12
 130 613 130 613 111 620 c 128,-1,13
 92 627 92 627 66 627 c 2,14,-1
 49 627 l 1,15,-1
 49 710 l 1,16,-1
 325 710 l 1,17,-1
 325 627 l 1,18,-1
 308 627 l 2,19,20
 282 627 282 627 263 620 c 128,-1,21
 244 613 244 613 244 591 c 2,22,-1
 244 119 l 2,23,24
 244 97 244 97 263 90 c 128,-1,25
 282 83 282 83 308 83 c 2,26,-1
 325 83 l 1,27,-1
 325 0 l 1,28,-1
 49 0 l 1,29,-1
 49 83 l 1,30,-1
 66 83 l 2,31,32
 92 83 92 83 111 90 c 128,-1,33
 130 97 130 97 130 119 c 2,10,-1
EndSplineSet
EndChar

StartChar: Idblgrave
Encoding: 520 520 90
Width: 374
GlyphClass: 1
Flags: W
LayerCount: 2
Fore
SplineSet
279 927 m 2,0,-1
 319 829 l 1,1,-1
 319 792 l 1,2,-1
 274 792 l 1,3,-1
 206 855 l 2,4,5
 185 874 185 874 174 892.5 c 128,-1,6
 163 911 163 911 163 933 c 0,7,8
 163 952 163 952 176.5 965.5 c 128,-1,9
 190 979 190 979 214 979 c 0,10,11
 231 979 231 979 243.5 971.5 c 128,-1,12
 256 964 256 964 264.5 952.5 c 128,-1,13
 273 941 273 941 279 927 c 2,0,-1
96 927 m 2,14,-1
 133 829 l 1,15,-1
 133 792 l 1,16,-1
 89 792 l 1,17,-1
 21 855 l 2,18,19
 1 874 1 874 -11 892.5 c 128,-1,20
 -23 911 -23 911 -23 933 c 0,21,22
 -23 952 -23 952 -9 965.5 c 128,-1,23
 5 979 5 979 29 979 c 0,24,25
 47 979 47 979 59.5 971.5 c 128,-1,26
 72 964 72 964 81.5 952.5 c 128,-1,27
 91 941 91 941 96 927 c 2,14,-1
130 119 m 2,28,-1
 130 591 l 2,29,30
 130 613 130 613 111.5 620 c 128,-1,31
 93 627 93 627 66 627 c 2,32,-1
 49 627 l 1,33,-1
 49 710 l 1,34,-1
 325 710 l 1,35,-1
 325 627 l 1,36,-1
 308 627 l 2,37,38
 282 627 282 627 263 620 c 128,-1,39
 244 613 244 613 244 591 c 2,40,-1
 244 119 l 2,41,42
 244 97 244 97 263 90 c 128,-1,43
 282 83 282 83 308 83 c 2,44,-1
 325 83 l 1,45,-1
 325 0 l 1,46,-1
 49 0 l 1,47,-1
 49 83 l 1,48,-1
 66 83 l 2,49,50
 93 83 93 83 111.5 90 c 128,-1,51
 130 97 130 97 130 119 c 2,28,-1
EndSplineSet
EndChar

StartChar: Iinvertedbreve
Encoding: 522 522 91
Width: 374
GlyphClass: 1
Flags: W
LayerCount: 2
Fore
SplineSet
187 934 m 0,0,1
 132 934 132 934 95.5 917.5 c 128,-1,2
 59 901 59 901 39.5 864 c 128,-1,3
 20 827 20 827 19 765 c 1,4,-1
 98 765 l 1,5,6
 100 800 100 800 108 818.5 c 128,-1,7
 116 837 116 837 135 844.5 c 128,-1,8
 154 852 154 852 187 852 c 0,9,10
 217 852 217 852 235.5 844.5 c 128,-1,11
 254 837 254 837 263 818.5 c 128,-1,12
 272 800 272 800 273 765 c 1,13,-1
 356 765 l 1,14,15
 355 827 355 827 335 864 c 128,-1,16
 315 901 315 901 277.5 917.5 c 128,-1,17
 240 934 240 934 187 934 c 0,0,1
130 119 m 2,18,-1
 130 591 l 2,19,20
 130 613 130 613 111 620 c 128,-1,21
 92 627 92 627 66 627 c 2,22,-1
 49 627 l 1,23,-1
 49 710 l 1,24,-1
 325 710 l 1,25,-1
 325 627 l 1,26,-1
 308 627 l 2,27,28
 282 627 282 627 263 620 c 128,-1,29
 244 613 244 613 244 591 c 2,30,-1
 244 119 l 2,31,32
 244 97 244 97 263 90 c 128,-1,33
 282 83 282 83 308 83 c 2,34,-1
 325 83 l 1,35,-1
 325 0 l 1,36,-1
 49 0 l 1,37,-1
 49 83 l 1,38,-1
 66 83 l 2,39,40
 92 83 92 83 111 90 c 128,-1,41
 130 97 130 97 130 119 c 2,18,-1
EndSplineSet
EndChar

StartChar: J
Encoding: 74 74 94
Width: 595
GlyphClass: 2
Flags: W
AnchorPoint: "Anchor-0" 400 741 basechar 0
LayerCount: 2
Fore
SplineSet
273 710 m 1,0,-1
 556 710 l 1,1,-1
 556 627 l 1,2,-1
 538 627 l 2,3,4
 515 627 515 627 497 620 c 128,-1,5
 479 613 479 613 479 591 c 2,6,-1
 479 206 l 2,7,8
 479 144 479 144 461 100 c 128,-1,9
 443 56 443 56 411.5 29 c 128,-1,10
 380 2 380 2 337 -11 c 128,-1,11
 294 -24 294 -24 245 -24 c 0,12,13
 192 -24 192 -24 152.5 -11.5 c 128,-1,14
 113 1 113 1 87 18 c 128,-1,15
 61 35 61 35 46 47 c 1,16,-1
 46 219 l 1,17,-1
 164 219 l 1,18,-1
 164 36 l 1,19,20
 150 42 150 42 137.5 53 c 128,-1,21
 125 64 125 64 118 76.5 c 128,-1,22
 111 89 111 89 110.5 98.5 c 128,-1,23
 110 108 110 108 119 110 c 1,24,25
 131 99 131 99 149 87.5 c 128,-1,26
 167 76 167 76 190 68 c 128,-1,27
 213 60 213 60 242 60 c 0,28,29
 282 60 282 60 309 72.5 c 128,-1,30
 336 85 336 85 350.5 117.5 c 128,-1,31
 365 150 365 150 365 209 c 2,32,-1
 365 591 l 2,33,34
 365 606 365 606 355.5 613.5 c 128,-1,35
 346 621 346 621 330 624 c 128,-1,36
 314 627 314 627 295 627 c 2,37,-1
 273 627 l 1,38,-1
 273 710 l 1,0,-1
EndSplineSet
EndChar

StartChar: K
Encoding: 75 75 96
Width: 706
GlyphClass: 2
Flags: W
AnchorPoint: "Anchor-1" 364 0 basechar 0
AnchorPoint: "Anchor-0" 364 741 basechar 0
LayerCount: 2
Fore
SplineSet
51 0 m 1,0,-1
 51 83 l 1,1,-1
 60 83 l 2,2,3
 83 83 83 83 101.5 90 c 128,-1,4
 120 97 120 97 120 119 c 2,5,-1
 120 591 l 2,6,7
 120 613 120 613 101.5 620 c 128,-1,8
 83 627 83 627 60 627 c 2,9,-1
 51 627 l 1,10,-1
 51 710 l 1,11,-1
 309 710 l 1,12,-1
 309 627 l 1,13,-1
 300 627 l 2,14,15
 290 627 290 627 278 626.5 c 128,-1,16
 266 626 266 626 256 624.5 c 128,-1,17
 246 623 246 623 239.5 621.5 c 128,-1,18
 233 620 233 620 233 618 c 2,19,-1
 233 92 l 2,20,21
 233 90 233 90 239 88.5 c 128,-1,22
 245 87 245 87 255 85.5 c 128,-1,23
 265 84 265 84 277 83.5 c 128,-1,24
 289 83 289 83 298 83 c 2,25,-1
 305 83 l 1,26,-1
 305 0 l 1,27,-1
 51 0 l 1,0,-1
409 0 m 1,28,-1
 409 83 l 1,29,-1
 417 83 l 2,30,31
 434 83 434 83 448.5 84 c 128,-1,32
 463 85 463 85 472.5 87.5 c 128,-1,33
 482 90 482 90 482 93 c 2,34,-1
 273 347 l 1,35,-1
 273 371 l 1,36,-1
 496 616 l 2,37,38
 496 620 496 620 486.5 622 c 128,-1,39
 477 624 477 624 462.5 625.5 c 128,-1,40
 448 627 448 627 433 627 c 2,41,-1
 425 627 l 1,42,-1
 425 710 l 1,43,-1
 659 710 l 1,44,-1
 659 627 l 1,45,-1
 639 627 l 2,46,47
 629 627 629 627 621 624.5 c 128,-1,48
 613 622 613 622 604 616 c 128,-1,49
 595 610 595 610 585 598 c 2,50,-1
 361 354 l 1,51,-1
 364 404 l 1,52,-1
 610 106 l 2,53,54
 618 97 618 97 627 91.5 c 128,-1,55
 636 86 636 86 645.5 84.5 c 128,-1,56
 655 83 655 83 664 83 c 2,57,-1
 684 83 l 1,58,-1
 684 0 l 1,59,-1
 409 0 l 1,28,-1
EndSplineSet
EndChar

StartChar: L
Encoding: 76 76 98
Width: 593
GlyphClass: 2
Flags: W
AnchorPoint: "Anchor-2" 452 710 basechar 0
AnchorPoint: "Anchor-1" 363 0 basechar 0
AnchorPoint: "Anchor-0" 363 741 basechar 0
LayerCount: 2
Fore
SplineSet
323 710 m 1,0,-1
 51 710 l 1,1,-1
 51 627 l 1,2,-1
 60 627 l 2,3,4
 83 627 83 627 101.5 620 c 128,-1,5
 120 613 120 613 120 591 c 2,6,-1
 120 119 l 2,7,8
 120 97 120 97 101.5 90 c 128,-1,9
 83 83 83 83 60 83 c 2,10,-1
 51 83 l 1,11,-1
 51 0 l 1,12,-1
 548 0 l 1,13,-1
 548 238 l 1,14,-1
 465 238 l 1,15,-1
 452 126 l 2,16,17
 451 108 451 108 440.5 98.5 c 128,-1,18
 430 89 430 89 407.5 85.5 c 128,-1,19
 385 82 385 82 349 82 c 2,20,-1
 234 82 l 1,21,-1
 234 591 l 2,22,23
 234 613 234 613 255 620 c 128,-1,24
 276 627 276 627 308 627 c 2,25,-1
 323 627 l 1,26,-1
 323 710 l 1,0,-1
EndSplineSet
EndChar

StartChar: M
Encoding: 77 77 104
Width: 888
GlyphClass: 2
Flags: W
AnchorPoint: "Anchor-1" 434 0 basechar 0
LayerCount: 2
Fore
SplineSet
51 0 m 1,0,-1
 51 83 l 1,1,-1
 60 83 l 2,2,3
 75 83 75 83 88 86 c 128,-1,4
 101 89 101 89 109.5 97 c 128,-1,5
 118 105 118 105 118 119 c 2,6,-1
 118 591 l 2,7,8
 118 606 118 606 109.5 613.5 c 128,-1,9
 101 621 101 621 88 624 c 128,-1,10
 75 627 75 627 60 627 c 2,11,-1
 51 627 l 1,12,-1
 51 710 l 1,13,-1
 300 710 l 1,14,-1
 466 121 l 1,15,-1
 405 96 l 1,16,-1
 589 710 l 1,17,-1
 837 710 l 1,18,-1
 837 627 l 1,19,-1
 828 627 l 2,20,21
 805 627 805 627 785 620 c 128,-1,22
 765 613 765 613 765 591 c 2,23,-1
 765 119 l 2,24,25
 765 97 765 97 785 90 c 128,-1,26
 805 83 805 83 828 83 c 2,27,-1
 837 83 l 1,28,-1
 837 0 l 1,29,-1
 585 0 l 1,30,-1
 585 83 l 1,31,-1
 593 83 l 2,32,33
 605 83 605 83 618 84 c 128,-1,34
 631 85 631 85 641 87.5 c 128,-1,35
 651 90 651 90 651 93 c 2,36,-1
 651 693 l 1,37,-1
 675 701 l 1,38,-1
 457 -3 l 1,39,-1
 395 -3 l 1,40,-1
 188 702 l 1,41,-1
 207 690 l 1,42,-1
 207 93 l 2,43,44
 207 90 207 90 217 87.5 c 128,-1,45
 227 85 227 85 238.5 84 c 128,-1,46
 250 83 250 83 255 83 c 2,47,-1
 259 83 l 1,48,-1
 259 0 l 1,49,-1
 51 0 l 1,0,-1
EndSplineSet
EndChar

StartChar: N
Encoding: 78 78 106
Width: 739
GlyphClass: 2
Flags: W
AnchorPoint: "Anchor-1" 378 0 basechar 0
AnchorPoint: "Anchor-0" 378 741 basechar 0
LayerCount: 2
Fore
SplineSet
51 0 m 1,0,-1
 51 83 l 1,1,-1
 60 83 l 2,2,3
 76 83 76 83 89 86 c 128,-1,4
 102 89 102 89 110.5 97 c 128,-1,5
 119 105 119 105 119 119 c 2,6,-1
 119 591 l 2,7,8
 119 606 119 606 110.5 613.5 c 128,-1,9
 102 621 102 621 89 624 c 128,-1,10
 76 627 76 627 60 627 c 2,11,-1
 51 627 l 1,12,-1
 51 710 l 1,13,-1
 270 710 l 1,14,-1
 578 89 l 1,15,-1
 539 85 l 1,16,-1
 539 617 l 2,17,18
 539 621 539 621 528.5 623 c 128,-1,19
 518 625 518 625 505.5 626 c 128,-1,20
 493 627 493 627 485 627 c 2,21,-1
 473 627 l 1,22,-1
 473 710 l 1,23,-1
 697 710 l 1,24,-1
 697 627 l 1,25,-1
 688 627 l 2,26,27
 673 627 673 627 659.5 624 c 128,-1,28
 646 621 646 621 638 613.5 c 128,-1,29
 630 606 630 606 630 592 c 2,30,-1
 630 0 l 1,31,-1
 508 0 l 1,32,-1
 169 673 l 1,33,-1
 210 671 l 1,34,-1
 210 93 l 2,35,36
 210 90 210 90 219.5 87.5 c 128,-1,37
 229 85 229 85 242.5 84 c 128,-1,38
 256 83 256 83 265 83 c 2,39,-1
 277 83 l 1,40,-1
 277 0 l 1,41,-1
 51 0 l 1,0,-1
EndSplineSet
EndChar

StartChar: Ncaron
Encoding: 327 327 110
Width: 739
GlyphClass: 1
Flags: W
LayerCount: 2
Fore
SplineSet
340 804 m 1,0,-1
 417 804 l 1,1,-1
 537 959 l 1,2,-1
 537 983 l 1,3,-1
 482 983 l 1,4,-1
 321 846 l 1,5,-1
 442 848 l 1,6,-1
 283 983 l 1,7,-1
 218 983 l 1,8,-1
 218 959 l 1,9,-1
 340 804 l 1,0,-1
51 0 m 1,10,-1
 51 83 l 1,11,-1
 60 83 l 2,12,13
 76 83 76 83 89 86 c 128,-1,14
 102 89 102 89 110.5 97 c 128,-1,15
 119 105 119 105 119 119 c 2,16,-1
 119 591 l 2,17,18
 119 606 119 606 110.5 613.5 c 128,-1,19
 102 621 102 621 89 624 c 128,-1,20
 76 627 76 627 60 627 c 2,21,-1
 51 627 l 1,22,-1
 51 710 l 1,23,-1
 270 710 l 1,24,-1
 578 89 l 1,25,-1
 539 85 l 1,26,-1
 539 617 l 2,27,28
 539 621 539 621 528.5 623 c 128,-1,29
 518 625 518 625 505.5 626 c 128,-1,30
 493 627 493 627 485 627 c 2,31,-1
 473 627 l 1,32,-1
 473 710 l 1,33,-1
 697 710 l 1,34,-1
 697 627 l 1,35,-1
 688 627 l 2,36,37
 673 627 673 627 659.5 624 c 128,-1,38
 646 621 646 621 638 613.5 c 128,-1,39
 630 606 630 606 630 592 c 2,40,-1
 630 0 l 1,41,-1
 508 0 l 1,42,-1
 169 673 l 1,43,-1
 210 671 l 1,44,-1
 210 93 l 2,45,46
 210 90 210 90 219.5 87.5 c 128,-1,47
 229 85 229 85 242.5 84 c 128,-1,48
 256 83 256 83 265 83 c 2,49,-1
 277 83 l 1,50,-1
 277 0 l 1,51,-1
 51 0 l 1,10,-1
EndSplineSet
EndChar

StartChar: O
Encoding: 79 79 114
Width: 718
GlyphClass: 2
Flags: W
AnchorPoint: "Anchor-2" 395 0 basechar 0
AnchorPoint: "Anchor-1" 359 0 basechar 0
AnchorPoint: "Anchor-0" 359 741 basechar 0
LayerCount: 2
Fore
SplineSet
359 -23 m 0,0,1
 290 -23 290 -23 233.5 1.5 c 128,-1,2
 177 26 177 26 136 74 c 128,-1,3
 95 122 95 122 73.5 192.5 c 128,-1,4
 52 263 52 263 52 355 c 0,5,6
 52 448 52 448 73.5 518.5 c 128,-1,7
 95 589 95 589 136 637 c 128,-1,8
 177 685 177 685 233.5 709 c 128,-1,9
 290 733 290 733 359 733 c 0,10,11
 429 733 429 733 485.5 709 c 128,-1,12
 542 685 542 685 582.5 637 c 128,-1,13
 623 589 623 589 644.5 518.5 c 128,-1,14
 666 448 666 448 666 355 c 0,15,16
 666 263 666 263 644.5 192.5 c 128,-1,17
 623 122 623 122 582.5 74 c 128,-1,18
 542 26 542 26 485.5 1.5 c 128,-1,19
 429 -23 429 -23 359 -23 c 0,0,1
359 61 m 0,20,21
 406 61 406 61 441 78 c 128,-1,22
 476 95 476 95 499 130.5 c 128,-1,23
 522 166 522 166 533.5 221.5 c 128,-1,24
 545 277 545 277 545 355 c 0,25,26
 545 432 545 432 533.5 488 c 128,-1,27
 522 544 522 544 499 579.5 c 128,-1,28
 476 615 476 615 441 632 c 128,-1,29
 406 649 406 649 359 649 c 0,30,31
 313 649 313 649 277.5 632 c 128,-1,32
 242 615 242 615 219 579.5 c 128,-1,33
 196 544 196 544 184.5 488 c 128,-1,34
 173 432 173 432 173 355 c 256,35,36
 173 278 173 278 184.5 222 c 128,-1,37
 196 166 196 166 219.5 130.5 c 128,-1,38
 243 95 243 95 278 78 c 128,-1,39
 313 61 313 61 359 61 c 0,20,21
EndSplineSet
EndChar

StartChar: Ohorn
Encoding: 416 416 123
Width: 772
GlyphClass: 2
Flags: W
AnchorPoint: "Anchor-1" 383 -35 basechar 0
AnchorPoint: "Anchor-0" 383 742 basechar 0
LayerCount: 2
Fore
SplineSet
359 61 m 0,0,1
 407 61 407 61 442 77.5 c 128,-1,2
 477 94 477 94 500 129 c 128,-1,3
 523 164 523 164 534 220 c 128,-1,4
 545 276 545 276 545 355 c 256,5,6
 545 434 545 434 534 490 c 128,-1,7
 523 546 523 546 500 581 c 128,-1,8
 477 616 477 616 442 632.5 c 128,-1,9
 407 649 407 649 359 649 c 0,10,11
 312 649 312 649 276.5 632.5 c 128,-1,12
 241 616 241 616 218.5 581 c 128,-1,13
 196 546 196 546 184.5 490 c 128,-1,14
 173 434 173 434 173 355 c 256,15,16
 173 276 173 276 184.5 220 c 128,-1,17
 196 164 196 164 218.5 129 c 128,-1,18
 241 94 241 94 276.5 77.5 c 128,-1,19
 312 61 312 61 359 61 c 0,0,1
539 627 m 1,20,-1
 506 669 l 1,21,22
 541 648 541 648 570 619.5 c 128,-1,23
 599 591 599 591 620.5 553 c 128,-1,24
 642 515 642 515 654 466 c 128,-1,25
 666 417 666 417 666 354 c 0,26,27
 666 262 666 262 644.5 191 c 128,-1,28
 623 120 623 120 582.5 72.5 c 128,-1,29
 542 25 542 25 485.5 1 c 128,-1,30
 429 -23 429 -23 359 -23 c 0,31,32
 291 -23 291 -23 234.5 1 c 128,-1,33
 178 25 178 25 137 72.5 c 128,-1,34
 96 120 96 120 74 191 c 128,-1,35
 52 262 52 262 52 355 c 0,36,37
 52 449 52 449 74 519.5 c 128,-1,38
 96 590 96 590 137 637.5 c 128,-1,39
 178 685 178 685 234.5 709 c 128,-1,40
 291 733 291 733 359 733 c 0,41,42
 400 733 400 733 431 727.5 c 128,-1,43
 462 722 462 722 486.5 715.5 c 128,-1,44
 511 709 511 709 532.5 703.5 c 128,-1,45
 554 698 554 698 577 698 c 0,46,47
 602 698 602 698 620 710 c 128,-1,48
 638 722 638 722 649.5 747 c 128,-1,49
 661 772 661 772 668 809.5 c 128,-1,50
 675 847 675 847 679 898 c 1,51,-1
 782 898 l 1,52,53
 780 823 780 823 766 769 c 128,-1,54
 752 715 752 715 729.5 681 c 128,-1,55
 707 647 707 647 679 630.5 c 128,-1,56
 651 614 651 614 620 614 c 0,57,58
 605 614 605 614 589.5 618 c 128,-1,59
 574 622 574 622 559 629.5 c 128,-1,60
 544 637 544 637 528.5 646.5 c 128,-1,61
 513 656 513 656 496 666 c 1,62,-1
 539 666 l 1,63,-1
 539 627 l 1,20,-1
EndSplineSet
EndChar

StartChar: Ocaron
Encoding: 465 465 124
Width: 718
GlyphClass: 1
Flags: W
LayerCount: 2
Fore
SplineSet
320 804 m 1,0,-1
 398 804 l 1,1,-1
 518 959 l 1,2,-1
 518 983 l 1,3,-1
 462 983 l 1,4,-1
 302 846 l 1,5,-1
 422 848 l 1,6,-1
 263 983 l 1,7,-1
 199 983 l 1,8,-1
 199 959 l 1,9,-1
 320 804 l 1,0,-1
359 -23 m 0,10,11
 290 -23 290 -23 233.5 1.5 c 128,-1,12
 177 26 177 26 136 74 c 128,-1,13
 95 122 95 122 73.5 192.5 c 128,-1,14
 52 263 52 263 52 355 c 0,15,16
 52 448 52 448 73.5 518.5 c 128,-1,17
 95 589 95 589 136 637 c 128,-1,18
 177 685 177 685 233.5 709 c 128,-1,19
 290 733 290 733 359 733 c 0,20,21
 429 733 429 733 485.5 709 c 128,-1,22
 542 685 542 685 582.5 637 c 128,-1,23
 623 589 623 589 644.5 518.5 c 128,-1,24
 666 448 666 448 666 355 c 0,25,26
 666 263 666 263 644.5 192.5 c 128,-1,27
 623 122 623 122 582.5 74 c 128,-1,28
 542 26 542 26 485.5 1.5 c 128,-1,29
 429 -23 429 -23 359 -23 c 0,10,11
359 61 m 0,30,31
 406 61 406 61 441 78 c 128,-1,32
 476 95 476 95 499 130.5 c 128,-1,33
 522 166 522 166 533.5 222 c 128,-1,34
 545 278 545 278 545 355 c 256,35,36
 545 432 545 432 533.5 488 c 128,-1,37
 522 544 522 544 499 579.5 c 128,-1,38
 476 615 476 615 441 632 c 128,-1,39
 406 649 406 649 359 649 c 0,40,41
 313 649 313 649 277.5 632 c 128,-1,42
 242 615 242 615 219 579.5 c 128,-1,43
 196 544 196 544 184.5 488 c 128,-1,44
 173 432 173 432 173 355 c 256,45,46
 173 278 173 278 184.5 222 c 128,-1,47
 196 166 196 166 219.5 130.5 c 128,-1,48
 243 95 243 95 278 78 c 128,-1,49
 313 61 313 61 359 61 c 0,30,31
EndSplineSet
EndChar

StartChar: Oogonek
Encoding: 490 490 125
Width: 718
GlyphClass: 1
Flags: W
LayerCount: 2
Fore
SplineSet
359 61 m 0,0,1
 407 61 407 61 442 77.5 c 128,-1,2
 477 94 477 94 500 129 c 128,-1,3
 523 164 523 164 534 220 c 128,-1,4
 545 276 545 276 545 355 c 256,5,6
 545 434 545 434 534 490 c 128,-1,7
 523 546 523 546 500 581 c 128,-1,8
 477 616 477 616 442 632.5 c 128,-1,9
 407 649 407 649 359 649 c 0,10,11
 312 649 312 649 277 632.5 c 128,-1,12
 242 616 242 616 219 581 c 128,-1,13
 196 546 196 546 184.5 490 c 128,-1,14
 173 434 173 434 173 355 c 256,15,16
 173 276 173 276 184.5 220 c 128,-1,17
 196 164 196 164 219 129 c 128,-1,18
 242 94 242 94 277 77.5 c 128,-1,19
 312 61 312 61 359 61 c 0,0,1
578 70 m 0,20,21
 559 48 559 48 535 26 c 128,-1,22
 511 4 511 4 487 -18.5 c 128,-1,23
 463 -41 463 -41 442.5 -63 c 128,-1,24
 422 -85 422 -85 409 -106 c 128,-1,25
 396 -127 396 -127 396 -147 c 0,26,27
 396 -163 396 -163 405.5 -173.5 c 128,-1,28
 415 -184 415 -184 436 -184 c 0,29,30
 460 -184 460 -184 477 -169.5 c 128,-1,31
 494 -155 494 -155 505 -140 c 1,32,-1
 551 -181 l 1,33,34
 536 -201 536 -201 516.5 -217 c 128,-1,35
 497 -233 497 -233 471 -242.5 c 128,-1,36
 445 -252 445 -252 410 -252 c 0,37,38
 371 -252 371 -252 341 -242 c 128,-1,39
 311 -232 311 -232 294 -211.5 c 128,-1,40
 277 -191 277 -191 277 -160 c 0,41,42
 277 -136 277 -136 286.5 -116 c 128,-1,43
 296 -96 296 -96 318.5 -75 c 128,-1,44
 341 -54 341 -54 379.5 -27 c 128,-1,45
 418 0 418 0 475 37 c 1,46,-1
 466 -5 l 1,47,48
 449 -11 449 -11 432 -15 c 128,-1,49
 415 -19 415 -19 397 -21 c 128,-1,50
 379 -23 379 -23 359 -23 c 0,51,52
 291 -23 291 -23 234.5 1 c 128,-1,53
 178 25 178 25 137 72.5 c 128,-1,54
 96 120 96 120 74 191 c 128,-1,55
 52 262 52 262 52 355 c 0,56,57
 52 449 52 449 74 519.5 c 128,-1,58
 96 590 96 590 137 637.5 c 128,-1,59
 178 685 178 685 234.5 709 c 128,-1,60
 291 733 291 733 359 733 c 0,61,62
 428 733 428 733 485 709 c 128,-1,63
 542 685 542 685 582.5 637.5 c 128,-1,64
 623 590 623 590 644.5 519.5 c 128,-1,65
 666 449 666 449 666 355 c 0,66,67
 666 294 666 294 655.5 241 c 128,-1,68
 645 188 645 188 625.5 145.5 c 128,-1,69
 606 103 606 103 578 70 c 0,20,21
EndSplineSet
EndChar

StartChar: Odblgrave
Encoding: 524 524 126
Width: 718
GlyphClass: 1
Flags: W
LayerCount: 2
Fore
SplineSet
458 927 m 2,0,-1
 498 828 l 1,1,-1
 498 792 l 1,2,-1
 453 792 l 1,3,-1
 385 855 l 2,4,5
 364 874 364 874 353 892.5 c 128,-1,6
 342 911 342 911 342 933 c 0,7,8
 342 952 342 952 355.5 965.5 c 128,-1,9
 369 979 369 979 393 979 c 0,10,11
 410 979 410 979 422.5 971.5 c 128,-1,12
 435 964 435 964 443.5 952.5 c 128,-1,13
 452 941 452 941 458 927 c 2,0,-1
275 927 m 2,14,-1
 312 828 l 1,15,-1
 312 792 l 1,16,-1
 268 792 l 1,17,-1
 200 855 l 2,18,19
 180 874 180 874 168 892.5 c 128,-1,20
 156 911 156 911 156 933 c 0,21,22
 156 952 156 952 170 965.5 c 128,-1,23
 184 979 184 979 208 979 c 0,24,25
 225 979 225 979 238 971.5 c 128,-1,26
 251 964 251 964 260.5 952.5 c 128,-1,27
 270 941 270 941 275 927 c 2,14,-1
359 -23 m 0,28,29
 290 -23 290 -23 233.5 1.5 c 128,-1,30
 177 26 177 26 136 74 c 128,-1,31
 95 122 95 122 73.5 192.5 c 128,-1,32
 52 263 52 263 52 355 c 0,33,34
 52 448 52 448 73.5 518.5 c 128,-1,35
 95 589 95 589 136 637 c 128,-1,36
 177 685 177 685 233.5 709 c 128,-1,37
 290 733 290 733 359 733 c 0,38,39
 429 733 429 733 485.5 709 c 128,-1,40
 542 685 542 685 582.5 637 c 128,-1,41
 623 589 623 589 644.5 518.5 c 128,-1,42
 666 448 666 448 666 355 c 0,43,44
 666 263 666 263 644.5 192.5 c 128,-1,45
 623 122 623 122 582.5 74 c 128,-1,46
 542 26 542 26 485.5 1.5 c 128,-1,47
 429 -23 429 -23 359 -23 c 0,28,29
359 61 m 0,48,49
 406 61 406 61 441 78 c 128,-1,50
 476 95 476 95 499 130.5 c 128,-1,51
 522 166 522 166 533.5 222 c 128,-1,52
 545 278 545 278 545 355 c 256,53,54
 545 432 545 432 533.5 488 c 128,-1,55
 522 544 522 544 499 579.5 c 128,-1,56
 476 615 476 615 441 632 c 128,-1,57
 406 649 406 649 359 649 c 0,58,59
 313 649 313 649 277.5 632 c 128,-1,60
 242 615 242 615 219 579.5 c 128,-1,61
 196 544 196 544 184.5 488 c 128,-1,62
 173 432 173 432 173 355 c 256,63,64
 173 278 173 278 184.5 222 c 128,-1,65
 196 166 196 166 219.5 130.5 c 128,-1,66
 243 95 243 95 278 78 c 128,-1,67
 313 61 313 61 359 61 c 0,48,49
EndSplineSet
EndChar

StartChar: Oinvertedbreve
Encoding: 526 526 127
Width: 718
GlyphClass: 1
Flags: W
LayerCount: 2
Fore
SplineSet
359 934 m 0,0,1
 304 934 304 934 267.5 917.5 c 128,-1,2
 231 901 231 901 211.5 864 c 128,-1,3
 192 827 192 827 192 765 c 1,4,-1
 270 765 l 1,5,6
 272 800 272 800 280 818.5 c 128,-1,7
 288 837 288 837 307 844.5 c 128,-1,8
 326 852 326 852 359 852 c 0,9,10
 389 852 389 852 407.5 844.5 c 128,-1,11
 426 837 426 837 435 818.5 c 128,-1,12
 444 800 444 800 445 765 c 1,13,-1
 528 765 l 1,14,15
 527 827 527 827 507 864 c 128,-1,16
 487 901 487 901 449.5 917.5 c 128,-1,17
 412 934 412 934 359 934 c 0,0,1
359 -23 m 0,18,19
 290 -23 290 -23 233.5 1.5 c 128,-1,20
 177 26 177 26 136 74 c 128,-1,21
 95 122 95 122 73.5 192.5 c 128,-1,22
 52 263 52 263 52 355 c 0,23,24
 52 448 52 448 73.5 518.5 c 128,-1,25
 95 589 95 589 136 637 c 128,-1,26
 177 685 177 685 233.5 709 c 128,-1,27
 290 733 290 733 359 733 c 0,28,29
 429 733 429 733 485.5 709 c 128,-1,30
 542 685 542 685 582.5 637 c 128,-1,31
 623 589 623 589 644.5 518.5 c 128,-1,32
 666 448 666 448 666 355 c 0,33,34
 666 263 666 263 644.5 192.5 c 128,-1,35
 623 122 623 122 582.5 74 c 128,-1,36
 542 26 542 26 485.5 1.5 c 128,-1,37
 429 -23 429 -23 359 -23 c 0,18,19
359 61 m 0,38,39
 406 61 406 61 441 78 c 128,-1,40
 476 95 476 95 499 130.5 c 128,-1,41
 522 166 522 166 533.5 222 c 128,-1,42
 545 278 545 278 545 355 c 256,43,44
 545 432 545 432 533.5 488 c 128,-1,45
 522 544 522 544 499 579.5 c 128,-1,46
 476 615 476 615 441 632 c 128,-1,47
 406 649 406 649 359 649 c 0,48,49
 313 649 313 649 277.5 632 c 128,-1,50
 242 615 242 615 219 579.5 c 128,-1,51
 196 544 196 544 184.5 488 c 128,-1,52
 173 432 173 432 173 355 c 256,53,54
 173 278 173 278 184.5 222 c 128,-1,55
 196 166 196 166 219.5 130.5 c 128,-1,56
 243 95 243 95 278 78 c 128,-1,57
 313 61 313 61 359 61 c 0,38,39
EndSplineSet
EndChar

StartChar: P
Encoding: 80 80 147
Width: 623
GlyphClass: 2
Flags: W
AnchorPoint: "Anchor-0" 319 741 basechar 0
LayerCount: 2
Fore
SplineSet
234 93 m 2,0,-1
 234 628 l 1,1,-1
 342 628 l 2,2,3
 381 628 381 628 408 612.5 c 128,-1,4
 435 597 435 597 449 567 c 128,-1,5
 463 537 463 537 463 494 c 256,6,7
 463 451 463 451 449 419.5 c 128,-1,8
 435 388 435 388 408 371.5 c 128,-1,9
 381 355 381 355 342 355 c 2,10,-1
 220 355 l 1,11,-1
 220 274 l 1,12,-1
 350 274 l 2,13,14
 416 274 416 274 468 299.5 c 128,-1,15
 520 325 520 325 550 375.5 c 128,-1,16
 580 426 580 426 580 499 c 0,17,18
 580 604 580 604 517 657 c 128,-1,19
 454 710 454 710 351 710 c 2,20,-1
 51 710 l 1,21,-1
 51 628 l 1,22,-1
 60 628 l 2,23,24
 83 628 83 628 101.5 621 c 128,-1,25
 120 614 120 614 120 591 c 2,26,-1
 120 118 l 2,27,28
 120 96 120 96 101.5 89 c 128,-1,29
 83 82 83 82 60 82 c 2,30,-1
 51 82 l 1,31,-1
 51 0 l 1,32,-1
 328 0 l 1,33,-1
 328 83 l 1,34,-1
 310 83 l 2,35,36
 295 83 295 83 281 83.5 c 128,-1,37
 267 84 267 84 256.5 85.5 c 128,-1,38
 246 87 246 87 240 88.5 c 128,-1,39
 234 90 234 90 234 93 c 2,0,-1
EndSplineSet
EndChar

StartChar: Q
Encoding: 81 81 148
Width: 718
GlyphClass: 1
Flags: W
LayerCount: 2
Fore
SplineSet
316 -3 m 1,0,-1
 405 12 l 1,1,2
 406 -46 406 -46 418 -80 c 128,-1,3
 430 -114 430 -114 455 -129.5 c 128,-1,4
 480 -145 480 -145 521 -145 c 0,5,6
 548 -145 548 -145 571.5 -140.5 c 128,-1,7
 595 -136 595 -136 617 -130 c 128,-1,8
 639 -124 639 -124 658 -118 c 1,9,-1
 658 -227 l 1,10,11
 633 -233 633 -233 598 -237.5 c 128,-1,12
 563 -242 563 -242 530 -242 c 0,13,14
 458 -242 458 -242 410 -215.5 c 128,-1,15
 362 -189 362 -189 339 -135.5 c 128,-1,16
 316 -82 316 -82 316 -3 c 1,0,-1
359 -23 m 0,17,18
 290 -23 290 -23 233.5 1.5 c 128,-1,19
 177 26 177 26 136 74 c 128,-1,20
 95 122 95 122 73.5 192.5 c 128,-1,21
 52 263 52 263 52 355 c 0,22,23
 52 448 52 448 73.5 518.5 c 128,-1,24
 95 589 95 589 136 637 c 128,-1,25
 177 685 177 685 233.5 709 c 128,-1,26
 290 733 290 733 359 733 c 0,27,28
 429 733 429 733 485.5 709 c 128,-1,29
 542 685 542 685 582.5 637 c 128,-1,30
 623 589 623 589 644.5 518.5 c 128,-1,31
 666 448 666 448 666 355 c 0,32,33
 666 263 666 263 644.5 192.5 c 128,-1,34
 623 122 623 122 582.5 74 c 128,-1,35
 542 26 542 26 485.5 1.5 c 128,-1,36
 429 -23 429 -23 359 -23 c 0,17,18
359 61 m 0,37,38
 406 61 406 61 442.5 78 c 128,-1,39
 479 95 479 95 503.5 130.5 c 128,-1,40
 528 166 528 166 541 221.5 c 128,-1,41
 554 277 554 277 554 355 c 0,42,43
 555 432 555 432 542 488 c 128,-1,44
 529 544 529 544 504 579.5 c 128,-1,45
 479 615 479 615 442.5 632 c 128,-1,46
 406 649 406 649 359 649 c 0,47,48
 313 649 313 649 277.5 632 c 128,-1,49
 242 615 242 615 219 579.5 c 128,-1,50
 196 544 196 544 184.5 488 c 128,-1,51
 173 432 173 432 173 355 c 256,52,53
 173 278 173 278 184.5 222 c 128,-1,54
 196 166 196 166 219.5 130.5 c 128,-1,55
 243 95 243 95 278 78 c 128,-1,56
 313 61 313 61 359 61 c 0,37,38
EndSplineSet
EndChar

StartChar: R
Encoding: 82 82 149
Width: 682
GlyphClass: 2
Flags: W
AnchorPoint: "Anchor-1" 382 0 basechar 0
AnchorPoint: "Anchor-0" 382 741 basechar 0
LayerCount: 2
Fore
SplineSet
347 322 m 1,0,-1
 505 0 l 1,1,-1
 658 0 l 1,2,-1
 658 83 l 1,3,-1
 649 83 l 2,4,5
 630 83 630 83 614 88 c 128,-1,6
 598 93 598 93 584.5 106.5 c 128,-1,7
 571 120 571 120 557 145 c 2,8,-1
 441 371 l 1,9,-1
 347 322 l 1,0,-1
234 93 m 2,10,-1
 234 629 l 1,11,-1
 346 629 l 2,12,13
 389 629 389 629 417.5 615.5 c 128,-1,14
 446 602 446 602 459.5 575 c 128,-1,15
 473 548 473 548 473 509 c 256,16,17
 473 470 473 470 460.5 438.5 c 128,-1,18
 448 407 448 407 419 388.5 c 128,-1,19
 390 370 390 370 341 370 c 2,20,-1
 220 370 l 1,21,-1
 220 292 l 1,22,-1
 381 292 l 2,23,24
 386 293 386 293 389.5 294.5 c 128,-1,25
 393 296 393 296 398.5 300 c 128,-1,26
 404 304 404 304 411 309 c 0,27,28
 463 321 463 321 501.5 347.5 c 128,-1,29
 540 374 540 374 560.5 417 c 128,-1,30
 581 460 581 460 581 520 c 0,31,32
 581 583 581 583 554 625.5 c 128,-1,33
 527 668 527 668 476.5 689 c 128,-1,34
 426 710 426 710 354 710 c 2,35,-1
 51 710 l 1,36,-1
 51 627 l 1,37,-1
 60 627 l 2,38,39
 83 627 83 627 101.5 620 c 128,-1,40
 120 613 120 613 120 591 c 2,41,-1
 120 119 l 2,42,43
 120 97 120 97 101.5 90 c 128,-1,44
 83 83 83 83 60 83 c 2,45,-1
 51 83 l 1,46,-1
 51 0 l 1,47,-1
 326 0 l 1,48,-1
 326 83 l 1,49,-1
 310 83 l 2,50,51
 295 83 295 83 281.5 83.5 c 128,-1,52
 268 84 268 84 257 85.5 c 128,-1,53
 246 87 246 87 240 88.5 c 128,-1,54
 234 90 234 90 234 93 c 2,10,-1
EndSplineSet
EndChar

StartChar: Rcaron
Encoding: 344 344 152
Width: 682
GlyphClass: 1
Flags: W
LayerCount: 2
Fore
SplineSet
295 804 m 1,0,-1
 372 804 l 1,1,-1
 493 959 l 1,2,-1
 493 983 l 1,3,-1
 437 983 l 1,4,-1
 277 846 l 1,5,-1
 397 848 l 1,6,-1
 238 983 l 1,7,-1
 174 983 l 1,8,-1
 174 959 l 1,9,-1
 295 804 l 1,0,-1
347 322 m 1,10,-1
 505 0 l 1,11,-1
 658 0 l 1,12,-1
 658 83 l 1,13,-1
 649 83 l 2,14,15
 630 83 630 83 614 88 c 128,-1,16
 598 93 598 93 584.5 106.5 c 128,-1,17
 571 120 571 120 557 145 c 2,18,-1
 441 371 l 1,19,-1
 347 322 l 1,10,-1
234 93 m 2,20,-1
 234 629 l 1,21,-1
 346 629 l 2,22,23
 389 629 389 629 417.5 615 c 128,-1,24
 446 601 446 601 459.5 574.5 c 128,-1,25
 473 548 473 548 473 509 c 256,26,27
 473 470 473 470 460.5 438.5 c 128,-1,28
 448 407 448 407 419 388.5 c 128,-1,29
 390 370 390 370 341 370 c 2,30,-1
 220 370 l 1,31,-1
 220 292 l 1,32,-1
 381 292 l 2,33,34
 386 293 386 293 389.5 294.5 c 128,-1,35
 393 296 393 296 398.5 300 c 128,-1,36
 404 304 404 304 411 309 c 0,37,38
 463 321 463 321 501.5 347.5 c 128,-1,39
 540 374 540 374 560.5 417 c 128,-1,40
 581 460 581 460 581 520 c 0,41,42
 581 583 581 583 554 625.5 c 128,-1,43
 527 668 527 668 476.5 689 c 128,-1,44
 426 710 426 710 354 710 c 2,45,-1
 51 710 l 1,46,-1
 51 627 l 1,47,-1
 60 627 l 2,48,49
 83 627 83 627 101.5 620 c 128,-1,50
 120 613 120 613 120 591 c 2,51,-1
 120 119 l 2,52,53
 120 97 120 97 101.5 90 c 128,-1,54
 83 83 83 83 60 83 c 2,55,-1
 51 83 l 1,56,-1
 51 0 l 1,57,-1
 326 0 l 1,58,-1
 326 83 l 1,59,-1
 310 83 l 2,60,61
 295 83 295 83 281.5 83.5 c 128,-1,62
 268 84 268 84 257 85.5 c 128,-1,63
 246 87 246 87 240 88.5 c 128,-1,64
 234 90 234 90 234 93 c 2,20,-1
EndSplineSet
EndChar

StartChar: Rdblgrave
Encoding: 528 528 153
Width: 682
GlyphClass: 1
Flags: W
LayerCount: 2
Fore
SplineSet
429 927 m 2,0,-1
 469 829 l 1,1,-1
 469 792 l 1,2,-1
 424 792 l 1,3,-1
 356 855 l 2,4,5
 336 874 336 874 324.5 892.5 c 128,-1,6
 313 911 313 911 313 933 c 0,7,8
 313 952 313 952 326.5 965.5 c 128,-1,9
 340 979 340 979 364 979 c 0,10,11
 382 979 382 979 394 971.5 c 128,-1,12
 406 964 406 964 415 952.5 c 128,-1,13
 424 941 424 941 429 927 c 2,0,-1
246 927 m 2,14,-1
 283 829 l 1,15,-1
 283 792 l 1,16,-1
 239 792 l 1,17,-1
 171 855 l 2,18,19
 151 874 151 874 139.5 892.5 c 128,-1,20
 128 911 128 911 128 933 c 0,21,22
 128 952 128 952 141.5 965.5 c 128,-1,23
 155 979 155 979 179 979 c 0,24,25
 197 979 197 979 210 971.5 c 128,-1,26
 223 964 223 964 232 952.5 c 128,-1,27
 241 941 241 941 246 927 c 2,14,-1
347 322 m 1,28,-1
 505 0 l 1,29,-1
 658 0 l 1,30,-1
 658 83 l 1,31,-1
 649 83 l 2,32,33
 630 83 630 83 614 88 c 128,-1,34
 598 93 598 93 584.5 106.5 c 128,-1,35
 571 120 571 120 557 145 c 2,36,-1
 441 371 l 1,37,-1
 347 322 l 1,28,-1
234 93 m 2,38,-1
 234 629 l 1,39,-1
 346 629 l 2,40,41
 389 629 389 629 417.5 615 c 128,-1,42
 446 601 446 601 459.5 574.5 c 128,-1,43
 473 548 473 548 473 509 c 0,44,45
 473 469 473 469 460.5 438 c 128,-1,46
 448 407 448 407 419 388.5 c 128,-1,47
 390 370 390 370 341 370 c 2,48,-1
 220 370 l 1,49,-1
 220 292 l 1,50,-1
 381 292 l 2,51,52
 386 293 386 293 389.5 294.5 c 128,-1,53
 393 296 393 296 398.5 300 c 128,-1,54
 404 304 404 304 411 309 c 0,55,56
 463 321 463 321 501.5 347.5 c 128,-1,57
 540 374 540 374 560.5 417 c 128,-1,58
 581 460 581 460 581 520 c 0,59,60
 581 583 581 583 554 625.5 c 128,-1,61
 527 668 527 668 476.5 689 c 128,-1,62
 426 710 426 710 354 710 c 2,63,-1
 51 710 l 1,64,-1
 51 627 l 1,65,-1
 60 627 l 2,66,67
 83 627 83 627 101.5 620 c 128,-1,68
 120 613 120 613 120 591 c 2,69,-1
 120 119 l 2,70,71
 120 97 120 97 101.5 90 c 128,-1,72
 83 83 83 83 60 83 c 2,73,-1
 51 83 l 1,74,-1
 51 0 l 1,75,-1
 326 0 l 1,76,-1
 326 83 l 1,77,-1
 310 83 l 2,78,79
 295 83 295 83 281 83.5 c 128,-1,80
 267 84 267 84 256.5 85.5 c 128,-1,81
 246 87 246 87 240 88.5 c 128,-1,82
 234 90 234 90 234 93 c 2,38,-1
EndSplineSet
EndChar

StartChar: Rinvertedbreve
Encoding: 530 530 154
Width: 682
GlyphClass: 1
Flags: W
LayerCount: 2
Fore
SplineSet
335 934 m 0,0,1
 279 934 279 934 242.5 917.5 c 128,-1,2
 206 901 206 901 186.5 864 c 128,-1,3
 167 827 167 827 167 765 c 1,4,-1
 245 765 l 1,5,6
 247 800 247 800 255 818.5 c 128,-1,7
 263 837 263 837 282 844.5 c 128,-1,8
 301 852 301 852 334 852 c 0,9,10
 364 852 364 852 382.5 844.5 c 128,-1,11
 401 837 401 837 410 818.5 c 128,-1,12
 419 800 419 800 420 765 c 1,13,-1
 503 765 l 1,14,15
 502 827 502 827 482 864 c 128,-1,16
 462 901 462 901 424.5 917.5 c 128,-1,17
 387 934 387 934 335 934 c 0,0,1
347 322 m 1,18,-1
 505 0 l 1,19,-1
 658 0 l 1,20,-1
 658 83 l 1,21,-1
 649 83 l 2,22,23
 630 83 630 83 614 88 c 128,-1,24
 598 93 598 93 584.5 106.5 c 128,-1,25
 571 120 571 120 557 145 c 2,26,-1
 441 371 l 1,27,-1
 347 322 l 1,18,-1
234 93 m 2,28,-1
 234 629 l 1,29,-1
 346 629 l 2,30,31
 389 629 389 629 417.5 615 c 128,-1,32
 446 601 446 601 459.5 574.5 c 128,-1,33
 473 548 473 548 473 509 c 256,34,35
 473 470 473 470 460.5 438.5 c 128,-1,36
 448 407 448 407 419 388.5 c 128,-1,37
 390 370 390 370 341 370 c 2,38,-1
 220 370 l 1,39,-1
 220 292 l 1,40,-1
 381 292 l 2,41,42
 386 293 386 293 389.5 294.5 c 128,-1,43
 393 296 393 296 398.5 300 c 128,-1,44
 404 304 404 304 411 309 c 0,45,46
 463 321 463 321 501.5 347.5 c 128,-1,47
 540 374 540 374 560.5 417 c 128,-1,48
 581 460 581 460 581 520 c 0,49,50
 581 583 581 583 554 625.5 c 128,-1,51
 527 668 527 668 476.5 689 c 128,-1,52
 426 710 426 710 354 710 c 2,53,-1
 51 710 l 1,54,-1
 51 627 l 1,55,-1
 60 627 l 2,56,57
 83 627 83 627 101.5 620 c 128,-1,58
 120 613 120 613 120 591 c 2,59,-1
 120 119 l 2,60,61
 120 97 120 97 101.5 90 c 128,-1,62
 83 83 83 83 60 83 c 2,63,-1
 51 83 l 1,64,-1
 51 0 l 1,65,-1
 326 0 l 1,66,-1
 326 83 l 1,67,-1
 310 83 l 2,68,69
 295 83 295 83 281.5 83.5 c 128,-1,70
 268 84 268 84 257 85.5 c 128,-1,71
 246 87 246 87 240 88.5 c 128,-1,72
 234 90 234 90 234 93 c 2,28,-1
EndSplineSet
EndChar

StartChar: S
Encoding: 83 83 157
Width: 588
GlyphClass: 2
Flags: W
AnchorPoint: "Anchor-1" 323 0 basechar 0
AnchorPoint: "Anchor-0" 323 741 basechar 0
LayerCount: 2
Fore
SplineSet
320 56 m 0,0,1
 362 56 362 56 387.5 67 c 128,-1,2
 413 78 413 78 425.5 103 c 128,-1,3
 438 128 438 128 438 171 c 0,4,5
 438 208 438 208 425 232 c 128,-1,6
 412 256 412 256 388.5 271 c 128,-1,7
 365 286 365 286 334.5 296.5 c 128,-1,8
 304 307 304 307 269 316 c 0,9,10
 227 328 227 328 191 342 c 128,-1,11
 155 356 155 356 127.5 379.5 c 128,-1,12
 100 403 100 403 84.5 442 c 128,-1,13
 69 481 69 481 69 542 c 0,14,15
 69 604 69 604 92.5 646.5 c 128,-1,16
 116 689 116 689 161 711 c 128,-1,17
 206 733 206 733 272 733 c 0,18,19
 329 733 329 733 367.5 713 c 128,-1,20
 406 693 406 693 426.5 649.5 c 128,-1,21
 447 606 447 606 448 537 c 1,22,-1
 423 586 l 1,23,-1
 438 719 l 1,24,-1
 511 719 l 1,25,-1
 511 508 l 1,26,-1
 432 508 l 1,27,28
 421 554 421 554 402 586.5 c 128,-1,29
 383 619 383 619 353 637 c 128,-1,30
 323 655 323 655 276 655 c 0,31,32
 242 655 242 655 218.5 643.5 c 128,-1,33
 195 632 195 632 183.5 609 c 128,-1,34
 172 586 172 586 172 550 c 0,35,36
 172 515 172 515 182.5 494 c 128,-1,37
 193 473 193 473 213.5 460 c 128,-1,38
 234 447 234 447 263.5 437.5 c 128,-1,39
 293 428 293 428 331 416 c 0,40,41
 370 405 370 405 408 390.5 c 128,-1,42
 446 376 446 376 477 352.5 c 128,-1,43
 508 329 508 329 526 289.5 c 128,-1,44
 544 250 544 250 544 189 c 0,45,46
 544 115 544 115 516.5 68 c 128,-1,47
 489 21 489 21 440 -1 c 128,-1,48
 391 -23 391 -23 325 -23 c 0,49,50
 262 -23 262 -23 216.5 -1 c 128,-1,51
 171 21 171 21 144.5 70 c 128,-1,52
 118 119 118 119 112 201 c 1,53,-1
 141 157 l 1,54,-1
 126 -6 l 1,55,-1
 54 -6 l 1,56,-1
 54 231 l 1,57,-1
 137 231 l 1,58,59
 150 172 150 172 172.5 133.5 c 128,-1,60
 195 95 195 95 231 75.5 c 128,-1,61
 267 56 267 56 320 56 c 0,0,1
EndSplineSet
EndChar

StartChar: Scaron
Encoding: 352 352 161
Width: 588
GlyphClass: 1
Flags: W
LayerCount: 2
Fore
SplineSet
260 804 m 1,0,-1
 337 804 l 1,1,-1
 458 959 l 1,2,-1
 458 983 l 1,3,-1
 402 983 l 1,4,-1
 242 846 l 1,5,-1
 362 848 l 1,6,-1
 203 983 l 1,7,-1
 139 983 l 1,8,-1
 139 959 l 1,9,-1
 260 804 l 1,0,-1
320 56 m 0,10,11
 362 56 362 56 387.5 67 c 128,-1,12
 413 78 413 78 425.5 103 c 128,-1,13
 438 128 438 128 438 171 c 0,14,15
 438 208 438 208 425 232 c 128,-1,16
 412 256 412 256 388.5 271 c 128,-1,17
 365 286 365 286 334.5 296.5 c 128,-1,18
 304 307 304 307 269 316 c 0,19,20
 227 328 227 328 191 342 c 128,-1,21
 155 356 155 356 127.5 379.5 c 128,-1,22
 100 403 100 403 84.5 442 c 128,-1,23
 69 481 69 481 69 542 c 0,24,25
 69 604 69 604 92.5 646.5 c 128,-1,26
 116 689 116 689 161 711 c 128,-1,27
 206 733 206 733 272 733 c 0,28,29
 329 733 329 733 367.5 713 c 128,-1,30
 406 693 406 693 426.5 649.5 c 128,-1,31
 447 606 447 606 448 537 c 1,32,-1
 423 586 l 1,33,-1
 438 719 l 1,34,-1
 511 719 l 1,35,-1
 511 508 l 1,36,-1
 432 508 l 1,37,38
 421 554 421 554 402 586.5 c 128,-1,39
 383 619 383 619 353 637 c 128,-1,40
 323 655 323 655 276 655 c 0,41,42
 242 655 242 655 218.5 643.5 c 128,-1,43
 195 632 195 632 183.5 609 c 128,-1,44
 172 586 172 586 172 550 c 0,45,46
 172 515 172 515 182.5 494 c 128,-1,47
 193 473 193 473 213.5 460 c 128,-1,48
 234 447 234 447 263.5 437.5 c 128,-1,49
 293 428 293 428 331 416 c 0,50,51
 370 405 370 405 408 390.5 c 128,-1,52
 446 376 446 376 477 352.5 c 128,-1,53
 508 329 508 329 526 289.5 c 128,-1,54
 544 250 544 250 544 189 c 0,55,56
 544 115 544 115 516.5 68 c 128,-1,57
 489 21 489 21 440 -1 c 128,-1,58
 391 -23 391 -23 325 -23 c 0,59,60
 262 -23 262 -23 216.5 -1 c 128,-1,61
 171 21 171 21 144.5 70 c 128,-1,62
 118 119 118 119 112 201 c 1,63,-1
 141 157 l 1,64,-1
 126 -6 l 1,65,-1
 54 -6 l 1,66,-1
 54 231 l 1,67,-1
 137 231 l 1,68,69
 150 172 150 172 172.5 133.5 c 128,-1,70
 195 95 195 95 231 75.5 c 128,-1,71
 267 56 267 56 320 56 c 0,10,11
EndSplineSet
EndChar

StartChar: Scarondotaccent
Encoding: 7782 7782 166
Width: 588
GlyphClass: 1
Flags: W
LayerCount: 2
Fore
SplineSet
259 804 m 1,0,-1
 336 804 l 1,1,-1
 457 959 l 1,2,-1
 457 983 l 1,3,-1
 401 983 l 1,4,-1
 240 846 l 1,5,-1
 361 848 l 1,6,-1
 202 983 l 1,7,-1
 137 983 l 1,8,-1
 137 959 l 1,9,-1
 259 804 l 1,0,-1
320 56 m 0,10,11
 362 56 362 56 387.5 67 c 128,-1,12
 413 78 413 78 425.5 103 c 128,-1,13
 438 128 438 128 438 171 c 0,14,15
 438 208 438 208 425 232 c 128,-1,16
 412 256 412 256 388.5 271 c 128,-1,17
 365 286 365 286 334.5 296.5 c 128,-1,18
 304 307 304 307 269 316 c 0,19,20
 227 328 227 328 191 342 c 128,-1,21
 155 356 155 356 127.5 379.5 c 128,-1,22
 100 403 100 403 84.5 442 c 128,-1,23
 69 481 69 481 69 542 c 0,24,25
 69 604 69 604 92.5 646.5 c 128,-1,26
 116 689 116 689 161 711 c 128,-1,27
 206 733 206 733 272 733 c 0,28,29
 329 733 329 733 367.5 713 c 128,-1,30
 406 693 406 693 426.5 649.5 c 128,-1,31
 447 606 447 606 448 537 c 1,32,-1
 423 586 l 1,33,-1
 438 719 l 1,34,-1
 511 719 l 1,35,-1
 511 508 l 1,36,-1
 432 508 l 1,37,38
 421 554 421 554 402 586.5 c 128,-1,39
 383 619 383 619 353 637 c 128,-1,40
 323 655 323 655 276 655 c 0,41,42
 242 655 242 655 218.5 643.5 c 128,-1,43
 195 632 195 632 183.5 609 c 128,-1,44
 172 586 172 586 172 550 c 0,45,46
 172 515 172 515 182.5 494 c 128,-1,47
 193 473 193 473 213.5 460 c 128,-1,48
 234 447 234 447 263.5 437.5 c 128,-1,49
 293 428 293 428 331 416 c 0,50,51
 370 405 370 405 408 390.5 c 128,-1,52
 446 376 446 376 477 352.5 c 128,-1,53
 508 329 508 329 526 289.5 c 128,-1,54
 544 250 544 250 544 189 c 0,55,56
 544 115 544 115 516.5 68 c 128,-1,57
 489 21 489 21 440 -1 c 128,-1,58
 391 -23 391 -23 325 -23 c 0,59,60
 262 -23 262 -23 216.5 -1 c 128,-1,61
 171 21 171 21 144.5 70 c 128,-1,62
 118 119 118 119 112 201 c 1,63,-1
 141 157 l 1,64,-1
 126 -6 l 1,65,-1
 54 -6 l 1,66,-1
 54 231 l 1,67,-1
 137 231 l 1,68,69
 150 172 150 172 172.5 133.5 c 128,-1,70
 195 95 195 95 231 75.5 c 128,-1,71
 267 56 267 56 320 56 c 0,10,11
297 1008 m 256,72,73
 259 1008 259 1008 238.5 1027.5 c 128,-1,74
 218 1047 218 1047 218 1085 c 0,75,76
 218 1120 218 1120 238.5 1140 c 128,-1,77
 259 1160 259 1160 297 1160 c 256,78,79
 335 1160 335 1160 355.5 1140 c 128,-1,80
 376 1120 376 1120 376 1085 c 0,81,82
 376 1047 376 1047 355.5 1027.5 c 128,-1,83
 335 1008 335 1008 297 1008 c 256,72,73
EndSplineSet
EndChar

StartChar: T
Encoding: 84 84 168
Width: 655
GlyphClass: 2
Flags: W
AnchorPoint: "Anchor-1" 332 0 basechar 0
AnchorPoint: "Anchor-0" 332 741 basechar 0
LayerCount: 2
Fore
SplineSet
270 119 m 2,0,-1
 270 628 l 1,1,-1
 218 628 l 2,2,3
 183 628 183 628 166 622 c 128,-1,4
 149 616 149 616 143.5 603 c 128,-1,5
 138 590 138 590 135 569 c 2,6,-1
 125 470 l 1,7,-1
 45 470 l 1,8,-1
 45 710 l 1,9,-1
 610 710 l 1,10,-1
 610 470 l 1,11,-1
 530 470 l 1,12,-1
 520 569 l 2,13,14
 518 590 518 590 512 603 c 128,-1,15
 506 616 506 616 489 622 c 128,-1,16
 472 628 472 628 436 628 c 2,17,-1
 384 628 l 1,18,-1
 384 119 l 2,19,20
 384 97 384 97 405 90 c 128,-1,21
 426 83 426 83 453 83 c 2,22,-1
 470 83 l 1,23,-1
 470 0 l 1,24,-1
 185 0 l 1,25,-1
 185 83 l 1,26,-1
 202 83 l 2,27,28
 229 83 229 83 249.5 90 c 128,-1,29
 270 97 270 97 270 119 c 2,0,-1
EndSplineSet
EndChar

StartChar: Tcaron
Encoding: 356 356 170
Width: 655
GlyphClass: 1
Flags: W
LayerCount: 2
Fore
SplineSet
283 804 m 1,0,-1
 360 804 l 1,1,-1
 481 959 l 1,2,-1
 481 983 l 1,3,-1
 425 983 l 1,4,-1
 264 846 l 1,5,-1
 385 848 l 1,6,-1
 226 983 l 1,7,-1
 162 983 l 1,8,-1
 162 959 l 1,9,-1
 283 804 l 1,0,-1
270 119 m 2,10,-1
 270 628 l 1,11,-1
 218 628 l 2,12,13
 183 628 183 628 166 622 c 128,-1,14
 149 616 149 616 143.5 603 c 128,-1,15
 138 590 138 590 135 569 c 2,16,-1
 125 470 l 1,17,-1
 45 470 l 1,18,-1
 45 710 l 1,19,-1
 610 710 l 1,20,-1
 610 470 l 1,21,-1
 530 470 l 1,22,-1
 520 569 l 2,23,24
 518 590 518 590 512 603 c 128,-1,25
 506 616 506 616 488.5 622 c 128,-1,26
 471 628 471 628 436 628 c 2,27,-1
 384 628 l 1,28,-1
 384 119 l 2,29,30
 384 97 384 97 405 90 c 128,-1,31
 426 83 426 83 453 83 c 2,32,-1
 470 83 l 1,33,-1
 470 0 l 1,34,-1
 185 0 l 1,35,-1
 185 83 l 1,36,-1
 202 83 l 2,37,38
 228 83 228 83 249 90 c 128,-1,39
 270 97 270 97 270 119 c 2,10,-1
EndSplineSet
EndChar

StartChar: U
Encoding: 85 85 174
Width: 720
GlyphClass: 2
Flags: W
AnchorPoint: "Anchor-2" 413 0 basechar 0
AnchorPoint: "Anchor-1" 364 0 basechar 0
AnchorPoint: "Anchor-0" 364 741 basechar 0
LayerCount: 2
Fore
SplineSet
225 245 m 2,0,1
 225 195 225 195 236 160 c 128,-1,2
 247 125 247 125 267.5 104 c 128,-1,3
 288 83 288 83 316 73.5 c 128,-1,4
 344 64 344 64 376 64 c 0,5,6
 410 64 410 64 437 73.5 c 128,-1,7
 464 83 464 83 483.5 104 c 128,-1,8
 503 125 503 125 513 160 c 128,-1,9
 523 195 523 195 523 245 c 2,10,-1
 523 608 l 2,11,12
 523 613 523 613 516.5 616.5 c 128,-1,13
 510 620 510 620 501 622 c 128,-1,14
 492 624 492 624 481.5 625.5 c 128,-1,15
 471 627 471 627 462 627 c 2,16,-1
 454 627 l 1,17,-1
 454 710 l 1,18,-1
 678 710 l 1,19,-1
 678 627 l 1,20,-1
 669 627 l 2,21,22
 655 627 655 627 642 623 c 128,-1,23
 629 619 629 619 621 609.5 c 128,-1,24
 613 600 613 600 613 583 c 2,25,-1
 613 225 l 2,26,27
 613 158 613 158 593.5 110.5 c 128,-1,28
 574 63 574 63 539 33.5 c 128,-1,29
 504 4 504 4 459.5 -10 c 128,-1,30
 415 -24 415 -24 367 -24 c 0,31,32
 312 -24 312 -24 265.5 -10 c 128,-1,33
 219 4 219 4 184.5 34 c 128,-1,34
 150 64 150 64 130.5 111.5 c 128,-1,35
 111 159 111 159 111 226 c 2,36,-1
 111 591 l 2,37,38
 111 613 111 613 92.5 620 c 128,-1,39
 74 627 74 627 51 627 c 2,40,-1
 41 627 l 1,41,-1
 41 710 l 1,42,-1
 303 710 l 1,43,-1
 303 627 l 1,44,-1
 295 627 l 2,45,46
 283 627 283 627 270.5 626.5 c 128,-1,47
 258 626 258 626 247.5 624.5 c 128,-1,48
 237 623 237 623 231 621.5 c 128,-1,49
 225 620 225 620 225 617 c 2,50,-1
 225 245 l 2,0,1
EndSplineSet
EndChar

StartChar: Uogonek
Encoding: 370 370 184
Width: 720
GlyphClass: 1
Flags: W
LayerCount: 2
Fore
SplineSet
471 41 m 1,0,-1
 469 -3 l 1,1,2
 446 -14 446 -14 420.5 -19 c 128,-1,3
 395 -24 395 -24 367 -24 c 0,4,5
 311 -24 311 -24 264 -10 c 128,-1,6
 217 4 217 4 182 34 c 128,-1,7
 147 64 147 64 129 111.5 c 128,-1,8
 111 159 111 159 111 226 c 2,9,-1
 111 591 l 2,10,11
 111 613 111 613 96 620 c 128,-1,12
 81 627 81 627 51 627 c 2,13,-1
 41 627 l 1,14,-1
 41 710 l 1,15,-1
 303 710 l 1,16,-1
 303 628 l 1,17,-1
 295 628 l 2,18,19
 283 628 283 628 270.5 627 c 128,-1,20
 258 626 258 626 247.5 624.5 c 128,-1,21
 237 623 237 623 231 621.5 c 128,-1,22
 225 620 225 620 225 618 c 2,23,-1
 225 231 l 2,24,25
 225 184 225 184 236 152.5 c 128,-1,26
 247 121 247 121 267.5 101.5 c 128,-1,27
 288 82 288 82 316.5 74 c 128,-1,28
 345 66 345 66 380 66 c 0,29,30
 413 66 413 66 440 74 c 128,-1,31
 467 82 467 82 485.5 101 c 128,-1,32
 504 120 504 120 514 152 c 128,-1,33
 524 184 524 184 524 231 c 2,34,-1
 524 608 l 2,35,36
 524 613 524 613 519 616.5 c 128,-1,37
 514 620 514 620 505.5 622 c 128,-1,38
 497 624 497 624 485.5 625.5 c 128,-1,39
 474 627 474 627 462 627 c 2,40,-1
 454 627 l 1,41,-1
 454 710 l 1,42,-1
 678 710 l 1,43,-1
 678 627 l 1,44,-1
 669 627 l 2,45,46
 650 627 650 627 637 623 c 128,-1,47
 624 619 624 619 618 609.5 c 128,-1,48
 612 600 612 600 612 583 c 2,49,-1
 612 225 l 2,50,51
 612 183 612 183 602.5 148 c 128,-1,52
 593 113 593 113 578 85.5 c 128,-1,53
 563 58 563 58 544 38 c 0,54,55
 524 14 524 14 498 -7 c 128,-1,56
 472 -28 472 -28 448.5 -49.5 c 128,-1,57
 425 -71 425 -71 409.5 -95 c 128,-1,58
 394 -119 394 -119 394 -147 c 0,59,60
 394 -158 394 -158 401.5 -169 c 128,-1,61
 409 -180 409 -180 430 -180 c 0,62,63
 456 -180 456 -180 472 -167 c 128,-1,64
 488 -154 488 -154 499 -138 c 1,65,-1
 544 -182 l 1,66,67
 521 -212 521 -212 488.5 -232 c 128,-1,68
 456 -252 456 -252 403 -252 c 0,69,70
 367 -252 367 -252 338.5 -242.5 c 128,-1,71
 310 -233 310 -233 293.5 -212.5 c 128,-1,72
 277 -192 277 -192 277 -160 c 0,73,74
 277 -136 277 -136 286 -116 c 128,-1,75
 295 -96 295 -96 316.5 -75 c 128,-1,76
 338 -54 338 -54 375.5 -26 c 128,-1,77
 413 2 413 2 471 41 c 1,0,-1
EndSplineSet
EndChar

StartChar: Uhorn
Encoding: 431 431 185
Width: 827
GlyphClass: 2
Flags: W
AnchorPoint: "Anchor-1" 417 -35 basechar 0
AnchorPoint: "Anchor-0" 417 663 basechar 0
LayerCount: 2
Fore
SplineSet
111 226 m 2,0,-1
 111 591 l 2,1,2
 111 613 111 613 96 620 c 128,-1,3
 81 627 81 627 51 627 c 2,4,-1
 41 627 l 1,5,-1
 41 710 l 1,6,-1
 303 710 l 1,7,-1
 303 628 l 1,8,-1
 295 628 l 2,9,10
 283 628 283 628 270.5 627 c 128,-1,11
 258 626 258 626 247.5 624.5 c 128,-1,12
 237 623 237 623 231 621.5 c 128,-1,13
 225 620 225 620 225 618 c 2,14,-1
 225 232 l 2,15,16
 225 184 225 184 236 152 c 128,-1,17
 247 120 247 120 267.5 101 c 128,-1,18
 288 82 288 82 316.5 73.5 c 128,-1,19
 345 65 345 65 380 65 c 0,20,21
 422 65 422 65 454.5 80.5 c 128,-1,22
 487 96 487 96 505.5 132.5 c 128,-1,23
 524 169 524 169 524 232 c 2,24,-1
 524 608 l 2,25,26
 524 613 524 613 519 616.5 c 128,-1,27
 514 620 514 620 505.5 622 c 128,-1,28
 497 624 497 624 485.5 625.5 c 128,-1,29
 474 627 474 627 462 627 c 2,30,-1
 454 627 l 1,31,-1
 454 710 l 1,32,-1
 646 710 l 2,33,34
 676 710 676 710 697 722.5 c 128,-1,35
 718 735 718 735 730.5 759 c 128,-1,36
 743 783 743 783 749.5 817.5 c 128,-1,37
 756 852 756 852 759 898 c 1,38,-1
 860 898 l 1,39,40
 858 844 858 844 851.5 802 c 128,-1,41
 845 760 845 760 831 729.5 c 128,-1,42
 817 699 817 699 795 678.5 c 128,-1,43
 773 658 773 658 740.5 646 c 128,-1,44
 708 634 708 634 662 629 c 0,45,46
 646 628 646 628 634.5 624 c 128,-1,47
 623 620 623 620 617.5 610.5 c 128,-1,48
 612 601 612 601 612 585 c 2,49,-1
 612 225 l 2,50,51
 612 158 612 158 593 110.5 c 128,-1,52
 574 63 574 63 540 33.5 c 128,-1,53
 506 4 506 4 461.5 -10 c 128,-1,54
 417 -24 417 -24 366 -24 c 0,55,56
 311 -24 311 -24 264 -10 c 128,-1,57
 217 4 217 4 182 34 c 128,-1,58
 147 64 147 64 129 111.5 c 128,-1,59
 111 159 111 159 111 226 c 2,0,-1
EndSplineSet
EndChar

StartChar: Ucaron
Encoding: 467 467 186
Width: 720
GlyphClass: 1
Flags: W
LayerCount: 2
Fore
SplineSet
333 804 m 1,0,-1
 410 804 l 1,1,-1
 531 959 l 1,2,-1
 531 983 l 1,3,-1
 475 983 l 1,4,-1
 314 846 l 1,5,-1
 435 848 l 1,6,-1
 276 983 l 1,7,-1
 211 983 l 1,8,-1
 211 959 l 1,9,-1
 333 804 l 1,0,-1
225 245 m 2,10,11
 225 195 225 195 236 160 c 128,-1,12
 247 125 247 125 267.5 104 c 128,-1,13
 288 83 288 83 316 73.5 c 128,-1,14
 344 64 344 64 376 64 c 0,15,16
 410 64 410 64 437 73.5 c 128,-1,17
 464 83 464 83 483.5 104 c 128,-1,18
 503 125 503 125 513 160 c 128,-1,19
 523 195 523 195 523 245 c 2,20,-1
 523 608 l 2,21,22
 523 613 523 613 517 616.5 c 128,-1,23
 511 620 511 620 501.5 622 c 128,-1,24
 492 624 492 624 481.5 625.5 c 128,-1,25
 471 627 471 627 462 627 c 2,26,-1
 454 627 l 1,27,-1
 454 710 l 1,28,-1
 678 710 l 1,29,-1
 678 627 l 1,30,-1
 669 627 l 2,31,32
 655 627 655 627 642 623 c 128,-1,33
 629 619 629 619 621 609.5 c 128,-1,34
 613 600 613 600 613 583 c 2,35,-1
 613 225 l 2,36,37
 613 158 613 158 593 110.5 c 128,-1,38
 573 63 573 63 538.5 33.5 c 128,-1,39
 504 4 504 4 459.5 -10 c 128,-1,40
 415 -24 415 -24 366 -24 c 0,41,42
 312 -24 312 -24 265.5 -10 c 128,-1,43
 219 4 219 4 184.5 34 c 128,-1,44
 150 64 150 64 130.5 111.5 c 128,-1,45
 111 159 111 159 111 226 c 2,46,-1
 111 591 l 2,47,48
 111 613 111 613 92.5 620 c 128,-1,49
 74 627 74 627 51 627 c 2,50,-1
 41 627 l 1,51,-1
 41 710 l 1,52,-1
 303 710 l 1,53,-1
 303 627 l 1,54,-1
 295 627 l 2,55,56
 283 627 283 627 270.5 626.5 c 128,-1,57
 258 626 258 626 247.5 624.5 c 128,-1,58
 237 623 237 623 231 621.5 c 128,-1,59
 225 620 225 620 225 617 c 2,60,-1
 225 245 l 2,10,11
EndSplineSet
EndChar

StartChar: Udieresiscaron
Encoding: 473 473 187
Width: 722
GlyphClass: 1
Flags: W
LayerCount: 2
Fore
SplineSet
330 975 m 1,0,-1
 407 975 l 1,1,-1
 527 1130 l 1,2,-1
 527 1154 l 1,3,-1
 472 1154 l 1,4,-1
 311 1017 l 1,5,-1
 431 1019 l 1,6,-1
 272 1154 l 1,7,-1
 208 1154 l 1,8,-1
 208 1130 l 1,9,-1
 330 975 l 1,0,-1
225 245 m 2,10,11
 225 195 225 195 236 160 c 128,-1,12
 247 125 247 125 267.5 104 c 128,-1,13
 288 83 288 83 316 73.5 c 128,-1,14
 344 64 344 64 376 64 c 0,15,16
 410 64 410 64 437 73.5 c 128,-1,17
 464 83 464 83 483.5 104 c 128,-1,18
 503 125 503 125 513 160 c 128,-1,19
 523 195 523 195 523 245 c 2,20,-1
 523 608 l 2,21,22
 523 613 523 613 517 616.5 c 128,-1,23
 511 620 511 620 501.5 622 c 128,-1,24
 492 624 492 624 481.5 625.5 c 128,-1,25
 471 627 471 627 462 627 c 2,26,-1
 454 627 l 1,27,-1
 454 710 l 1,28,-1
 678 710 l 1,29,-1
 678 627 l 1,30,-1
 669 627 l 2,31,32
 655 627 655 627 642 623 c 128,-1,33
 629 619 629 619 621 609.5 c 128,-1,34
 613 600 613 600 613 583 c 2,35,-1
 613 225 l 2,36,37
 613 158 613 158 593 110.5 c 128,-1,38
 573 63 573 63 538.5 33.5 c 128,-1,39
 504 4 504 4 459.5 -10 c 128,-1,40
 415 -24 415 -24 366 -24 c 0,41,42
 312 -24 312 -24 265.5 -10 c 128,-1,43
 219 4 219 4 184.5 34 c 128,-1,44
 150 64 150 64 130.5 111.5 c 128,-1,45
 111 159 111 159 111 226 c 2,46,-1
 111 591 l 2,47,48
 111 613 111 613 92.5 620 c 128,-1,49
 74 627 74 627 51 627 c 2,50,-1
 41 627 l 1,51,-1
 41 710 l 1,52,-1
 303 710 l 1,53,-1
 303 627 l 1,54,-1
 295 627 l 2,55,56
 283 627 283 627 270.5 626.5 c 128,-1,57
 258 626 258 626 247.5 624.5 c 128,-1,58
 237 623 237 623 231 621.5 c 128,-1,59
 225 620 225 620 225 617 c 2,60,-1
 225 245 l 2,10,11
323 870 m 0,61,62
 323 831 323 831 303 814.5 c 128,-1,63
 283 798 283 798 249 798 c 0,64,65
 214 798 214 798 194 814.5 c 128,-1,66
 174 831 174 831 174 870 c 0,67,68
 174 907 174 907 194 924 c 128,-1,69
 214 941 214 941 249 941 c 0,70,71
 283 941 283 941 303 924 c 128,-1,72
 323 907 323 907 323 870 c 0,61,62
560 870 m 0,73,74
 560 831 560 831 539.5 814.5 c 128,-1,75
 519 798 519 798 485 798 c 0,76,77
 452 798 452 798 431.5 814.5 c 128,-1,78
 411 831 411 831 411 870 c 0,79,80
 411 907 411 907 431.5 924 c 128,-1,81
 452 941 452 941 485 941 c 0,82,83
 519 941 519 941 539.5 924 c 128,-1,84
 560 907 560 907 560 870 c 0,73,74
EndSplineSet
EndChar

StartChar: Udblgrave
Encoding: 532 532 188
Width: 720
GlyphClass: 1
Flags: W
LayerCount: 2
Fore
SplineSet
453 927 m 2,0,-1
 493 828 l 1,1,-1
 493 792 l 1,2,-1
 448 792 l 1,3,-1
 380 855 l 2,4,5
 360 874 360 874 348.5 892.5 c 128,-1,6
 337 911 337 911 337 933 c 0,7,8
 337 952 337 952 350.5 965.5 c 128,-1,9
 364 979 364 979 388 979 c 0,10,11
 405 979 405 979 417.5 971.5 c 128,-1,12
 430 964 430 964 439 952.5 c 128,-1,13
 448 941 448 941 453 927 c 2,0,-1
270 927 m 2,14,-1
 307 828 l 1,15,-1
 307 792 l 1,16,-1
 263 792 l 1,17,-1
 195 855 l 2,18,19
 175 874 175 874 163 892.5 c 128,-1,20
 151 911 151 911 151 933 c 0,21,22
 151 952 151 952 165.5 965.5 c 128,-1,23
 180 979 180 979 203 979 c 0,24,25
 220 979 220 979 233.5 971.5 c 128,-1,26
 247 964 247 964 256 952.5 c 128,-1,27
 265 941 265 941 270 927 c 2,14,-1
225 245 m 2,28,29
 225 195 225 195 236 160 c 128,-1,30
 247 125 247 125 267.5 104 c 128,-1,31
 288 83 288 83 316 73.5 c 128,-1,32
 344 64 344 64 376 64 c 0,33,34
 410 64 410 64 437 73.5 c 128,-1,35
 464 83 464 83 483.5 104 c 128,-1,36
 503 125 503 125 513 160 c 128,-1,37
 523 195 523 195 523 245 c 2,38,-1
 523 608 l 2,39,40
 523 613 523 613 517 616.5 c 128,-1,41
 511 620 511 620 501.5 622 c 128,-1,42
 492 624 492 624 481.5 625.5 c 128,-1,43
 471 627 471 627 462 627 c 2,44,-1
 454 627 l 1,45,-1
 454 710 l 1,46,-1
 678 710 l 1,47,-1
 678 627 l 1,48,-1
 669 627 l 2,49,50
 655 627 655 627 642 623 c 128,-1,51
 629 619 629 619 621 609.5 c 128,-1,52
 613 600 613 600 613 583 c 2,53,-1
 613 225 l 2,54,55
 613 158 613 158 593 110.5 c 128,-1,56
 573 63 573 63 538.5 33.5 c 128,-1,57
 504 4 504 4 459.5 -10 c 128,-1,58
 415 -24 415 -24 366 -24 c 0,59,60
 312 -24 312 -24 265.5 -10 c 128,-1,61
 219 4 219 4 184.5 34 c 128,-1,62
 150 64 150 64 130.5 111.5 c 128,-1,63
 111 159 111 159 111 226 c 2,64,-1
 111 591 l 2,65,66
 111 613 111 613 92.5 620 c 128,-1,67
 74 627 74 627 51 627 c 2,68,-1
 41 627 l 1,69,-1
 41 710 l 1,70,-1
 303 710 l 1,71,-1
 303 627 l 1,72,-1
 295 627 l 2,73,74
 283 627 283 627 270.5 626.5 c 128,-1,75
 258 626 258 626 247.5 624.5 c 128,-1,76
 237 623 237 623 231 621.5 c 128,-1,77
 225 620 225 620 225 617 c 2,78,-1
 225 245 l 2,28,29
EndSplineSet
EndChar

StartChar: Uinvertedbreve
Encoding: 534 534 189
Width: 720
GlyphClass: 1
Flags: W
LayerCount: 2
Fore
SplineSet
364 934 m 0,0,1
 309 934 309 934 272.5 917.5 c 128,-1,2
 236 901 236 901 216.5 864 c 128,-1,3
 197 827 197 827 197 765 c 1,4,-1
 275 765 l 1,5,6
 277 800 277 800 285 818.5 c 128,-1,7
 293 837 293 837 312 844.5 c 128,-1,8
 331 852 331 852 364 852 c 0,9,10
 394 852 394 852 412.5 844.5 c 128,-1,11
 431 837 431 837 440 818.5 c 128,-1,12
 449 800 449 800 450 765 c 1,13,-1
 533 765 l 1,14,15
 532 827 532 827 512 864 c 128,-1,16
 492 901 492 901 454.5 917.5 c 128,-1,17
 417 934 417 934 364 934 c 0,0,1
225 245 m 2,18,19
 225 195 225 195 236 160 c 128,-1,20
 247 125 247 125 267.5 104 c 128,-1,21
 288 83 288 83 316 73.5 c 128,-1,22
 344 64 344 64 376 64 c 0,23,24
 410 64 410 64 437 73.5 c 128,-1,25
 464 83 464 83 483.5 104 c 128,-1,26
 503 125 503 125 513 160 c 128,-1,27
 523 195 523 195 523 245 c 2,28,-1
 523 608 l 2,29,30
 523 613 523 613 517 616.5 c 128,-1,31
 511 620 511 620 501.5 622 c 128,-1,32
 492 624 492 624 481.5 625.5 c 128,-1,33
 471 627 471 627 462 627 c 2,34,-1
 454 627 l 1,35,-1
 454 710 l 1,36,-1
 678 710 l 1,37,-1
 678 627 l 1,38,-1
 669 627 l 2,39,40
 655 627 655 627 642 623 c 128,-1,41
 629 619 629 619 621 609.5 c 128,-1,42
 613 600 613 600 613 583 c 2,43,-1
 613 225 l 2,44,45
 613 158 613 158 593 110.5 c 128,-1,46
 573 63 573 63 538.5 33.5 c 128,-1,47
 504 4 504 4 459.5 -10 c 128,-1,48
 415 -24 415 -24 366 -24 c 0,49,50
 312 -24 312 -24 265.5 -10 c 128,-1,51
 219 4 219 4 184.5 34 c 128,-1,52
 150 64 150 64 130.5 111.5 c 128,-1,53
 111 159 111 159 111 226 c 2,54,-1
 111 591 l 2,55,56
 111 613 111 613 92.5 620 c 128,-1,57
 74 627 74 627 51 627 c 2,58,-1
 41 627 l 1,59,-1
 41 710 l 1,60,-1
 303 710 l 1,61,-1
 303 627 l 1,62,-1
 295 627 l 2,63,64
 283 627 283 627 270.5 626.5 c 128,-1,65
 258 626 258 626 247.5 624.5 c 128,-1,66
 237 623 237 623 231 621.5 c 128,-1,67
 225 620 225 620 225 617 c 2,68,-1
 225 245 l 2,18,19
EndSplineSet
EndChar

StartChar: V
Encoding: 86 86 199
Width: 667
GlyphClass: 2
Flags: W
AnchorPoint: "Anchor-0" 360 741 basechar 0
LayerCount: 2
Fore
SplineSet
363 24 m 1,0,-1
 331 34 l 1,1,-1
 499 604 l 2,2,3
 499 611 499 611 491.5 616 c 128,-1,4
 484 621 484 621 469.5 624 c 128,-1,5
 455 627 455 627 437 627 c 2,6,-1
 427 627 l 1,7,-1
 427 710 l 1,8,-1
 649 710 l 1,9,-1
 649 627 l 1,10,-1
 644 627 l 2,11,12
 625 627 625 627 608.5 615 c 128,-1,13
 592 603 592 603 581 563 c 2,14,-1
 406 -11 l 1,15,-1
 264 -11 l 1,16,-1
 88 563 l 2,17,18
 76 603 76 603 59 615 c 128,-1,19
 42 627 42 627 23 627 c 2,20,-1
 18 627 l 1,21,-1
 18 710 l 1,22,-1
 271 710 l 1,23,-1
 271 627 l 1,24,-1
 260 627 l 2,25,26
 236 627 236 627 220 625.5 c 128,-1,27
 204 624 204 624 196 622 c 128,-1,28
 188 620 188 620 188 616 c 2,29,-1
 363 24 l 1,0,-1
EndSplineSet
EndChar

StartChar: W
Encoding: 87 87 200
Width: 930
GlyphClass: 2
Flags: W
AnchorPoint: "Anchor-0" 478 741 basechar 0
LayerCount: 2
Fore
SplineSet
19 710 m 1,0,-1
 259 710 l 1,1,-1
 259 627 l 1,2,-1
 245 627 l 2,3,4
 234 627 234 627 220 625.5 c 128,-1,5
 206 624 206 624 196 622 c 128,-1,6
 186 620 186 620 186 616 c 2,7,-1
 314 43 l 1,8,-1
 266 43 l 1,9,-1
 425 710 l 1,10,-1
 543 710 l 1,11,-1
 698 46 l 1,12,-1
 653 44 l 1,13,-1
 781 604 l 2,14,15
 781 611 781 611 773.5 616 c 128,-1,16
 766 621 766 621 754.5 624 c 128,-1,17
 743 627 743 627 732 627 c 2,18,-1
 720 627 l 1,19,-1
 720 710 l 1,20,-1
 913 710 l 1,21,-1
 913 627 l 1,22,-1
 906 627 l 2,23,24
 891 627 891 627 877.5 616 c 128,-1,25
 864 605 864 605 858 577 c 2,26,-1
 725 -4 l 1,27,-1
 605 -4 l 1,28,-1
 450 648 l 1,29,-1
 497 652 l 1,30,-1
 341 -4 l 1,31,-1
 220 -4 l 1,32,-1
 79 586 l 2,33,34
 73 614 73 614 59.5 620.5 c 128,-1,35
 46 627 46 627 25 627 c 2,36,-1
 19 627 l 1,37,-1
 19 710 l 1,0,-1
EndSplineSet
EndChar

StartChar: X
Encoding: 88 88 205
Width: 674
GlyphClass: 2
Flags: W
AnchorPoint: "Anchor-1" 355 0 basechar 0
AnchorPoint: "Anchor-0" 378 741 basechar 0
LayerCount: 2
Fore
SplineSet
35 627 m 1,0,-1
 35 710 l 1,1,-1
 296 710 l 1,2,-1
 296 627 l 1,3,-1
 282 627 l 2,4,5
 266 627 266 627 253 626 c 128,-1,6
 240 625 240 625 231.5 623 c 128,-1,7
 223 621 223 621 223 618 c 2,8,-1
 376 392 l 1,9,-1
 390 387 l 1,10,-1
 571 117 l 2,11,12
 586 95 586 95 601.5 89 c 128,-1,13
 617 83 617 83 633 83 c 2,14,-1
 650 83 l 1,15,-1
 650 0 l 1,16,-1
 384 0 l 1,17,-1
 384 83 l 1,18,-1
 398 83 l 2,19,20
 414 83 414 83 427.5 84 c 128,-1,21
 441 85 441 85 449 87.5 c 128,-1,22
 457 90 457 90 457 92 c 2,23,-1
 292 340 l 1,24,-1
 279 345 l 1,25,-1
 110 593 l 2,26,27
 95 616 95 616 79 621.5 c 128,-1,28
 63 627 63 627 47 627 c 2,29,-1
 35 627 l 1,0,-1
25 0 m 1,30,-1
 25 83 l 1,31,-1
 42 83 l 2,32,33
 55 83 55 83 68.5 92.5 c 128,-1,34
 82 102 82 102 99 128 c 2,35,-1
 267 381 l 1,36,-1
 339 340 l 1,37,-1
 181 100 l 2,38,39
 181 95 181 95 190 91.5 c 128,-1,40
 199 88 199 88 211 85.5 c 128,-1,41
 223 83 223 83 234 83 c 2,42,-1
 249 83 l 1,43,-1
 249 0 l 1,44,-1
 25 0 l 1,30,-1
401 349 m 1,45,-1
 332 394 l 1,46,-1
 481 610 l 2,47,48
 481 616 481 616 471.5 619.5 c 128,-1,49
 462 623 462 623 449.5 625 c 128,-1,50
 437 627 437 627 425 627 c 2,51,-1
 413 627 l 1,52,-1
 413 710 l 1,53,-1
 634 710 l 1,54,-1
 634 627 l 1,55,-1
 623 627 l 2,56,57
 609 627 609 627 595.5 618 c 128,-1,58
 582 609 582 609 562 583 c 2,59,-1
 401 349 l 1,45,-1
EndSplineSet
EndChar

StartChar: Y
Encoding: 89 89 206
Width: 635
GlyphClass: 2
Flags: W
AnchorPoint: "Anchor-1" 321 0 basechar 0
AnchorPoint: "Anchor-0" 321 741 basechar 0
LayerCount: 2
Fore
SplineSet
262 297 m 1,0,-1
 269 258 l 1,1,-1
 90 583 l 2,2,3
 80 600 80 600 71.5 610 c 128,-1,4
 63 620 63 620 54 623.5 c 128,-1,5
 45 627 45 627 33 627 c 2,6,-1
 23 627 l 1,7,-1
 23 710 l 1,8,-1
 262 710 l 1,9,-1
 262 627 l 1,10,-1
 248 627 l 2,11,12
 233 627 233 627 220 625.5 c 128,-1,13
 207 624 207 624 199 622 c 128,-1,14
 191 620 191 620 191 616 c 2,15,-1
 361 301 l 1,16,-1
 305 300 l 1,17,-1
 462 605 l 2,18,19
 462 612 462 612 454 616.5 c 128,-1,20
 446 621 446 621 436 624 c 128,-1,21
 426 627 426 627 417 627 c 2,22,-1
 407 627 l 1,23,-1
 407 710 l 1,24,-1
 608 710 l 1,25,-1
 608 627 l 1,26,-1
 598 627 l 2,27,28
 589 627 589 627 579.5 622 c 128,-1,29
 570 617 570 617 560 605.5 c 128,-1,30
 550 594 550 594 539 574 c 2,31,-1
 369 258 l 1,32,-1
 376 297 l 1,33,-1
 376 119 l 2,34,35
 376 97 376 97 396 90 c 128,-1,36
 416 83 416 83 442 83 c 2,37,-1
 460 83 l 1,38,-1
 460 0 l 1,39,-1
 177 0 l 1,40,-1
 177 83 l 1,41,-1
 195 83 l 2,42,43
 223 83 223 83 242.5 90 c 128,-1,44
 262 97 262 97 262 119 c 2,45,-1
 262 297 l 1,0,-1
EndSplineSet
EndChar

StartChar: Z
Encoding: 90 90 216
Width: 604
GlyphClass: 2
Flags: W
AnchorPoint: "Anchor-1" 320 0 basechar 0
AnchorPoint: "Anchor-0" 320 741 basechar 0
LayerCount: 2
Fore
SplineSet
241 628 m 2,0,1
 215 628 215 628 199.5 626 c 128,-1,2
 184 624 184 624 176 619 c 128,-1,3
 168 614 168 614 164 605.5 c 128,-1,4
 160 597 160 597 159 583 c 2,5,-1
 148 502 l 1,6,-1
 67 502 l 1,7,-1
 67 710 l 1,8,-1
 537 710 l 1,9,-1
 537 623 l 1,10,-1
 138 21 l 1,11,-1
 116 82 l 1,12,-1
 371 82 l 2,13,14
 407 82 407 82 424.5 85.5 c 128,-1,15
 442 89 442 89 448.5 98.5 c 128,-1,16
 455 108 455 108 457 127 c 2,17,-1
 470 233 l 1,18,-1
 552 233 l 1,19,-1
 552 0 l 1,20,-1
 53 0 l 1,21,-1
 53 90 l 1,22,-1
 443 677 l 1,23,-1
 466 628 l 1,24,-1
 241 628 l 2,0,1
EndSplineSet
EndChar

StartChar: Zcaron
Encoding: 381 381 219
Width: 604
GlyphClass: 1
Flags: W
LayerCount: 2
Fore
SplineSet
260 804 m 1,0,-1
 338 804 l 1,1,-1
 458 959 l 1,2,-1
 458 983 l 1,3,-1
 403 983 l 1,4,-1
 242 846 l 1,5,-1
 362 848 l 1,6,-1
 203 983 l 1,7,-1
 139 983 l 1,8,-1
 139 959 l 1,9,-1
 260 804 l 1,0,-1
241 628 m 2,10,11
 215 628 215 628 199.5 626 c 128,-1,12
 184 624 184 624 176 619 c 128,-1,13
 168 614 168 614 164 605.5 c 128,-1,14
 160 597 160 597 159 583 c 2,15,-1
 148 502 l 1,16,-1
 67 502 l 1,17,-1
 67 710 l 1,18,-1
 537 710 l 1,19,-1
 537 623 l 1,20,-1
 138 21 l 1,21,-1
 116 82 l 1,22,-1
 371 82 l 2,23,24
 407 82 407 82 424.5 85.5 c 128,-1,25
 442 89 442 89 448.5 98.5 c 128,-1,26
 455 108 455 108 457 127 c 2,27,-1
 470 233 l 1,28,-1
 552 233 l 1,29,-1
 552 0 l 1,30,-1
 53 0 l 1,31,-1
 53 90 l 1,32,-1
 443 677 l 1,33,-1
 466 628 l 1,34,-1
 241 628 l 2,10,11
EndSplineSet
EndChar

StartChar: AE
Encoding: 198 198 221
Width: 970
GlyphClass: 2
Flags: W
AnchorPoint: "Anchor-0" 598 741 basechar 0
LayerCount: 2
Fore
SplineSet
209 306 m 1,0,-1
 499 306 l 1,1,-1
 514 222 l 1,2,-1
 194 222 l 1,3,-1
 209 306 l 1,0,-1
557 403 m 1,4,5
 598 406 598 406 640 408 c 128,-1,6
 682 410 682 410 724.5 413 c 128,-1,7
 767 416 767 416 808 419 c 1,8,-1
 808 312 l 1,9,10
 767 314 767 314 725 316.5 c 128,-1,11
 683 319 683 319 641 322 c 128,-1,12
 599 325 599 325 557 327 c 1,13,-1
 557 403 l 1,4,5
391 0 m 1,14,-1
 391 83 l 1,15,-1
 399 83 l 2,16,17
 420 83 420 83 434 86 c 128,-1,18
 448 89 448 89 455.5 96 c 128,-1,19
 463 103 463 103 463 115 c 2,20,-1
 463 652 l 1,21,-1
 440 634 l 1,22,-1
 167 106 l 2,23,24
 167 100 167 100 171.5 94.5 c 128,-1,25
 176 89 176 89 188 86 c 128,-1,26
 200 83 200 83 223 83 c 2,27,-1
 231 83 l 1,28,-1
 231 0 l 1,29,-1
 5 0 l 1,30,-1
 5 83 l 1,31,-1
 11 83 l 2,32,33
 27 83 27 83 40 89 c 128,-1,34
 53 95 53 95 65 109.5 c 128,-1,35
 77 124 77 124 89 147 c 2,36,-1
 323 597 l 1,37,38
 323 611 323 611 319.5 617.5 c 128,-1,39
 316 624 316 624 306 625.5 c 128,-1,40
 296 627 296 627 277 627 c 2,41,-1
 268 627 l 1,42,-1
 268 710 l 1,43,-1
 892 710 l 1,44,-1
 892 511 l 1,45,-1
 811 511 l 1,46,-1
 800 584 l 2,47,48
 798 602 798 602 787 611.5 c 128,-1,49
 776 621 776 621 754.5 624.5 c 128,-1,50
 733 628 733 628 700 628 c 2,51,-1
 577 628 l 1,52,-1
 577 82 l 1,53,-1
 713 82 l 2,54,55
 739 82 739 82 758.5 84 c 128,-1,56
 778 86 778 86 790 90.5 c 128,-1,57
 802 95 802 95 808 104.5 c 128,-1,58
 814 114 814 114 815 126 c 2,59,-1
 828 224 l 1,60,-1
 911 224 l 1,61,-1
 911 0 l 1,62,-1
 391 0 l 1,14,-1
EndSplineSet
EndChar

StartChar: Eth
Encoding: 208 208 223
Width: 711
GlyphClass: 1
Flags: W
LayerCount: 2
Fore
SplineSet
43 401 m 1,0,-1
 399 401 l 1,1,-1
 399 320 l 1,2,-1
 43 320 l 1,3,-1
 43 401 l 1,0,-1
51 627 m 1,4,-1
 51 710 l 1,5,-1
 327 710 l 2,6,7
 404 710 404 710 466 689 c 128,-1,8
 528 668 528 668 571 625 c 128,-1,9
 614 582 614 582 636.5 515.5 c 128,-1,10
 659 449 659 449 659 359 c 256,11,12
 659 269 659 269 636.5 201.5 c 128,-1,13
 614 134 614 134 571 89.5 c 128,-1,14
 528 45 528 45 466 22.5 c 128,-1,15
 404 0 404 0 327 0 c 2,16,-1
 51 0 l 1,17,-1
 51 83 l 1,18,-1
 60 83 l 2,19,20
 83 83 83 83 101.5 90 c 128,-1,21
 120 97 120 97 120 119 c 2,22,-1
 120 591 l 2,23,24
 120 613 120 613 101.5 620 c 128,-1,25
 83 627 83 627 61 627 c 2,26,-1
 51 627 l 1,4,-1
321 628 m 2,27,-1
 234 628 l 1,28,-1
 234 82 l 1,29,-1
 321 82 l 2,30,31
 377 82 377 82 418 98.5 c 128,-1,32
 459 115 459 115 486 149.5 c 128,-1,33
 513 184 513 184 526 236 c 128,-1,34
 539 288 539 288 539 359 c 256,35,36
 539 430 539 430 526 481 c 128,-1,37
 513 532 513 532 486 564.5 c 128,-1,38
 459 597 459 597 418 612.5 c 128,-1,39
 377 628 377 628 321 628 c 2,27,-1
EndSplineSet
EndChar

StartChar: Oslash
Encoding: 216 216 224
Width: 718
GlyphClass: 2
Flags: W
AnchorPoint: "Anchor-0" 358 731 basechar 0
LayerCount: 2
Fore
SplineSet
359 649 m 0,0,1
 313 649 313 649 278 631.5 c 128,-1,2
 243 614 243 614 220 578.5 c 128,-1,3
 197 543 197 543 185 487 c 128,-1,4
 173 431 173 431 173 355 c 0,5,6
 173 273 173 273 184.5 217 c 128,-1,7
 196 161 196 161 219 126.5 c 128,-1,8
 242 92 242 92 277 76.5 c 128,-1,9
 312 61 312 61 359 61 c 256,10,11
 406 61 406 61 441 78 c 128,-1,12
 476 95 476 95 498.5 131 c 128,-1,13
 521 167 521 167 533 222.5 c 128,-1,14
 545 278 545 278 545 355 c 0,15,16
 545 437 545 437 533.5 493 c 128,-1,17
 522 549 522 549 499 583.5 c 128,-1,18
 476 618 476 618 441 633.5 c 128,-1,19
 406 649 406 649 359 649 c 0,0,1
359 -23 m 0,20,21
 291 -23 291 -23 234.5 2 c 128,-1,22
 178 27 178 27 137 76 c 128,-1,23
 96 125 96 125 74 195 c 128,-1,24
 52 265 52 265 52 355 c 0,25,26
 52 449 52 449 74 519.5 c 128,-1,27
 96 590 96 590 137 637.5 c 128,-1,28
 178 685 178 685 234.5 709 c 128,-1,29
 291 733 291 733 359 733 c 0,30,31
 428 733 428 733 484 708 c 128,-1,32
 540 683 540 683 581 634.5 c 128,-1,33
 622 586 622 586 644 516 c 128,-1,34
 666 446 666 446 666 355 c 0,35,36
 666 262 666 262 644.5 191 c 128,-1,37
 623 120 623 120 582.5 72.5 c 128,-1,38
 542 25 542 25 485 1 c 128,-1,39
 428 -23 428 -23 359 -23 c 0,20,21
-3 -22 m 1,40,-1
 628 732 l 1,41,-1
 721 732 l 1,42,-1
 90 -22 l 1,43,-1
 -3 -22 l 1,40,-1
EndSplineSet
EndChar

StartChar: Thorn
Encoding: 222 222 226
Width: 650
GlyphClass: 1
Flags: W
LayerCount: 2
Fore
SplineSet
328 710 m 1,0,-1
 51 710 l 1,1,-1
 51 628 l 1,2,-1
 60 628 l 2,3,4
 90 628 90 628 105 621 c 128,-1,5
 120 614 120 614 120 591 c 2,6,-1
 120 118 l 2,7,8
 120 96 120 96 105 89 c 128,-1,9
 90 82 90 82 60 82 c 2,10,-1
 51 82 l 1,11,-1
 51 0 l 1,12,-1
 328 0 l 1,13,-1
 328 82 l 1,14,-1
 310 82 l 2,15,16
 295 82 295 82 281 83 c 128,-1,17
 267 84 267 84 256.5 85.5 c 128,-1,18
 246 87 246 87 240 88.5 c 128,-1,19
 234 90 234 90 234 93 c 2,20,-1
 234 618 l 2,21,22
 234 620 234 620 240 621.5 c 128,-1,23
 246 623 246 623 256.5 624.5 c 128,-1,24
 267 626 267 626 281 626.5 c 128,-1,25
 295 627 295 627 310 627 c 2,26,-1
 328 627 l 1,27,-1
 328 710 l 1,0,-1
599 367 m 256,28,29
 599 429 599 429 571 470.5 c 128,-1,30
 543 512 543 512 492 533 c 128,-1,31
 441 554 441 554 372 554 c 2,32,-1
 197 554 l 1,33,-1
 197 474 l 1,34,-1
 361 474 l 2,35,36
 403 474 403 474 429.5 462.5 c 128,-1,37
 456 451 456 451 468.5 427.5 c 128,-1,38
 481 404 481 404 481 365 c 0,39,40
 481 329 481 329 468.5 304 c 128,-1,41
 456 279 456 279 429 266.5 c 128,-1,42
 402 254 402 254 360 254 c 2,43,-1
 203 254 l 1,44,-1
 203 174 l 1,45,-1
 370 174 l 2,46,47
 438 174 438 174 489.5 196.5 c 128,-1,48
 541 219 541 219 570 262 c 128,-1,49
 599 305 599 305 599 367 c 256,28,29
EndSplineSet
EndChar

StartChar: Hbar
Encoding: 294 294 228
Width: 761
GlyphClass: 1
Flags: W
LayerCount: 2
Fore
SplineSet
196 373 m 1,0,-1
 559 373 l 1,1,-1
 559 299 l 1,2,-1
 196 299 l 1,3,-1
 196 373 l 1,0,-1
49 0 m 1,4,-1
 49 83 l 1,5,-1
 59 83 l 2,6,7
 81 83 81 83 99.5 90 c 128,-1,8
 118 97 118 97 118 119 c 2,9,-1
 118 591 l 2,10,11
 118 613 118 613 99.5 620 c 128,-1,12
 81 627 81 627 59 627 c 2,13,-1
 49 627 l 1,14,-1
 49 710 l 1,15,-1
 309 710 l 1,16,-1
 309 628 l 1,17,-1
 301 628 l 2,18,19
 290 628 290 628 277.5 627 c 128,-1,20
 265 626 265 626 254.5 624.5 c 128,-1,21
 244 623 244 623 238 621.5 c 128,-1,22
 232 620 232 620 232 617 c 2,23,-1
 232 92 l 2,24,25
 232 89 232 89 238 88 c 128,-1,26
 244 87 244 87 254.5 85.5 c 128,-1,27
 265 84 265 84 277.5 83.5 c 128,-1,28
 290 83 290 83 301 83 c 2,29,-1
 309 83 l 1,30,-1
 309 0 l 1,31,-1
 49 0 l 1,4,-1
453 0 m 1,32,-1
 453 82 l 1,33,-1
 461 82 l 2,34,35
 472 82 472 82 484 83 c 128,-1,36
 496 84 496 84 506.5 85.5 c 128,-1,37
 517 87 517 87 523.5 88.5 c 128,-1,38
 530 90 530 90 530 93 c 2,39,-1
 530 618 l 2,40,41
 530 621 530 621 523.5 622 c 128,-1,42
 517 623 517 623 506.5 624.5 c 128,-1,43
 496 626 496 626 484 626.5 c 128,-1,44
 472 627 472 627 461 627 c 2,45,-1
 453 627 l 1,46,-1
 453 710 l 1,47,-1
 713 710 l 1,48,-1
 713 627 l 1,49,-1
 703 627 l 2,50,51
 681 627 681 627 662.5 620 c 128,-1,52
 644 613 644 613 644 591 c 2,53,-1
 644 119 l 2,54,55
 644 97 644 97 662.5 90 c 128,-1,56
 681 83 681 83 703 83 c 2,57,-1
 713 83 l 1,58,-1
 713 0 l 1,59,-1
 453 0 l 1,32,-1
39 466 m 1,60,-1
 39 540 l 1,61,-1
 722 540 l 1,62,-1
 722 466 l 1,63,-1
 39 466 l 1,60,-1
EndSplineSet
EndChar

StartChar: Ldot
Encoding: 319 319 230
Width: 595
GlyphClass: 1
Flags: W
LayerCount: 2
Fore
SplineSet
322 710 m 1,0,-1
 51 710 l 1,1,-1
 51 627 l 1,2,-1
 60 627 l 2,3,4
 83 627 83 627 101.5 620 c 128,-1,5
 120 613 120 613 120 591 c 2,6,-1
 120 119 l 2,7,8
 120 97 120 97 101.5 90 c 128,-1,9
 83 83 83 83 60 83 c 2,10,-1
 51 83 l 1,11,-1
 51 0 l 1,12,-1
 547 0 l 1,13,-1
 547 224 l 1,14,-1
 465 224 l 1,15,-1
 452 126 l 2,16,17
 450 108 450 108 439.5 98.5 c 128,-1,18
 429 89 429 89 407 85.5 c 128,-1,19
 385 82 385 82 348 82 c 2,20,-1
 233 82 l 1,21,-1
 233 591 l 2,22,23
 233 613 233 613 254 620 c 128,-1,24
 275 627 275 627 308 627 c 2,25,-1
 322 627 l 1,26,-1
 322 710 l 1,0,-1
490 343 m 0,27,28
 450 343 450 343 424 367.5 c 128,-1,29
 398 392 398 392 398 433 c 0,30,31
 398 475 398 475 424 499 c 128,-1,32
 450 523 450 523 490 523 c 0,33,34
 532 523 532 523 557.5 499 c 128,-1,35
 583 475 583 475 583 433 c 0,36,37
 583 393 583 393 557.5 368 c 128,-1,38
 532 343 532 343 490 343 c 0,27,28
EndSplineSet
Ligature2: "Ligature Substitution lookup 5 subtable" L periodcentered
EndChar

StartChar: Lslash
Encoding: 321 321 231
Width: 595
GlyphClass: 1
Flags: W
LayerCount: 2
Fore
SplineSet
27 178 m 1,0,-1
 460 468 l 1,1,-1
 460 556 l 1,2,-1
 27 266 l 1,3,-1
 27 178 l 1,0,-1
324 710 m 1,4,-1
 52 710 l 1,5,-1
 52 627 l 1,6,-1
 62 627 l 2,7,8
 84 627 84 627 102.5 620 c 128,-1,9
 121 613 121 613 121 591 c 2,10,-1
 121 119 l 2,11,12
 121 97 121 97 102.5 90 c 128,-1,13
 84 83 84 83 62 83 c 2,14,-1
 52 83 l 1,15,-1
 52 0 l 1,16,-1
 550 0 l 1,17,-1
 550 238 l 1,18,-1
 467 238 l 1,19,-1
 454 126 l 2,20,21
 453 108 453 108 442 98.5 c 128,-1,22
 431 89 431 89 409 85.5 c 128,-1,23
 387 82 387 82 350 82 c 2,24,-1
 235 82 l 1,25,-1
 235 591 l 2,26,27
 235 613 235 613 256 620 c 128,-1,28
 277 627 277 627 310 627 c 2,29,-1
 324 627 l 1,30,-1
 324 710 l 1,4,-1
EndSplineSet
EndChar

StartChar: Eng
Encoding: 330 330 232
Width: 739
GlyphClass: 1
Flags: W
LayerCount: 2
Fore
SplineSet
630 -24 m 2,0,1
 630 -85 630 -85 613.5 -128.5 c 128,-1,2
 597 -172 597 -172 567.5 -198.5 c 128,-1,3
 538 -225 538 -225 498.5 -237.5 c 128,-1,4
 459 -250 459 -250 414 -250 c 0,5,6
 377 -250 377 -250 350 -244 c 128,-1,7
 323 -238 323 -238 306 -231 c 1,8,-1
 306 -142 l 1,9,10
 318 -147 318 -147 333.5 -152 c 128,-1,11
 349 -157 349 -157 368 -160.5 c 128,-1,12
 387 -164 387 -164 409 -164 c 0,13,14
 454 -164 454 -164 482 -150.5 c 128,-1,15
 510 -137 510 -137 524 -104.5 c 128,-1,16
 538 -72 538 -72 538 -14 c 2,17,-1
 538 58 l 1,18,-1
 557 -43 l 1,19,-1
 170 672 l 1,20,-1
 210 671 l 1,21,-1
 210 93 l 2,22,23
 210 90 210 90 218 87.5 c 128,-1,24
 226 85 226 85 239 84 c 128,-1,25
 252 83 252 83 265 83 c 2,26,-1
 277 83 l 1,27,-1
 277 0 l 1,28,-1
 51 0 l 1,29,-1
 51 83 l 1,30,-1
 60 83 l 2,31,32
 80 83 80 83 93 86 c 128,-1,33
 106 89 106 89 112.5 97 c 128,-1,34
 119 105 119 105 119 119 c 2,35,-1
 119 591 l 2,36,37
 119 606 119 606 112.5 613.5 c 128,-1,38
 106 621 106 621 93 624 c 128,-1,39
 80 627 80 627 60 627 c 2,40,-1
 51 627 l 1,41,-1
 51 710 l 1,42,-1
 270 710 l 1,43,-1
 598 84 l 1,44,-1
 539 85 l 1,45,-1
 539 617 l 2,46,47
 539 621 539 621 530.5 623 c 128,-1,48
 522 625 522 625 510 626 c 128,-1,49
 498 627 498 627 485 627 c 2,50,-1
 473 627 l 1,51,-1
 473 710 l 1,52,-1
 697 710 l 1,53,-1
 697 627 l 1,54,-1
 688 627 l 2,55,56
 669 627 669 627 656 624 c 128,-1,57
 643 621 643 621 636.5 613.5 c 128,-1,58
 630 606 630 606 630 591 c 2,59,-1
 630 -24 l 2,0,1
EndSplineSet
Substitution2: "'ss07' Style Set 7 lookup 67 subtable" Eng.afr
EndChar

StartChar: OE
Encoding: 338 338 233
Width: 970
GlyphClass: 1
Flags: W
LayerCount: 2
Fore
SplineSet
558 402 m 1,0,1
 599 406 599 406 641 408 c 128,-1,2
 683 410 683 410 725 413 c 128,-1,3
 767 416 767 416 808 418 c 1,4,-1
 808 313 l 1,5,6
 767 315 767 315 725 317.5 c 128,-1,7
 683 320 683 320 641 322.5 c 128,-1,8
 599 325 599 325 558 327 c 1,9,-1
 558 402 l 1,0,1
380 82 m 2,10,-1
 464 82 l 1,11,-1
 464 628 l 1,12,-1
 380 628 l 2,13,14
 327 628 327 628 288 613 c 128,-1,15
 249 598 249 598 223.5 565 c 128,-1,16
 198 532 198 532 185.5 479 c 128,-1,17
 173 426 173 426 173 351 c 256,18,19
 173 276 173 276 185.5 224.5 c 128,-1,20
 198 173 198 173 223.5 141.5 c 128,-1,21
 249 110 249 110 288 96 c 128,-1,22
 327 82 327 82 380 82 c 2,10,-1
376 0 m 2,23,24
 300 0 300 0 239.5 21 c 128,-1,25
 179 42 179 42 137 85.5 c 128,-1,26
 95 129 95 129 73.5 195.5 c 128,-1,27
 52 262 52 262 52 351 c 0,28,29
 52 441 52 441 73.5 508.5 c 128,-1,30
 95 576 95 576 137 620.5 c 128,-1,31
 179 665 179 665 239.5 687.5 c 128,-1,32
 300 710 300 710 376 710 c 2,33,-1
 892 710 l 1,34,-1
 892 511 l 1,35,-1
 810 511 l 1,36,-1
 800 584 l 2,37,38
 798 602 798 602 790.5 611 c 128,-1,39
 783 620 783 620 765 624 c 128,-1,40
 747 628 747 628 712 628 c 2,41,-1
 578 628 l 1,42,-1
 578 82 l 1,43,-1
 723 82 l 2,44,45
 750 82 750 82 767.5 84 c 128,-1,46
 785 86 785 86 795 90.5 c 128,-1,47
 805 95 805 95 809 104 c 128,-1,48
 813 113 813 113 815 126 c 2,49,-1
 826 224 l 1,50,-1
 911 224 l 1,51,-1
 911 0 l 1,52,-1
 376 0 l 2,23,24
EndSplineSet
EndChar

StartChar: Tbar
Encoding: 358 358 234
Width: 655
GlyphClass: 1
Flags: W
LayerCount: 2
Fore
SplineSet
119 344 m 1,0,-1
 533 344 l 1,1,-1
 533 262 l 1,2,-1
 119 262 l 1,3,-1
 119 344 l 1,0,-1
270 119 m 2,4,-1
 270 628 l 1,5,-1
 218 628 l 2,6,7
 183 628 183 628 166 622 c 128,-1,8
 149 616 149 616 143.5 603 c 128,-1,9
 138 590 138 590 135 569 c 2,10,-1
 125 470 l 1,11,-1
 45 470 l 1,12,-1
 45 710 l 1,13,-1
 610 710 l 1,14,-1
 610 470 l 1,15,-1
 530 470 l 1,16,-1
 520 569 l 2,17,18
 518 590 518 590 512 603 c 128,-1,19
 506 616 506 616 489 622 c 128,-1,20
 472 628 472 628 436 628 c 2,21,-1
 384 628 l 1,22,-1
 384 119 l 2,23,24
 384 97 384 97 405 90 c 128,-1,25
 426 83 426 83 453 83 c 2,26,-1
 470 83 l 1,27,-1
 470 0 l 1,28,-1
 185 0 l 1,29,-1
 185 83 l 1,30,-1
 202 83 l 2,31,32
 229 83 229 83 249.5 90 c 128,-1,33
 270 97 270 97 270 119 c 2,4,-1
EndSplineSet
EndChar

StartChar: Bhook
Encoding: 385 385 235
Width: 728
GlyphClass: 2
Flags: W
AnchorPoint: "Anchor-1" 393 0 basechar 0
AnchorPoint: "Anchor-0" 364 741 basechar 0
LayerCount: 2
Fore
SplineSet
276 411 m 1,0,-1
 421 411 l 2,1,2
 461 411 461 411 485 423.5 c 128,-1,3
 509 436 509 436 519.5 461.5 c 128,-1,4
 530 487 530 487 530 526 c 0,5,6
 530 560 530 560 519.5 582 c 128,-1,7
 509 604 509 604 485.5 616.5 c 128,-1,8
 462 629 462 629 422 629 c 2,9,-1
 316 629 l 1,10,-1
 316 81 l 1,11,-1
 430 81 l 2,12,13
 474 81 474 81 501.5 95.5 c 128,-1,14
 529 110 529 110 542 137 c 128,-1,15
 555 164 555 164 555 204 c 0,16,17
 555 245 555 245 541 274 c 128,-1,18
 527 303 527 303 497.5 318 c 128,-1,19
 468 333 468 333 420 333 c 2,20,-1
 276 333 l 1,21,-1
 276 411 l 1,0,-1
184 710 m 2,22,-1
 434 710 l 2,23,24
 486 710 486 710 525.5 699.5 c 128,-1,25
 565 689 565 689 592 667 c 128,-1,26
 619 645 619 645 633 612 c 128,-1,27
 647 579 647 579 647 534 c 256,28,29
 647 489 647 489 627.5 453 c 128,-1,30
 608 417 608 417 570 397 c 128,-1,31
 532 377 532 377 476 375 c 1,32,-1
 483 391 l 1,33,-1
 483 351 l 1,34,-1
 476 372 l 1,35,36
 540 368 540 368 584 346 c 128,-1,37
 628 324 628 324 650.5 286.5 c 128,-1,38
 673 249 673 249 673 197 c 0,39,40
 673 147 673 147 658 109.5 c 128,-1,41
 643 72 643 72 613.5 48 c 128,-1,42
 584 24 584 24 541 12 c 128,-1,43
 498 0 498 0 442 0 c 2,44,-1
 133 0 l 1,45,-1
 133 83 l 1,46,-1
 143 83 l 2,47,48
 165 83 165 83 183.5 90 c 128,-1,49
 202 97 202 97 202 119 c 2,50,-1
 202 629 l 1,51,-1
 186 629 l 2,52,53
 158 629 158 629 139.5 621 c 128,-1,54
 121 613 121 613 112.5 593 c 128,-1,55
 104 573 104 573 104 536 c 0,56,57
 104 513 104 513 106 495.5 c 128,-1,58
 108 478 108 478 113 464 c 1,59,-1
 11 464 l 1,60,61
 9 476 9 476 7.5 494.5 c 128,-1,62
 6 513 6 513 6 533 c 0,63,64
 6 595 6 595 26 633.5 c 128,-1,65
 46 672 46 672 85 691 c 128,-1,66
 124 710 124 710 184 710 c 2,22,-1
EndSplineSet
EndChar

StartChar: Dhook
Encoding: 394 394 236
Width: 793
GlyphClass: 2
Flags: W
AnchorPoint: "Anchor-1" 397 0 basechar 0
AnchorPoint: "Anchor-0" 372 741 basechar 0
LayerCount: 2
Fore
SplineSet
184 710 m 2,0,-1
 409 710 l 2,1,2
 487 710 487 710 548.5 689 c 128,-1,3
 610 668 610 668 653 625 c 128,-1,4
 696 582 696 582 718.5 515.5 c 128,-1,5
 741 449 741 449 741 359 c 256,6,7
 741 269 741 269 718.5 201.5 c 128,-1,8
 696 134 696 134 653 89.5 c 128,-1,9
 610 45 610 45 548.5 22.5 c 128,-1,10
 487 0 487 0 409 0 c 2,11,-1
 133 0 l 1,12,-1
 133 83 l 1,13,-1
 143 83 l 2,14,15
 165 83 165 83 183.5 90 c 128,-1,16
 202 97 202 97 202 119 c 2,17,-1
 202 629 l 1,18,-1
 185 629 l 2,19,20
 158 629 158 629 140 621 c 128,-1,21
 122 613 122 613 113 593 c 128,-1,22
 104 573 104 573 104 536 c 0,23,24
 104 514 104 514 106.5 496 c 128,-1,25
 109 478 109 478 113 464 c 1,26,-1
 11 464 l 1,27,28
 9 476 9 476 7.5 494.5 c 128,-1,29
 6 513 6 513 6 533 c 0,30,31
 6 595 6 595 26 633.5 c 128,-1,32
 46 672 46 672 85 691 c 128,-1,33
 124 710 124 710 184 710 c 2,0,-1
403 628 m 2,34,-1
 316 628 l 1,35,-1
 316 82 l 1,36,-1
 403 82 l 2,37,38
 459 82 459 82 500 98.5 c 128,-1,39
 541 115 541 115 568 149.5 c 128,-1,40
 595 184 595 184 608 236 c 128,-1,41
 621 288 621 288 621 359 c 256,42,43
 621 430 621 430 608 481 c 128,-1,44
 595 532 595 532 568 564.5 c 128,-1,45
 541 597 541 597 500 612.5 c 128,-1,46
 459 628 459 628 403 628 c 2,34,-1
EndSplineSet
EndChar

StartChar: Schwa
Encoding: 399 399 237
Width: 668
GlyphClass: 1
Flags: W
LayerCount: 2
Fore
SplineSet
321 747 m 0,0,1
 412 747 412 747 478.5 705 c 128,-1,2
 545 663 545 663 581 579 c 128,-1,3
 617 495 617 495 617 370 c 0,4,5
 617 278 617 278 596.5 205 c 128,-1,6
 576 132 576 132 538 81 c 128,-1,7
 500 30 500 30 447 3 c 128,-1,8
 394 -24 394 -24 327 -24 c 0,9,10
 230 -24 230 -24 170 23.5 c 128,-1,11
 110 71 110 71 82.5 165.5 c 128,-1,12
 55 260 55 260 53 401 c 1,13,-1
 549 401 l 1,14,-1
 549 317 l 1,15,-1
 149 317 l 1,16,-1
 172 342 l 1,17,18
 175 264 175 264 185 210 c 128,-1,19
 195 156 195 156 213.5 122.5 c 128,-1,20
 232 89 232 89 260 74.5 c 128,-1,21
 288 60 288 60 327 60 c 0,22,23
 368 60 368 60 399.5 77 c 128,-1,24
 431 94 431 94 452 130.5 c 128,-1,25
 473 167 473 167 484 226 c 128,-1,26
 495 285 495 285 495 370 c 0,27,28
 495 457 495 457 483 514 c 128,-1,29
 471 571 471 571 447.5 604 c 128,-1,30
 424 637 424 637 391 650 c 128,-1,31
 358 663 358 663 317 663 c 0,32,33
 271 663 271 663 238 652 c 128,-1,34
 205 641 205 641 178 614 c 128,-1,35
 151 587 151 587 123 539 c 1,36,-1
 53 586 l 1,37,38
 81 636 81 636 119 672 c 128,-1,39
 157 708 157 708 207 727.5 c 128,-1,40
 257 747 257 747 321 747 c 0,0,1
EndSplineSet
EndChar

StartChar: Khook
Encoding: 408 408 238
Width: 714
GlyphClass: 2
Flags: W
AnchorPoint: "Anchor-1" 364 0 basechar 0
AnchorPoint: "Anchor-0" 407 741 basechar 0
LayerCount: 2
Fore
SplineSet
51 0 m 1,0,-1
 51 83 l 1,1,-1
 60 83 l 2,2,3
 83 83 83 83 101.5 90 c 128,-1,4
 120 97 120 97 120 119 c 2,5,-1
 120 591 l 2,6,7
 120 613 120 613 101.5 620 c 128,-1,8
 83 627 83 627 60 627 c 2,9,-1
 51 627 l 1,10,-1
 51 710 l 1,11,-1
 309 710 l 1,12,-1
 309 627 l 1,13,-1
 300 627 l 2,14,15
 290 627 290 627 278 626.5 c 128,-1,16
 266 626 266 626 256 624.5 c 128,-1,17
 246 623 246 623 239.5 621.5 c 128,-1,18
 233 620 233 620 233 618 c 2,19,-1
 233 93 l 2,20,21
 233 90 233 90 239 88.5 c 128,-1,22
 245 87 245 87 255 85.5 c 128,-1,23
 265 84 265 84 277 83.5 c 128,-1,24
 289 83 289 83 298 83 c 2,25,-1
 305 83 l 1,26,-1
 305 0 l 1,27,-1
 51 0 l 1,0,-1
629 719 m 0,28,29
 661 719 661 719 681.5 705 c 128,-1,30
 702 691 702 691 711.5 665 c 128,-1,31
 721 639 721 639 721 601 c 0,32,33
 721 560 721 560 716 522.5 c 128,-1,34
 711 485 711 485 703 465 c 1,35,-1
 608 465 l 1,36,37
 614 477 614 477 619 498 c 128,-1,38
 624 519 624 519 627 543.5 c 128,-1,39
 630 568 630 568 630 589 c 0,40,41
 630 606 630 606 624 614 c 128,-1,42
 618 622 618 622 606 622 c 0,43,44
 597 622 597 622 587 615 c 128,-1,45
 577 608 577 608 557.5 586 c 128,-1,46
 538 564 538 564 500 518 c 2,47,-1
 361 354 l 1,48,-1
 364 404 l 1,49,-1
 610 106 l 2,50,51
 618 96 618 96 627 91 c 128,-1,52
 636 86 636 86 645.5 84.5 c 128,-1,53
 655 83 655 83 664 83 c 2,54,-1
 684 83 l 1,55,-1
 684 0 l 1,56,-1
 409 0 l 1,57,-1
 409 83 l 1,58,-1
 417 83 l 2,59,60
 434 83 434 83 448.5 84 c 128,-1,61
 463 85 463 85 472.5 87.5 c 128,-1,62
 482 90 482 90 482 93 c 2,63,-1
 273 347 l 1,64,-1
 273 371 l 1,65,-1
 448 578 l 2,66,67
 487 623 487 623 513 650.5 c 128,-1,68
 539 678 539 678 558 693 c 128,-1,69
 577 708 577 708 593.5 713.5 c 128,-1,70
 610 719 610 719 629 719 c 0,28,29
EndSplineSet
EndChar

StartChar: Yhook
Encoding: 435 435 239
Width: 682
GlyphClass: 2
Flags: W
AnchorPoint: "Anchor-1" 321 0 basechar 0
AnchorPoint: "Anchor-0" 348 741 basechar 0
LayerCount: 2
Fore
SplineSet
447 575 m 2,0,1
 476 631 476 631 498.5 662 c 128,-1,2
 521 693 521 693 544.5 706 c 128,-1,3
 568 719 568 719 599 719 c 0,4,5
 636 719 636 719 658 703 c 128,-1,6
 680 687 680 687 689.5 658 c 128,-1,7
 699 629 699 629 699 591 c 0,8,9
 699 555 699 555 694 519 c 128,-1,10
 689 483 689 483 681 465 c 1,11,-1
 586 465 l 1,12,13
 592 477 592 477 596.5 496 c 128,-1,14
 601 515 601 515 604.5 537.5 c 128,-1,15
 608 560 608 560 608 583 c 0,16,17
 608 603 608 603 603 612 c 128,-1,18
 598 621 598 621 585 621 c 0,19,20
 575 621 575 621 566.5 613 c 128,-1,21
 558 605 558 605 546 585.5 c 128,-1,22
 534 566 534 566 515 530 c 2,23,-1
 369 258 l 1,24,-1
 376 297 l 1,25,-1
 376 119 l 2,26,27
 376 97 376 97 396 90 c 128,-1,28
 416 83 416 83 442 83 c 2,29,-1
 460 83 l 1,30,-1
 460 0 l 1,31,-1
 177 0 l 1,32,-1
 177 83 l 1,33,-1
 195 83 l 2,34,35
 223 83 223 83 242.5 90 c 128,-1,36
 262 97 262 97 262 119 c 2,37,-1
 262 297 l 1,38,-1
 269 258 l 1,39,-1
 89 583 l 2,40,41
 80 600 80 600 71.5 610 c 128,-1,42
 63 620 63 620 54 623.5 c 128,-1,43
 45 627 45 627 33 627 c 2,44,-1
 23 627 l 1,45,-1
 23 710 l 1,46,-1
 262 710 l 1,47,-1
 262 627 l 1,48,-1
 248 627 l 2,49,50
 233 627 233 627 220 625.5 c 128,-1,51
 207 624 207 624 199 622 c 128,-1,52
 191 620 191 620 191 616 c 2,53,-1
 361 301 l 1,54,-1
 305 300 l 1,55,-1
 447 575 l 2,0,1
EndSplineSet
EndChar

StartChar: Germandbls
Encoding: 7838 7838 240
Width: 782
GlyphClass: 1
Flags: W
LayerCount: 2
Fore
SplineSet
534 65 m 0,0,1
 567 65 567 65 585 77 c 128,-1,2
 603 89 603 89 609.5 115.5 c 128,-1,3
 616 142 616 142 616 185 c 256,4,5
 616 228 616 228 606.5 255 c 128,-1,6
 597 282 597 282 576.5 299 c 128,-1,7
 556 316 556 316 521 330 c 128,-1,8
 486 344 486 344 434 362 c 1,9,-1
 434 442 l 1,10,-1
 567 673 l 1,11,-1
 593 625 l 1,12,-1
 362 625 l 2,13,14
 326 625 326 625 301 615 c 128,-1,15
 276 605 276 605 259.5 585.5 c 128,-1,16
 243 566 243 566 236 536 c 128,-1,17
 229 506 229 506 229 465 c 2,18,-1
 229 0 l 1,19,-1
 42 0 l 1,20,-1
 42 83 l 1,21,-1
 51 83 l 2,22,23
 81 83 81 83 98.5 90 c 128,-1,24
 116 97 116 97 116 119 c 2,25,-1
 116 463 l 2,26,27
 116 523 116 523 128 569 c 128,-1,28
 140 615 140 615 167 646.5 c 128,-1,29
 194 678 194 678 237.5 694 c 128,-1,30
 281 710 281 710 344 710 c 2,31,-1
 655 710 l 1,32,-1
 655 632 l 1,33,-1
 522 395 l 1,34,-1
 491 421 l 1,35,36
 546 404 546 404 590.5 386.5 c 128,-1,37
 635 369 635 369 666.5 344.5 c 128,-1,38
 698 320 698 320 714.5 282 c 128,-1,39
 731 244 731 244 731 186 c 0,40,41
 731 124 731 124 712 79 c 128,-1,42
 693 34 693 34 653 10 c 128,-1,43
 613 -14 613 -14 551 -14 c 0,44,45
 494 -14 494 -14 458 7.5 c 128,-1,46
 422 29 422 29 404.5 74 c 128,-1,47
 387 119 387 119 382 189 c 1,48,-1
 403 150 l 1,49,-1
 390 0 l 1,50,-1
 316 0 l 1,51,-1
 316 232 l 1,52,-1
 399 232 l 1,53,54
 410 193 410 193 419.5 162.5 c 128,-1,55
 429 132 429 132 442.5 110 c 128,-1,56
 456 88 456 88 478 76.5 c 128,-1,57
 500 65 500 65 534 65 c 0,0,1
EndSplineSet
EndChar

StartChar: Delta
Encoding: 916 916 241
Width: 677
GlyphClass: 1
Flags: W
LayerCount: 2
Fore
SplineSet
46 0 m 1,0,-1
 46 93 l 1,1,-1
 283 710 l 1,2,-1
 394 710 l 1,3,-1
 631 93 l 1,4,-1
 631 0 l 1,5,-1
 46 0 l 1,0,-1
532 60 m 1,6,-1
 294 694 l 1,7,-1
 363 694 l 1,8,-1
 121 57 l 1,9,-1
 74 98 l 1,10,-1
 577 98 l 1,11,-1
 532 60 l 1,6,-1
EndSplineSet
EndChar

StartChar: Omega
Encoding: 937 937 242
Width: 782
GlyphClass: 1
Flags: W
LayerCount: 2
Fore
SplineSet
391 735 m 256,0,1
 321 735 321 735 266 718.5 c 128,-1,2
 211 702 211 702 172.5 668.5 c 128,-1,3
 134 635 134 635 114 585.5 c 128,-1,4
 94 536 94 536 94 470 c 0,5,6
 94 432 94 432 101 396.5 c 128,-1,7
 108 361 108 361 123 324 c 128,-1,8
 138 287 138 287 163 246.5 c 128,-1,9
 188 206 188 206 223.5 159.5 c 128,-1,10
 259 113 259 113 306 58 c 1,11,-1
 314 78 l 1,12,-1
 223 78 l 2,13,14
 188 78 188 78 169.5 82.5 c 128,-1,15
 151 87 151 87 144 97 c 128,-1,16
 137 107 137 107 134 124 c 2,17,-1
 122 217 l 1,18,-1
 46 217 l 1,19,-1
 46 0 l 1,20,-1
 352 0 l 1,21,-1
 352 128 l 1,22,23
 315 174 315 174 288 215 c 128,-1,24
 261 256 261 256 244 295 c 128,-1,25
 227 334 227 334 219 374.5 c 128,-1,26
 211 415 211 415 211 460 c 0,27,28
 211 528 211 528 230.5 571 c 128,-1,29
 250 614 250 614 289.5 633.5 c 128,-1,30
 329 653 329 653 391 653 c 0,31,32
 452 653 452 653 491.5 633.5 c 128,-1,33
 531 614 531 614 550.5 571 c 128,-1,34
 570 528 570 528 570 460 c 0,35,36
 570 415 570 415 562 374.5 c 128,-1,37
 554 334 554 334 537.5 295 c 128,-1,38
 521 256 521 256 494 215 c 128,-1,39
 467 174 467 174 430 128 c 1,40,-1
 430 0 l 1,41,-1
 736 0 l 1,42,-1
 736 217 l 1,43,-1
 660 217 l 1,44,-1
 648 124 l 2,45,46
 646 106 646 106 638 96 c 128,-1,47
 630 86 630 86 611 82 c 128,-1,48
 592 78 592 78 557 78 c 2,49,-1
 467 78 l 1,50,-1
 476 58 l 1,51,52
 523 112 523 112 558.5 159 c 128,-1,53
 594 206 594 206 619 246.5 c 128,-1,54
 644 287 644 287 659 324 c 128,-1,55
 674 361 674 361 680.5 396.5 c 128,-1,56
 687 432 687 432 687 470 c 0,57,58
 687 536 687 536 667 585.5 c 128,-1,59
 647 635 647 635 609 668.5 c 128,-1,60
 571 702 571 702 516 718.5 c 128,-1,61
 461 735 461 735 391 735 c 256,0,1
EndSplineSet
EndChar

StartChar: Djecyr
Encoding: 1026 1026 244
Width: 803
GlyphClass: 2
Flags: W
AnchorPoint: "Anchor-0" 313 741 basechar 0
LayerCount: 2
Fore
SplineSet
754 200 m 0,0,1
 754 146 754 146 739 104 c 128,-1,2
 724 62 724 62 695 33.5 c 128,-1,3
 666 5 666 5 624.5 -9 c 128,-1,4
 583 -23 583 -23 530 -23 c 1,5,-1
 530 59 l 1,6,7
 564 59 564 59 588 74 c 128,-1,8
 612 89 612 89 624 119.5 c 128,-1,9
 636 150 636 150 636 199 c 0,10,11
 636 267 636 267 602 302.5 c 128,-1,12
 568 338 568 338 503 338 c 0,13,14
 459 338 459 338 419 328.5 c 128,-1,15
 379 319 379 319 340 298 c 1,16,-1
 340 382 l 1,17,18
 380 401 380 401 422.5 411.5 c 128,-1,19
 465 422 465 422 516 422 c 0,20,21
 597 422 597 422 649.5 394.5 c 128,-1,22
 702 367 702 367 728 318 c 128,-1,23
 754 269 754 269 754 200 c 0,0,1
173 0 m 1,24,-1
 173 83 l 1,25,-1
 190 83 l 2,26,27
 217 83 217 83 237.5 90 c 128,-1,28
 258 97 258 97 258 119 c 2,29,-1
 258 628 l 1,30,-1
 218 628 l 2,31,32
 183 628 183 628 166 622 c 128,-1,33
 149 616 149 616 143.5 603 c 128,-1,34
 138 590 138 590 135 569 c 2,35,-1
 125 470 l 1,36,-1
 45 470 l 1,37,-1
 45 710 l 1,38,-1
 614 710 l 1,39,-1
 614 490 l 1,40,-1
 534 490 l 1,41,-1
 524 570 l 2,42,43
 521 590 521 590 515.5 603 c 128,-1,44
 510 616 510 616 493 622 c 128,-1,45
 476 628 476 628 440 628 c 2,46,-1
 372 628 l 1,47,-1
 372 93 l 2,48,49
 372 90 372 90 382.5 87.5 c 128,-1,50
 393 85 393 85 408.5 84 c 128,-1,51
 424 83 424 83 438 83 c 2,52,-1
 451 83 l 1,53,-1
 451 0 l 1,54,-1
 173 0 l 1,24,-1
EndSplineSet
EndChar

StartChar: Eukrcyr
Encoding: 1028 1028 245
Width: 680
GlyphClass: 2
Flags: W
AnchorPoint: "Anchor-1" 354 0 basechar 0
AnchorPoint: "Anchor-0" 354 741 basechar 0
LayerCount: 2
Fore
SplineSet
146 402 m 1,0,1
 171 403 171 403 196 404.5 c 128,-1,2
 221 406 221 406 246 407.5 c 128,-1,3
 271 409 271 409 296.5 410 c 128,-1,4
 322 411 322 411 347 412.5 c 128,-1,5
 372 414 372 414 397 415.5 c 128,-1,6
 422 417 422 417 447 418 c 1,7,-1
 447 313 l 1,8,9
 422 314 422 314 397 315 c 128,-1,10
 372 316 372 316 347 317 c 128,-1,11
 322 318 322 318 296.5 320 c 128,-1,12
 271 322 271 322 246 323 c 128,-1,13
 221 324 221 324 196 325 c 128,-1,14
 171 326 171 326 146 327 c 1,15,-1
 146 402 l 1,0,1
350 651 m 0,16,17
 304 651 304 651 270.5 633.5 c 128,-1,18
 237 616 237 616 215 580.5 c 128,-1,19
 193 545 193 545 183 489 c 128,-1,20
 173 433 173 433 173 357 c 0,21,22
 173 279 173 279 183.5 222.5 c 128,-1,23
 194 166 194 166 216.5 129.5 c 128,-1,24
 239 93 239 93 274.5 76 c 128,-1,25
 310 59 310 59 360 59 c 0,26,27
 419 59 419 59 456.5 84 c 128,-1,28
 494 109 494 109 516.5 149 c 128,-1,29
 539 189 539 189 552 233 c 1,30,-1
 627 203 l 1,31,32
 607 134 607 134 570.5 83 c 128,-1,33
 534 32 534 32 480 4.5 c 128,-1,34
 426 -23 426 -23 352 -23 c 0,35,36
 284 -23 284 -23 229 0.5 c 128,-1,37
 174 24 174 24 134 72 c 128,-1,38
 94 120 94 120 73 191 c 128,-1,39
 52 262 52 262 52 356 c 256,40,41
 52 450 52 450 73 520.5 c 128,-1,42
 94 591 94 591 133.5 638.5 c 128,-1,43
 173 686 173 686 226.5 709.5 c 128,-1,44
 280 733 280 733 344 733 c 0,45,46
 403 733 403 733 446.5 707.5 c 128,-1,47
 490 682 490 682 516 630.5 c 128,-1,48
 542 579 542 579 548 503 c 1,49,-1
 524 537 l 1,50,-1
 539 719 l 1,51,-1
 618 719 l 1,52,-1
 618 469 l 1,53,-1
 529 469 l 1,54,55
 513 526 513 526 489 566.5 c 128,-1,56
 465 607 465 607 431 629 c 128,-1,57
 397 651 397 651 350 651 c 0,16,17
EndSplineSet
Substitution2: "'ss01' Style Set 1 lookup 61 subtable" Ieukran.alt1
EndChar

StartChar: Yukrcyr
Encoding: 1031 1031 248
Width: 374
GlyphClass: 2
Flags: W
AnchorPoint: "Anchor-1" 187 0 basechar 0
AnchorPoint: "Anchor-0" 187 921 basechar 0
LayerCount: 2
Fore
SplineSet
164 861 m 0,0,1
 164 822 164 822 144.5 805.5 c 128,-1,2
 125 789 125 789 93 789 c 0,3,4
 60 789 60 789 41 805.5 c 128,-1,5
 22 822 22 822 22 861 c 0,6,7
 22 898 22 898 41 914.5 c 128,-1,8
 60 931 60 931 93 931 c 0,9,10
 125 931 125 931 144.5 914.5 c 128,-1,11
 164 898 164 898 164 861 c 0,0,1
352 861 m 0,12,13
 352 822 352 822 332.5 805.5 c 128,-1,14
 313 789 313 789 281 789 c 0,15,16
 248 789 248 789 228.5 805.5 c 128,-1,17
 209 822 209 822 209 861 c 0,18,19
 209 898 209 898 228.5 914.5 c 128,-1,20
 248 931 248 931 280 931 c 0,21,22
 313 931 313 931 332.5 914.5 c 128,-1,23
 352 898 352 898 352 861 c 0,12,13
130 119 m 2,24,-1
 130 591 l 2,25,26
 130 613 130 613 111 620 c 128,-1,27
 92 627 92 627 66 627 c 2,28,-1
 49 627 l 1,29,-1
 49 710 l 1,30,-1
 325 710 l 1,31,-1
 325 627 l 1,32,-1
 308 627 l 2,33,34
 282 627 282 627 263 620 c 128,-1,35
 244 613 244 613 244 591 c 2,36,-1
 244 119 l 2,37,38
 244 97 244 97 263 90 c 128,-1,39
 282 83 282 83 308 83 c 2,40,-1
 325 83 l 1,41,-1
 325 0 l 1,42,-1
 49 0 l 1,43,-1
 49 83 l 1,44,-1
 66 83 l 2,45,46
 92 83 92 83 111 90 c 128,-1,47
 130 97 130 97 130 119 c 2,24,-1
EndSplineSet
EndChar

StartChar: Ljecyr
Encoding: 1033 1033 250
Width: 963
GlyphClass: 2
Flags: W
AnchorPoint: "Anchor-0" 385 741 basechar 0
LayerCount: 2
Fore
SplineSet
228 710 m 1,0,-1
 523 710 l 1,1,-1
 523 626 l 1,2,-1
 228 626 l 1,3,-1
 228 710 l 1,0,-1
157 281 m 2,4,-1
 178 591 l 2,5,6
 180 613 180 613 163.5 620 c 128,-1,7
 147 627 147 627 123 627 c 2,8,-1
 114 627 l 1,9,-1
 114 710 l 1,10,-1
 277 710 l 1,11,-1
 249 276 l 2,12,13
 243 172 243 172 221.5 108 c 128,-1,14
 200 44 200 44 163.5 14.5 c 128,-1,15
 127 -15 127 -15 73 -15 c 0,16,17
 55 -15 55 -15 39 -10.5 c 128,-1,18
 23 -6 23 -6 12 0 c 1,19,-1
 12 106 l 1,20,21
 22 100 22 100 36 95.5 c 128,-1,22
 50 91 50 91 66 91 c 0,23,24
 92 91 92 91 110.5 110 c 128,-1,25
 129 129 129 129 141 170.5 c 128,-1,26
 153 212 153 212 157 281 c 2,4,-1
689 0 m 2,27,-1
 391 0 l 1,28,-1
 391 83 l 1,29,-1
 398 83 l 2,30,31
 414 83 414 83 428.5 84 c 128,-1,32
 443 85 443 85 453 87 c 128,-1,33
 463 89 463 89 463 93 c 2,34,-1
 463 710 l 1,35,-1
 653 710 l 1,36,-1
 653 628 l 1,37,-1
 634 628 l 2,38,39
 612 628 612 628 594.5 621 c 128,-1,40
 577 614 577 614 577 592 c 2,41,-1
 577 82 l 1,42,-1
 680 82 l 2,43,44
 721 82 721 82 748 97 c 128,-1,45
 775 112 775 112 788 142 c 128,-1,46
 801 172 801 172 801 216 c 0,47,48
 801 264 801 264 788 295 c 128,-1,49
 775 326 775 326 748 341.5 c 128,-1,50
 721 357 721 357 680 357 c 2,51,-1
 523 357 l 1,52,-1
 523 438 l 1,53,-1
 689 438 l 2,54,55
 759 438 759 438 810.5 414 c 128,-1,56
 862 390 862 390 890.5 341 c 128,-1,57
 919 292 919 292 919 216 c 0,58,59
 919 148 919 148 889 99.5 c 128,-1,60
 859 51 859 51 807.5 25.5 c 128,-1,61
 756 0 756 0 689 0 c 2,27,-1
EndSplineSet
EndChar

StartChar: Njecyr
Encoding: 1034 1034 251
Width: 999
GlyphClass: 2
Flags: W
AnchorPoint: "Anchor-0" 369 741 basechar 0
LayerCount: 2
Fore
SplineSet
198 430 m 1,0,-1
 533 430 l 1,1,-1
 533 349 l 1,2,-1
 198 349 l 1,3,-1
 198 430 l 1,0,-1
51 0 m 1,4,-1
 51 83 l 1,5,-1
 60 83 l 2,6,7
 83 83 83 83 101.5 90 c 128,-1,8
 120 97 120 97 120 119 c 2,9,-1
 120 591 l 2,10,11
 120 613 120 613 101.5 620 c 128,-1,12
 83 627 83 627 60 627 c 2,13,-1
 51 627 l 1,14,-1
 51 710 l 1,15,-1
 311 710 l 1,16,-1
 311 627 l 1,17,-1
 303 627 l 2,18,19
 288 627 288 627 271.5 626 c 128,-1,20
 255 625 255 625 244 623 c 128,-1,21
 233 621 233 621 233 617 c 2,22,-1
 233 92 l 2,23,24
 233 90 233 90 244 87.5 c 128,-1,25
 255 85 255 85 271.5 84 c 128,-1,26
 288 83 288 83 303 83 c 2,27,-1
 311 83 l 1,28,-1
 311 0 l 1,29,-1
 51 0 l 1,4,-1
427 0 m 1,30,-1
 427 83 l 1,31,-1
 435 83 l 2,32,33
 450 83 450 83 464 84 c 128,-1,34
 478 85 478 85 488.5 87.5 c 128,-1,35
 499 90 499 90 499 93 c 2,36,-1
 499 618 l 2,37,38
 499 621 499 621 488.5 623 c 128,-1,39
 478 625 478 625 463.5 626 c 128,-1,40
 449 627 449 627 435 627 c 2,41,-1
 427 627 l 1,42,-1
 427 710 l 1,43,-1
 692 710 l 1,44,-1
 692 627 l 1,45,-1
 677 627 l 2,46,47
 661 627 661 627 646 624 c 128,-1,48
 631 621 631 621 622 613.5 c 128,-1,49
 613 606 613 606 613 591 c 2,50,-1
 613 82 l 1,51,-1
 717 82 l 2,52,53
 755 82 755 82 782 96 c 128,-1,54
 809 110 809 110 823 139.5 c 128,-1,55
 837 169 837 169 837 212 c 0,56,57
 837 257 837 257 822.5 287.5 c 128,-1,58
 808 318 808 318 781.5 333.5 c 128,-1,59
 755 349 755 349 717 349 c 2,60,-1
 567 349 l 1,61,-1
 567 430 l 1,62,-1
 725 430 l 2,63,64
 795 430 795 430 846.5 405.5 c 128,-1,65
 898 381 898 381 927 332 c 128,-1,66
 956 283 956 283 956 212 c 0,67,68
 956 144 956 144 926 97 c 128,-1,69
 896 50 896 50 844 25 c 128,-1,70
 792 0 792 0 725 0 c 2,71,-1
 427 0 l 1,30,-1
EndSplineSet
EndChar

StartChar: Tshecyr
Encoding: 1035 1035 252
Width: 843
GlyphClass: 2
Flags: W
AnchorPoint: "Anchor-0" 303 741 basechar 0
LayerCount: 2
Fore
SplineSet
518 422 m 0,0,1
 599 422 599 422 648.5 400.5 c 128,-1,2
 698 379 698 379 720 334.5 c 128,-1,3
 742 290 742 290 742 221 c 2,4,-1
 742 119 l 2,5,6
 742 97 742 97 759 90 c 128,-1,7
 776 83 776 83 801 83 c 2,8,-1
 811 83 l 1,9,-1
 811 0 l 1,10,-1
 628 0 l 1,11,-1
 628 215 l 2,12,13
 628 262 628 262 612.5 288.5 c 128,-1,14
 597 315 597 315 569 326 c 128,-1,15
 541 337 541 337 505 337 c 0,16,17
 465 337 465 337 421.5 328.5 c 128,-1,18
 378 320 378 320 340 298 c 1,19,-1
 340 382 l 1,20,21
 381 402 381 402 426 412 c 128,-1,22
 471 422 471 422 518 422 c 0,0,1
173 0 m 1,23,-1
 173 83 l 1,24,-1
 190 83 l 2,25,26
 218 83 218 83 238 90 c 128,-1,27
 258 97 258 97 258 119 c 2,28,-1
 258 628 l 1,29,-1
 218 628 l 2,30,31
 183 628 183 628 166 622 c 128,-1,32
 149 616 149 616 143.5 603 c 128,-1,33
 138 590 138 590 135 569 c 2,34,-1
 125 470 l 1,35,-1
 45 470 l 1,36,-1
 45 710 l 1,37,-1
 614 710 l 1,38,-1
 614 490 l 1,39,-1
 534 490 l 1,40,-1
 524 570 l 2,41,42
 521 590 521 590 515.5 603.5 c 128,-1,43
 510 617 510 617 493 622.5 c 128,-1,44
 476 628 476 628 440 628 c 2,45,-1
 372 628 l 1,46,-1
 372 93 l 2,47,48
 372 90 372 90 383 87.5 c 128,-1,49
 394 85 394 85 410 84 c 128,-1,50
 426 83 426 83 441 83 c 2,51,-1
 458 83 l 1,52,-1
 458 0 l 1,53,-1
 173 0 l 1,23,-1
EndSplineSet
EndChar

StartChar: Dzhecyr
Encoding: 1039 1039 253
Width: 757
GlyphClass: 2
Flags: W
AnchorPoint: "Anchor-0" 379 741 basechar 0
LayerCount: 2
Fore
SplineSet
51 710 m 1,0,-1
 310 710 l 1,1,-1
 310 627 l 1,2,-1
 302 627 l 2,3,4
 288 627 288 627 272 626 c 128,-1,5
 256 625 256 625 244.5 623 c 128,-1,6
 233 621 233 621 233 618 c 2,7,-1
 233 0 l 1,8,-1
 51 0 l 1,9,-1
 51 83 l 1,10,-1
 60 83 l 2,11,12
 83 83 83 83 101.5 90 c 128,-1,13
 120 97 120 97 120 119 c 2,14,-1
 120 591 l 2,15,16
 120 613 120 613 101.5 620 c 128,-1,17
 83 627 83 627 60 627 c 2,18,-1
 51 627 l 1,19,-1
 51 710 l 1,0,-1
446 710 m 1,20,-1
 706 710 l 1,21,-1
 706 627 l 1,22,-1
 697 627 l 2,23,24
 674 627 674 627 655.5 620 c 128,-1,25
 637 613 637 613 637 591 c 2,26,-1
 637 119 l 2,27,28
 637 97 637 97 655.5 90 c 128,-1,29
 674 83 674 83 697 83 c 2,30,-1
 706 83 l 1,31,-1
 706 0 l 1,32,-1
 523 0 l 1,33,-1
 523 618 l 2,34,35
 523 621 523 621 512.5 623 c 128,-1,36
 502 625 502 625 486 626 c 128,-1,37
 470 627 470 627 454 627 c 2,38,-1
 446 627 l 1,39,-1
 446 710 l 1,20,-1
173 0 m 1,40,-1
 173 84 l 1,41,-1
 584 84 l 1,42,-1
 584 0 l 1,43,-1
 542 0 l 2,44,45
 501 0 501 0 477.5 -5.5 c 128,-1,46
 454 -11 454 -11 443 -22.5 c 128,-1,47
 432 -34 432 -34 430 -55 c 2,48,-1
 418 -182 l 1,49,-1
 339 -182 l 1,50,-1
 327 -55 l 2,51,52
 326 -35 326 -35 314.5 -23 c 128,-1,53
 303 -11 303 -11 279 -5.5 c 128,-1,54
 255 0 255 0 214 0 c 2,55,-1
 173 0 l 1,40,-1
EndSplineSet
EndChar

StartChar: Becyr
Encoding: 1041 1041 257
Width: 630
GlyphClass: 2
Flags: W
AnchorPoint: "Anchor-0" 321 741 basechar 0
LayerCount: 2
Fore
SplineSet
51 710 m 1,0,-1
 537 710 l 1,1,-1
 537 509 l 1,2,-1
 456 509 l 1,3,-1
 446 584 l 2,4,5
 444 602 444 602 432.5 611.5 c 128,-1,6
 421 621 421 621 399 624.5 c 128,-1,7
 377 628 377 628 341 628 c 2,8,-1
 234 628 l 1,9,-1
 234 82 l 1,10,-1
 342 82 l 2,11,12
 383 82 383 82 409.5 96 c 128,-1,13
 436 110 436 110 449 138.5 c 128,-1,14
 462 167 462 167 462 211 c 256,15,16
 462 255 462 255 449 284.5 c 128,-1,17
 436 314 436 314 409.5 329 c 128,-1,18
 383 344 383 344 341 344 c 2,19,-1
 169 344 l 1,20,-1
 169 426 l 1,21,-1
 350 426 l 2,22,23
 420 426 420 426 471.5 403 c 128,-1,24
 523 380 523 380 552 332.5 c 128,-1,25
 581 285 581 285 581 210 c 0,26,27
 581 143 581 143 551 96 c 128,-1,28
 521 49 521 49 469 24.5 c 128,-1,29
 417 0 417 0 350 0 c 2,30,-1
 51 0 l 1,31,-1
 51 83 l 1,32,-1
 60 83 l 2,33,34
 83 83 83 83 101.5 90 c 128,-1,35
 120 97 120 97 120 119 c 2,36,-1
 120 593 l 2,37,38
 120 613 120 613 101.5 620 c 128,-1,39
 83 627 83 627 60 627 c 2,40,-1
 51 627 l 1,41,-1
 51 710 l 1,0,-1
EndSplineSet
EndChar

StartChar: Gecyr
Encoding: 1043 1043 259
Width: 591
GlyphClass: 2
Flags: W
AnchorPoint: "Anchor-0" 301 741 basechar 0
LayerCount: 2
Fore
SplineSet
233 628 m 1,0,-1
 233 119 l 2,1,2
 233 105 233 105 243.5 97 c 128,-1,3
 254 89 254 89 271 86 c 128,-1,4
 288 83 288 83 310 83 c 2,5,-1
 329 83 l 1,6,-1
 329 0 l 1,7,-1
 51 0 l 1,8,-1
 51 83 l 1,9,-1
 60 83 l 2,10,11
 83 83 83 83 101.5 90 c 128,-1,12
 120 97 120 97 120 119 c 2,13,-1
 120 591 l 2,14,15
 120 613 120 613 101.5 620 c 128,-1,16
 83 627 83 627 60 627 c 2,17,-1
 51 627 l 1,18,-1
 51 710 l 1,19,-1
 546 710 l 1,20,-1
 546 470 l 1,21,-1
 466 470 l 1,22,-1
 455 569 l 2,23,24
 453 593 453 593 442.5 606 c 128,-1,25
 432 619 432 619 410.5 623.5 c 128,-1,26
 389 628 389 628 354 628 c 2,27,-1
 233 628 l 1,0,-1
EndSplineSet
EndChar

StartChar: Decyr
Encoding: 1044 1044 261
Width: 740
GlyphClass: 2
Flags: W
AnchorPoint: "Anchor-0" 400 741 basechar 0
LayerCount: 2
Fore
SplineSet
223 710 m 1,0,-1
 553 710 l 1,1,-1
 553 626 l 1,2,-1
 223 626 l 1,3,-1
 223 710 l 1,0,-1
619 0 m 1,4,-1
 505 0 l 1,5,-1
 505 710 l 1,6,-1
 688 710 l 1,7,-1
 688 627 l 1,8,-1
 678 627 l 2,9,10
 653 627 653 627 636 620 c 128,-1,11
 619 613 619 613 619 591 c 2,12,-1
 619 0 l 1,4,-1
608 -55 m 2,13,14
 606 -35 606 -35 595.5 -23 c 128,-1,15
 585 -11 585 -11 561 -5.5 c 128,-1,16
 537 0 537 0 496 0 c 2,17,-1
 227 0 l 2,18,19
 186 0 186 0 162.5 -5.5 c 128,-1,20
 139 -11 139 -11 128 -23 c 128,-1,21
 117 -35 117 -35 115 -54 c 2,22,-1
 103 -182 l 1,23,-1
 23 -182 l 1,24,-1
 23 84 l 1,25,-1
 700 84 l 1,26,-1
 700 -182 l 1,27,-1
 619 -182 l 1,28,-1
 608 -55 l 2,13,14
165 33 m 1,29,-1
 61 33 l 1,30,31
 82 60 82 60 97.5 90 c 128,-1,32
 113 120 113 120 124 158 c 128,-1,33
 135 196 135 196 143 247.5 c 128,-1,34
 151 299 151 299 157 369 c 2,35,-1
 174 591 l 2,36,37
 176 613 176 613 160 620 c 128,-1,38
 144 627 144 627 120 627 c 2,39,-1
 111 627 l 1,40,-1
 111 710 l 1,41,-1
 275 710 l 1,42,-1
 249 366 l 2,43,44
 242 274 242 274 231 212.5 c 128,-1,45
 220 151 220 151 203.5 108.5 c 128,-1,46
 187 66 187 66 165 33 c 1,29,-1
EndSplineSet
Substitution2: "'locl' Localized Forms in Cyrillic lookup 12 subtable" De.bgr
EndChar

StartChar: Zhecyr
Encoding: 1046 1046 266
Width: 1020
GlyphClass: 2
Flags: W
AnchorPoint: "Anchor-1" 500 0 basechar 0
AnchorPoint: "Anchor-0" 500 741 basechar 0
LayerCount: 2
Fore
SplineSet
726 0 m 1,0,-1
 726 83 l 1,1,-1
 734 83 l 2,2,3
 750 83 750 83 764.5 84 c 128,-1,4
 779 85 779 85 789 87.5 c 128,-1,5
 799 90 799 90 799 93 c 2,6,-1
 602 347 l 1,7,-1
 602 371 l 1,8,-1
 812 616 l 2,9,10
 812 620 812 620 802.5 622 c 128,-1,11
 793 624 793 624 778.5 625.5 c 128,-1,12
 764 627 764 627 749 627 c 2,13,-1
 740 627 l 1,14,-1
 740 710 l 1,15,-1
 974 710 l 1,16,-1
 974 627 l 1,17,-1
 953 627 l 2,18,19
 943 627 943 627 934.5 625 c 128,-1,20
 926 623 926 623 917 616.5 c 128,-1,21
 908 610 908 610 899 598 c 2,22,-1
 688 355 l 1,23,-1
 692 404 l 1,24,-1
 924 106 l 2,25,26
 932 96 932 96 941 90.5 c 128,-1,27
 950 85 950 85 960 84 c 128,-1,28
 970 83 970 83 980 83 c 2,29,-1
 999 83 l 1,30,-1
 999 0 l 1,31,-1
 726 0 l 1,0,-1
290 0 m 1,32,-1
 22 0 l 1,33,-1
 22 83 l 1,34,-1
 40 83 l 2,35,36
 51 83 51 83 61 84 c 128,-1,37
 71 85 71 85 80 90.5 c 128,-1,38
 89 96 89 96 96 106 c 2,39,-1
 328 404 l 1,40,-1
 326 354 l 1,41,-1
 116 599 l 2,42,43
 106 610 106 610 97 616.5 c 128,-1,44
 88 623 88 623 80 625 c 128,-1,45
 72 627 72 627 61 627 c 2,46,-1
 40 627 l 1,47,-1
 40 710 l 1,48,-1
 276 710 l 1,49,-1
 276 627 l 1,50,-1
 267 627 l 2,51,52
 252 627 252 627 237.5 625.5 c 128,-1,53
 223 624 223 624 213.5 622 c 128,-1,54
 204 620 204 620 204 616 c 2,55,-1
 414 371 l 1,56,-1
 414 347 l 1,57,-1
 217 93 l 2,58,59
 217 90 217 90 227 87.5 c 128,-1,60
 237 85 237 85 252 84 c 128,-1,61
 267 83 267 83 283 83 c 2,62,-1
 290 83 l 1,63,-1
 290 0 l 1,32,-1
382 0 m 1,64,-1
 382 83 l 1,65,-1
 390 83 l 2,66,67
 400 83 400 83 410.5 83.5 c 128,-1,68
 421 84 421 84 430.5 85.5 c 128,-1,69
 440 87 440 87 445.5 88.5 c 128,-1,70
 451 90 451 90 451 93 c 2,71,-1
 451 618 l 2,72,73
 451 621 451 621 445 622 c 128,-1,74
 439 623 439 623 429.5 624.5 c 128,-1,75
 420 626 420 626 409 626.5 c 128,-1,76
 398 627 398 627 388 627 c 2,77,-1
 379 627 l 1,78,-1
 379 710 l 1,79,-1
 637 710 l 1,80,-1
 637 627 l 1,81,-1
 629 627 l 2,82,83
 619 627 619 627 607.5 626.5 c 128,-1,84
 596 626 596 626 586.5 624.5 c 128,-1,85
 577 623 577 623 571 621.5 c 128,-1,86
 565 620 565 620 565 617 c 2,87,-1
 565 92 l 2,88,89
 565 89 565 89 570.5 88 c 128,-1,90
 576 87 576 87 585.5 85.5 c 128,-1,91
 595 84 595 84 606 83.5 c 128,-1,92
 617 83 617 83 627 83 c 2,93,-1
 634 83 l 1,94,-1
 634 0 l 1,95,-1
 382 0 l 1,64,-1
EndSplineSet
EndChar

StartChar: Zecyr
Encoding: 1047 1047 269
Width: 646
GlyphClass: 2
Flags: W
AnchorPoint: "Anchor-1" 349 0 basechar 0
AnchorPoint: "Anchor-0" 349 741 basechar 0
LayerCount: 2
Fore
SplineSet
367 -23 m 0,0,1
 298 -23 298 -23 250 1 c 128,-1,2
 202 25 202 25 175 74.5 c 128,-1,3
 148 124 148 124 142 201 c 1,4,-1
 167 169 l 1,5,-1
 152 -9 l 1,6,-1
 73 -9 l 1,7,-1
 73 234 l 1,8,-1
 162 234 l 1,9,10
 178 180 178 180 203 141.5 c 128,-1,11
 228 103 228 103 265.5 82 c 128,-1,12
 303 61 303 61 355 61 c 0,13,14
 396 61 396 61 422 75.5 c 128,-1,15
 448 90 448 90 460.5 119 c 128,-1,16
 473 148 473 148 473 191 c 0,17,18
 473 229 473 229 461 258 c 128,-1,19
 449 287 449 287 419 303 c 128,-1,20
 389 319 389 319 337 317 c 0,21,22
 323 316 323 316 308.5 315 c 128,-1,23
 294 314 294 314 280 313.5 c 128,-1,24
 266 313 266 313 253 312 c 1,25,-1
 253 417 l 1,26,27
 267 417 267 417 281 416 c 128,-1,28
 295 415 295 415 309 414.5 c 128,-1,29
 323 414 323 414 337 414 c 0,30,31
 379 413 379 413 404.5 428 c 128,-1,32
 430 443 430 443 441 471.5 c 128,-1,33
 452 500 452 500 452 539 c 0,34,35
 452 573 452 573 442.5 597.5 c 128,-1,36
 433 622 433 622 411.5 636 c 128,-1,37
 390 650 390 650 353 650 c 0,38,39
 307 650 307 650 272 631 c 128,-1,40
 237 612 237 612 212.5 573.5 c 128,-1,41
 188 535 188 535 172 476 c 1,42,-1
 83 476 l 1,43,-1
 83 719 l 1,44,-1
 162 719 l 1,45,-1
 177 541 l 1,46,-1
 152 509 l 1,47,48
 157 566 157 566 173.5 608 c 128,-1,49
 190 650 190 650 217.5 678 c 128,-1,50
 245 706 245 706 282 719.5 c 128,-1,51
 319 733 319 733 364 733 c 0,52,53
 432 733 432 733 477.5 710 c 128,-1,54
 523 687 523 687 546 645.5 c 128,-1,55
 569 604 569 604 569 549 c 0,56,57
 569 496 569 496 545 457.5 c 128,-1,58
 521 419 521 419 482 397 c 128,-1,59
 443 375 443 375 395 371 c 1,60,-1
 402 393 l 1,61,-1
 402 342 l 1,62,-1
 395 368 l 1,63,64
 455 365 455 365 499 343 c 128,-1,65
 543 321 543 321 567.5 282 c 128,-1,66
 592 243 592 243 592 188 c 0,67,68
 592 138 592 138 576.5 99 c 128,-1,69
 561 60 561 60 532 32.5 c 128,-1,70
 503 5 503 5 461.5 -9 c 128,-1,71
 420 -23 420 -23 367 -23 c 0,0,1
EndSplineSet
EndChar

StartChar: Icyr
Encoding: 1048 1048 270
Width: 777
GlyphClass: 2
Flags: W
AnchorPoint: "Anchor-0" 389 741 basechar 0
LayerCount: 2
Fore
SplineSet
180 202 m 1,0,-1
 543 577 l 1,1,-1
 596 518 l 1,2,-1
 233 143 l 1,3,-1
 180 202 l 1,0,-1
51 0 m 1,4,-1
 51 83 l 1,5,-1
 60 83 l 2,6,7
 83 83 83 83 101.5 90 c 128,-1,8
 120 97 120 97 120 119 c 2,9,-1
 120 591 l 2,10,11
 120 613 120 613 101.5 620 c 128,-1,12
 83 627 83 627 60 627 c 2,13,-1
 51 627 l 1,14,-1
 51 710 l 1,15,-1
 311 710 l 1,16,-1
 311 627 l 1,17,-1
 303 627 l 2,18,19
 288 627 288 627 271.5 626 c 128,-1,20
 255 625 255 625 244 623 c 128,-1,21
 233 621 233 621 233 617 c 2,22,-1
 233 92 l 2,23,24
 233 90 233 90 244 87.5 c 128,-1,25
 255 85 255 85 271.5 84 c 128,-1,26
 288 83 288 83 303 83 c 2,27,-1
 311 83 l 1,28,-1
 311 0 l 1,29,-1
 51 0 l 1,4,-1
466 0 m 1,30,-1
 466 83 l 1,31,-1
 474 83 l 2,32,33
 489 83 489 83 505 84 c 128,-1,34
 521 85 521 85 532 87.5 c 128,-1,35
 543 90 543 90 543 93 c 2,36,-1
 543 618 l 2,37,38
 543 621 543 621 532 623 c 128,-1,39
 521 625 521 625 505 626 c 128,-1,40
 489 627 489 627 474 627 c 2,41,-1
 466 627 l 1,42,-1
 466 710 l 1,43,-1
 726 710 l 1,44,-1
 726 627 l 1,45,-1
 717 627 l 2,46,47
 694 627 694 627 675.5 620 c 128,-1,48
 657 613 657 613 657 591 c 2,49,-1
 657 119 l 2,50,51
 657 97 657 97 675.5 90 c 128,-1,52
 694 83 694 83 717 83 c 2,53,-1
 726 83 l 1,54,-1
 726 0 l 1,55,-1
 466 0 l 1,30,-1
EndSplineSet
EndChar

StartChar: Elcyr
Encoding: 1051 1051 276
Width: 728
GlyphClass: 2
Flags: W
AnchorPoint: "Anchor-0" 401 741 basechar 0
LayerCount: 2
Fore
SplineSet
229 710 m 1,0,-1
 554 710 l 1,1,-1
 554 626 l 1,2,-1
 229 626 l 1,3,-1
 229 710 l 1,0,-1
418 0 m 1,4,-1
 418 83 l 1,5,-1
 426 83 l 2,6,7
 441 83 441 83 456.5 84 c 128,-1,8
 472 85 472 85 483 87.5 c 128,-1,9
 494 90 494 90 494 92 c 2,10,-1
 494 710 l 1,11,-1
 677 710 l 1,12,-1
 677 627 l 1,13,-1
 668 627 l 2,14,15
 645 627 645 627 626.5 620 c 128,-1,16
 608 613 608 613 608 591 c 2,17,-1
 608 119 l 2,18,19
 608 97 608 97 626.5 90 c 128,-1,20
 645 83 645 83 667 83 c 2,21,-1
 677 83 l 1,22,-1
 677 0 l 1,23,-1
 418 0 l 1,4,-1
157 281 m 2,24,-1
 178 591 l 2,25,26
 180 613 180 613 163.5 620 c 128,-1,27
 147 627 147 627 124 627 c 2,28,-1
 114 627 l 1,29,-1
 114 710 l 1,30,-1
 277 710 l 1,31,-1
 249 276 l 2,32,33
 243 172 243 172 221 107.5 c 128,-1,34
 199 43 199 43 163 14 c 128,-1,35
 127 -15 127 -15 73 -15 c 0,36,37
 55 -15 55 -15 39 -10.5 c 128,-1,38
 23 -6 23 -6 12 0 c 1,39,-1
 12 106 l 1,40,41
 22 100 22 100 36 95.5 c 128,-1,42
 50 91 50 91 67 91 c 0,43,44
 92 91 92 91 110 110 c 128,-1,45
 128 129 128 129 140.5 170.5 c 128,-1,46
 153 212 153 212 157 281 c 2,24,-1
EndSplineSet
Substitution2: "'locl' Localized Forms in Cyrillic lookup 12 subtable" El.bgr
EndChar

StartChar: Pecyr
Encoding: 1055 1055 281
Width: 757
GlyphClass: 2
Flags: W
AnchorPoint: "Anchor-0" 379 741 basechar 0
LayerCount: 2
Fore
SplineSet
189 710 m 1,0,-1
 566 710 l 1,1,-1
 566 626 l 1,2,-1
 189 626 l 1,3,-1
 189 710 l 1,0,-1
51 0 m 1,4,-1
 51 83 l 1,5,-1
 60 83 l 2,6,7
 83 83 83 83 101.5 90 c 128,-1,8
 120 97 120 97 120 119 c 2,9,-1
 120 591 l 2,10,11
 120 613 120 613 101.5 620 c 128,-1,12
 83 627 83 627 60 627 c 2,13,-1
 51 627 l 1,14,-1
 51 710 l 1,15,-1
 233 710 l 1,16,-1
 233 92 l 2,17,18
 233 90 233 90 244.5 87.5 c 128,-1,19
 256 85 256 85 272 84 c 128,-1,20
 288 83 288 83 303 83 c 2,21,-1
 311 83 l 1,22,-1
 311 0 l 1,23,-1
 51 0 l 1,4,-1
446 0 m 1,24,-1
 446 83 l 1,25,-1
 454 83 l 2,26,27
 469 83 469 83 485 84 c 128,-1,28
 501 85 501 85 512 87.5 c 128,-1,29
 523 90 523 90 523 92 c 2,30,-1
 523 710 l 1,31,-1
 706 710 l 1,32,-1
 706 627 l 1,33,-1
 697 627 l 2,34,35
 674 627 674 627 655.5 620 c 128,-1,36
 637 613 637 613 637 591 c 2,37,-1
 637 119 l 2,38,39
 637 97 637 97 655.5 90 c 128,-1,40
 674 83 674 83 697 83 c 2,41,-1
 706 83 l 1,42,-1
 706 0 l 1,43,-1
 446 0 l 1,24,-1
EndSplineSet
EndChar

StartChar: Ucyr
Encoding: 1059 1059 285
Width: 631
GlyphClass: 2
Flags: W
AnchorPoint: "Anchor-1" 208 0 basechar 0
AnchorPoint: "Anchor-0" 321 741 basechar 0
LayerCount: 2
Fore
SplineSet
382 199 m 2,0,1
 358 142 358 142 336 100.5 c 128,-1,2
 314 59 314 59 291.5 32.5 c 128,-1,3
 269 6 269 6 243 -7 c 128,-1,4
 217 -20 217 -20 184 -20 c 0,5,6
 162 -20 162 -20 146 -15.5 c 128,-1,7
 130 -11 130 -11 119 -4 c 1,8,-1
 119 99 l 1,9,10
 129 93 129 93 147 87.5 c 128,-1,11
 165 82 165 82 182 82 c 0,12,13
 209 82 209 82 229.5 95 c 128,-1,14
 250 108 250 108 269.5 139.5 c 128,-1,15
 289 171 289 171 311 224 c 2,16,-1
 464 605 l 2,17,18
 464 612 464 612 457 616.5 c 128,-1,19
 450 621 450 621 438.5 624 c 128,-1,20
 427 627 427 627 417 627 c 2,21,-1
 408 627 l 1,22,-1
 408 710 l 1,23,-1
 608 710 l 1,24,-1
 608 627 l 1,25,-1
 598 627 l 2,26,27
 586 627 586 627 576 622 c 128,-1,28
 566 617 566 617 557 605.5 c 128,-1,29
 548 594 548 594 540 575 c 2,30,-1
 382 199 l 2,0,1
356 228 m 1,31,-1
 286 133 l 1,32,-1
 88 583 l 2,33,34
 81 601 81 601 73 610.5 c 128,-1,35
 65 620 65 620 55.5 623.5 c 128,-1,36
 46 627 46 627 33 627 c 2,37,-1
 23 627 l 1,38,-1
 23 710 l 1,39,-1
 262 710 l 1,40,-1
 262 627 l 1,41,-1
 249 627 l 2,42,43
 234 627 234 627 220 625.5 c 128,-1,44
 206 624 206 624 197 622 c 128,-1,45
 188 620 188 620 188 617 c 2,46,-1
 356 228 l 1,31,-1
EndSplineSet
EndChar

StartChar: Efcyr
Encoding: 1060 1060 290
Width: 843
GlyphClass: 2
Flags: W
AnchorPoint: "Anchor-1" 422 0 basechar 0
AnchorPoint: "Anchor-0" 422 741 basechar 0
LayerCount: 2
Fore
SplineSet
369 94 m 2,0,-1
 369 616 l 2,1,2
 369 639 369 639 349.5 646 c 128,-1,3
 330 653 330 653 300 653 c 2,4,-1
 283 653 l 1,5,-1
 283 735 l 1,6,-1
 559 735 l 1,7,-1
 559 653 l 1,8,-1
 542 653 l 2,9,10
 513 653 513 653 493.5 645.5 c 128,-1,11
 474 638 474 638 474 616 c 2,12,-1
 474 94 l 2,13,14
 474 71 474 71 493.5 64 c 128,-1,15
 513 57 513 57 542 57 c 2,16,-1
 559 57 l 1,17,-1
 559 -25 l 1,18,-1
 283 -25 l 1,19,-1
 283 57 l 1,20,-1
 300 57 l 2,21,22
 330 57 330 57 349.5 64.5 c 128,-1,23
 369 72 369 72 369 94 c 2,0,-1
373 611 m 1,24,-1
 373 527 l 1,25,26
 299 527 299 527 252.5 508 c 128,-1,27
 206 489 206 489 185.5 452 c 128,-1,28
 165 415 165 415 165 360 c 256,29,30
 165 305 165 305 185.5 267.5 c 128,-1,31
 206 230 206 230 252.5 211 c 128,-1,32
 299 192 299 192 373 192 c 1,33,-1
 373 108 l 1,34,35
 263 108 263 108 190 139 c 128,-1,36
 117 170 117 170 80.5 226.5 c 128,-1,37
 44 283 44 283 44 360 c 256,38,39
 44 437 44 437 81 493 c 128,-1,40
 118 549 118 549 191 580 c 128,-1,41
 264 611 264 611 373 611 c 1,24,-1
469 108 m 1,42,-1
 469 192 l 1,43,44
 545 192 545 192 590.5 211 c 128,-1,45
 636 230 636 230 657 267.5 c 128,-1,46
 678 305 678 305 678 360 c 256,47,48
 678 415 678 415 657 452 c 128,-1,49
 636 489 636 489 590.5 508 c 128,-1,50
 545 527 545 527 469 527 c 1,51,-1
 469 611 l 1,52,53
 580 611 580 611 653 580 c 128,-1,54
 726 549 726 549 762.5 493 c 128,-1,55
 799 437 799 437 799 359 c 0,56,57
 799 283 799 283 762 226.5 c 128,-1,58
 725 170 725 170 651.5 139 c 128,-1,59
 578 108 578 108 469 108 c 1,42,-1
EndSplineSet
EndChar

StartChar: Tsecyr
Encoding: 1062 1062 292
Width: 759
GlyphClass: 2
Flags: W
AnchorPoint: "Anchor-0" 379 741 basechar 0
LayerCount: 2
Fore
SplineSet
190 0 m 1,0,-1
 190 84 l 1,1,-1
 560 84 l 1,2,-1
 560 0 l 1,3,-1
 190 0 l 1,0,-1
51 710 m 1,4,-1
 310 710 l 1,5,-1
 310 627 l 1,6,-1
 302 627 l 2,7,8
 288 627 288 627 272 626 c 128,-1,9
 256 625 256 625 244.5 623 c 128,-1,10
 233 621 233 621 233 618 c 2,11,-1
 233 0 l 1,12,-1
 51 0 l 1,13,-1
 51 83 l 1,14,-1
 60 83 l 2,15,16
 83 83 83 83 101.5 90 c 128,-1,17
 120 97 120 97 120 119 c 2,18,-1
 120 591 l 2,19,20
 120 613 120 613 101.5 620 c 128,-1,21
 83 627 83 627 60 627 c 2,22,-1
 51 627 l 1,23,-1
 51 710 l 1,4,-1
446 710 m 1,24,-1
 706 710 l 1,25,-1
 706 627 l 1,26,-1
 697 627 l 2,27,28
 674 627 674 627 655.5 620 c 128,-1,29
 637 613 637 613 637 591 c 2,30,-1
 637 0 l 1,31,-1
 523 0 l 1,32,-1
 523 618 l 2,33,34
 523 621 523 621 512.5 623 c 128,-1,35
 502 625 502 625 486 626 c 128,-1,36
 470 627 470 627 454 627 c 2,37,-1
 446 627 l 1,38,-1
 446 710 l 1,24,-1
490 0 m 1,39,-1
 490 84 l 1,40,-1
 718 84 l 1,41,-1
 718 -182 l 1,42,-1
 638 -182 l 1,43,-1
 626 -55 l 2,44,45
 625 -35 625 -35 613.5 -23 c 128,-1,46
 602 -11 602 -11 578 -5.5 c 128,-1,47
 554 0 554 0 513 0 c 2,48,-1
 490 0 l 1,39,-1
EndSplineSet
EndChar

StartChar: Checyr
Encoding: 1063 1063 293
Width: 728
GlyphClass: 2
Flags: W
AnchorPoint: "Anchor-0" 357 741 basechar 0
LayerCount: 2
Fore
SplineSet
418 0 m 1,0,-1
 418 83 l 1,1,-1
 426 83 l 2,2,3
 441 83 441 83 457 84 c 128,-1,4
 473 85 473 85 484 87.5 c 128,-1,5
 495 90 495 90 495 93 c 2,6,-1
 495 618 l 2,7,8
 495 621 495 621 484 623 c 128,-1,9
 473 625 473 625 457 626 c 128,-1,10
 441 627 441 627 426 627 c 2,11,-1
 418 627 l 1,12,-1
 418 710 l 1,13,-1
 677 710 l 1,14,-1
 677 627 l 1,15,-1
 668 627 l 2,16,17
 646 627 646 627 627.5 620 c 128,-1,18
 609 613 609 613 609 591 c 2,19,-1
 609 119 l 2,20,21
 609 97 609 97 627.5 90 c 128,-1,22
 646 83 646 83 668 83 c 2,23,-1
 677 83 l 1,24,-1
 677 0 l 1,25,-1
 418 0 l 1,0,-1
334 268 m 0,26,27
 252 268 252 268 200.5 287.5 c 128,-1,28
 149 307 149 307 124.5 351.5 c 128,-1,29
 100 396 100 396 100 470 c 2,30,-1
 100 591 l 2,31,32
 100 613 100 613 82 620 c 128,-1,33
 64 627 64 627 41 627 c 2,34,-1
 32 627 l 1,35,-1
 32 710 l 1,36,-1
 291 710 l 1,37,-1
 291 627 l 1,38,-1
 283 627 l 2,39,40
 269 627 269 627 252.5 626 c 128,-1,41
 236 625 236 625 225 623 c 128,-1,42
 214 621 214 621 214 617 c 2,43,-1
 214 476 l 2,44,45
 214 432 214 432 227 405 c 128,-1,46
 240 378 240 378 269 365.5 c 128,-1,47
 298 353 298 353 347 353 c 0,48,49
 390 353 390 353 437 361.5 c 128,-1,50
 484 370 484 370 522 391 c 1,51,-1
 522 307 l 1,52,53
 480 288 480 288 431.5 278 c 128,-1,54
 383 268 383 268 334 268 c 0,26,27
EndSplineSet
EndChar

StartChar: Shacyr
Encoding: 1064 1064 294
Width: 1050
GlyphClass: 2
Flags: W
AnchorPoint: "Anchor-0" 515 741 basechar 0
LayerCount: 2
Fore
SplineSet
857 0 m 1,0,-1
 195 0 l 1,1,-1
 195 84 l 1,2,-1
 857 84 l 1,3,-1
 857 0 l 1,0,-1
1000 710 m 1,4,-1
 1000 627 l 1,5,-1
 990 627 l 2,6,7
 968 627 968 627 949.5 620 c 128,-1,8
 931 613 931 613 931 591 c 2,9,-1
 931 119 l 2,10,11
 931 97 931 97 949.5 90 c 128,-1,12
 968 83 968 83 990 83 c 2,13,-1
 1000 83 l 1,14,-1
 1000 0 l 1,15,-1
 817 0 l 1,16,-1
 817 618 l 2,17,18
 817 621 817 621 806 623 c 128,-1,19
 795 625 795 625 779 626 c 128,-1,20
 763 627 763 627 748 627 c 2,21,-1
 740 627 l 1,22,-1
 740 710 l 1,23,-1
 1000 710 l 1,4,-1
311 710 m 1,24,-1
 311 627 l 1,25,-1
 303 627 l 2,26,27
 288 627 288 627 272 626 c 128,-1,28
 256 625 256 625 244.5 623 c 128,-1,29
 233 621 233 621 233 618 c 2,30,-1
 233 0 l 1,31,-1
 51 0 l 1,32,-1
 51 83 l 1,33,-1
 60 83 l 2,34,35
 83 83 83 83 101.5 90 c 128,-1,36
 120 97 120 97 120 119 c 2,37,-1
 120 591 l 2,38,39
 120 613 120 613 101.5 620 c 128,-1,40
 83 627 83 627 60 627 c 2,41,-1
 51 627 l 1,42,-1
 51 710 l 1,43,-1
 311 710 l 1,24,-1
396 710 m 1,44,-1
 654 710 l 1,45,-1
 654 627 l 1,46,-1
 646 627 l 2,47,48
 632 627 632 627 618 626 c 128,-1,49
 604 625 604 625 593 623 c 128,-1,50
 582 621 582 621 582 618 c 2,51,-1
 582 0 l 1,52,-1
 468 0 l 1,53,-1
 468 617 l 2,54,55
 468 621 468 621 457.5 623 c 128,-1,56
 447 625 447 625 432.5 626 c 128,-1,57
 418 627 418 627 404 627 c 2,58,-1
 396 627 l 1,59,-1
 396 710 l 1,44,-1
EndSplineSet
EndChar

StartChar: Shchacyr
Encoding: 1065 1065 295
Width: 1052
GlyphClass: 2
Flags: W
AnchorPoint: "Anchor-0" 515 741 basechar 0
LayerCount: 2
Fore
SplineSet
858 0 m 1,0,-1
 195 0 l 1,1,-1
 195 84 l 1,2,-1
 858 84 l 1,3,-1
 858 0 l 1,0,-1
310 710 m 1,4,-1
 310 627 l 1,5,-1
 302 627 l 2,6,7
 288 627 288 627 272 626 c 128,-1,8
 256 625 256 625 244.5 623 c 128,-1,9
 233 621 233 621 233 618 c 2,10,-1
 233 0 l 1,11,-1
 51 0 l 1,12,-1
 51 83 l 1,13,-1
 60 83 l 2,14,15
 83 83 83 83 101.5 90 c 128,-1,16
 120 97 120 97 120 119 c 2,17,-1
 120 591 l 2,18,19
 120 613 120 613 101.5 620 c 128,-1,20
 83 627 83 627 60 627 c 2,21,-1
 51 627 l 1,22,-1
 51 710 l 1,23,-1
 310 710 l 1,4,-1
740 710 m 1,24,-1
 1000 710 l 1,25,-1
 1000 627 l 1,26,-1
 990 627 l 2,27,28
 968 627 968 627 949.5 620 c 128,-1,29
 931 613 931 613 931 591 c 2,30,-1
 931 0 l 1,31,-1
 817 0 l 1,32,-1
 817 618 l 2,33,34
 817 621 817 621 806 623 c 128,-1,35
 795 625 795 625 779 626 c 128,-1,36
 763 627 763 627 748 627 c 2,37,-1
 740 627 l 1,38,-1
 740 710 l 1,24,-1
808 0 m 2,39,-1
 784 0 l 1,40,-1
 784 84 l 1,41,-1
 1011 84 l 1,42,-1
 1011 -182 l 1,43,-1
 931 -182 l 1,44,-1
 920 -55 l 2,45,46
 918 -35 918 -35 907 -23 c 128,-1,47
 896 -11 896 -11 872 -5.5 c 128,-1,48
 848 0 848 0 808 0 c 2,39,-1
396 710 m 1,49,-1
 654 710 l 1,50,-1
 654 627 l 1,51,-1
 646 627 l 2,52,53
 632 627 632 627 618 626 c 128,-1,54
 604 625 604 625 593 623 c 128,-1,55
 582 621 582 621 582 618 c 2,56,-1
 582 0 l 1,57,-1
 468 0 l 1,58,-1
 468 617 l 2,59,60
 468 621 468 621 457.5 623 c 128,-1,61
 447 625 447 625 432.5 626 c 128,-1,62
 418 627 418 627 404 627 c 2,63,-1
 396 627 l 1,64,-1
 396 710 l 1,49,-1
EndSplineSet
EndChar

StartChar: Hardcyr
Encoding: 1066 1066 296
Width: 747
GlyphClass: 2
Flags: W
AnchorPoint: "Anchor-0" 261 741 basechar 0
LayerCount: 2
Fore
SplineSet
473 0 m 2,0,-1
 173 0 l 1,1,-1
 173 83 l 1,2,-1
 182 83 l 2,3,4
 207 83 207 83 226 90 c 128,-1,5
 245 97 245 97 245 119 c 2,6,-1
 245 628 l 1,7,-1
 218 628 l 2,8,9
 183 628 183 628 166 622 c 128,-1,10
 149 616 149 616 143.5 603 c 128,-1,11
 138 590 138 590 135 569 c 2,12,-1
 125 470 l 1,13,-1
 45 470 l 1,14,-1
 45 710 l 1,15,-1
 450 710 l 1,16,-1
 450 627 l 1,17,-1
 432 627 l 2,18,19
 413 627 413 627 396 626 c 128,-1,20
 379 625 379 625 369 623 c 128,-1,21
 359 621 359 621 359 617 c 2,22,-1
 359 82 l 1,23,-1
 464 82 l 2,24,25
 505 82 505 82 531.5 97 c 128,-1,26
 558 112 558 112 571 142 c 128,-1,27
 584 172 584 172 584 217 c 0,28,29
 584 264 584 264 571 295 c 128,-1,30
 558 326 558 326 531.5 341.5 c 128,-1,31
 505 357 505 357 464 357 c 2,32,-1
 290 357 l 1,33,-1
 290 438 l 1,34,-1
 473 438 l 2,35,36
 543 438 543 438 594 414 c 128,-1,37
 645 390 645 390 674 341 c 128,-1,38
 703 292 703 292 703 216 c 0,39,40
 703 148 703 148 673 99.5 c 128,-1,41
 643 51 643 51 591 25.5 c 128,-1,42
 539 0 539 0 473 0 c 2,0,-1
EndSplineSet
EndChar

StartChar: Ylongcyr
Encoding: 1067 1067 297
Width: 921
GlyphClass: 2
Flags: W
AnchorPoint: "Anchor-1" 451 0 basechar 0
AnchorPoint: "Anchor-0" 451 741 basechar 0
LayerCount: 2
Fore
SplineSet
687 93 m 2,0,-1
 687 618 l 2,1,2
 687 621 687 621 676 623 c 128,-1,3
 665 625 665 625 649.5 626 c 128,-1,4
 634 627 634 627 619 627 c 2,5,-1
 611 627 l 1,6,-1
 611 710 l 1,7,-1
 870 710 l 1,8,-1
 870 627 l 1,9,-1
 860 627 l 2,10,11
 833 627 833 627 817 620 c 128,-1,12
 801 613 801 613 801 591 c 2,13,-1
 801 119 l 2,14,15
 801 97 801 97 817 90 c 128,-1,16
 833 83 833 83 860 83 c 2,17,-1
 870 83 l 1,18,-1
 870 0 l 1,19,-1
 611 0 l 1,20,-1
 611 83 l 1,21,-1
 618 83 l 2,22,23
 633 83 633 83 649 84 c 128,-1,24
 665 85 665 85 676 87.5 c 128,-1,25
 687 90 687 90 687 93 c 2,0,-1
350 0 m 2,26,-1
 51 0 l 1,27,-1
 51 83 l 1,28,-1
 60 83 l 2,29,30
 83 83 83 83 101.5 90 c 128,-1,31
 120 97 120 97 120 119 c 2,32,-1
 120 591 l 2,33,34
 120 613 120 613 101.5 620 c 128,-1,35
 83 627 83 627 60 627 c 2,36,-1
 51 627 l 1,37,-1
 51 710 l 1,38,-1
 328 710 l 1,39,-1
 328 627 l 1,40,-1
 310 627 l 2,41,42
 290 627 290 627 273 626 c 128,-1,43
 256 625 256 625 245 623 c 128,-1,44
 234 621 234 621 234 617 c 2,45,-1
 234 82 l 1,46,-1
 342 82 l 2,47,48
 383 82 383 82 409.5 97 c 128,-1,49
 436 112 436 112 449 142 c 128,-1,50
 462 172 462 172 462 217 c 0,51,52
 462 264 462 264 449 295 c 128,-1,53
 436 326 436 326 409 341.5 c 128,-1,54
 382 357 382 357 342 357 c 2,55,-1
 190 357 l 1,56,-1
 190 438 l 1,57,-1
 351 438 l 2,58,59
 420 438 420 438 471.5 414 c 128,-1,60
 523 390 523 390 552 341 c 128,-1,61
 581 292 581 292 581 217 c 0,62,63
 581 148 581 148 551 99.5 c 128,-1,64
 521 51 521 51 469 25.5 c 128,-1,65
 417 0 417 0 350 0 c 2,26,-1
EndSplineSet
EndChar

StartChar: Softcyr
Encoding: 1068 1068 298
Width: 624
GlyphClass: 2
Flags: W
AnchorPoint: "Anchor-0" 181 741 basechar 0
LayerCount: 2
Fore
SplineSet
350 0 m 2,0,-1
 51 0 l 1,1,-1
 51 83 l 1,2,-1
 60 83 l 2,3,4
 83 83 83 83 101.5 90 c 128,-1,5
 120 97 120 97 120 119 c 2,6,-1
 120 591 l 2,7,8
 120 613 120 613 101.5 620 c 128,-1,9
 83 627 83 627 60 627 c 2,10,-1
 51 627 l 1,11,-1
 51 710 l 1,12,-1
 328 710 l 1,13,-1
 328 627 l 1,14,-1
 310 627 l 2,15,16
 290 627 290 627 273 626 c 128,-1,17
 256 625 256 625 245 623 c 128,-1,18
 234 621 234 621 234 617 c 2,19,-1
 234 82 l 1,20,-1
 342 82 l 2,21,22
 383 82 383 82 409.5 97 c 128,-1,23
 436 112 436 112 449 142 c 128,-1,24
 462 172 462 172 462 217 c 0,25,26
 462 264 462 264 449 295 c 128,-1,27
 436 326 436 326 409 341.5 c 128,-1,28
 382 357 382 357 342 357 c 2,29,-1
 190 357 l 1,30,-1
 190 438 l 1,31,-1
 351 438 l 2,32,33
 420 438 420 438 471.5 414 c 128,-1,34
 523 390 523 390 552 341 c 128,-1,35
 581 292 581 292 581 217 c 0,36,37
 581 148 581 148 551 99.5 c 128,-1,38
 521 51 521 51 469 25.5 c 128,-1,39
 417 0 417 0 350 0 c 2,0,-1
EndSplineSet
EndChar

StartChar: Ereversedcyr
Encoding: 1069 1069 299
Width: 691
GlyphClass: 2
Flags: W
AnchorPoint: "Anchor-1" 332 0 basechar 0
AnchorPoint: "Anchor-0" 332 741 basechar 0
LayerCount: 2
Fore
SplineSet
546 401 m 1,0,-1
 546 326 l 1,1,2
 509 324 509 324 471 322 c 128,-1,3
 433 320 433 320 395.5 318.5 c 128,-1,4
 358 317 358 317 320.5 315 c 128,-1,5
 283 313 283 313 245 311 c 1,6,-1
 245 417 l 1,7,8
 281 415 281 415 318.5 413 c 128,-1,9
 356 411 356 411 394 409 c 128,-1,10
 432 407 432 407 470.5 405 c 128,-1,11
 509 403 509 403 546 401 c 1,0,-1
353 -23 m 0,12,13
 292 -23 292 -23 246.5 2 c 128,-1,14
 201 27 201 27 175 77.5 c 128,-1,15
 149 128 149 128 142 204 c 1,16,-1
 167 172 l 1,17,-1
 152 -9 l 1,18,-1
 73 -9 l 1,19,-1
 73 238 l 1,20,-1
 162 238 l 1,21,22
 178 183 178 183 202 142.5 c 128,-1,23
 226 102 226 102 261 80.5 c 128,-1,24
 296 59 296 59 343 59 c 256,25,26
 390 59 390 59 423 76.5 c 128,-1,27
 456 94 456 94 477 129.5 c 128,-1,28
 498 165 498 165 508.5 221 c 128,-1,29
 519 277 519 277 519 355 c 0,30,31
 519 434 519 434 506 490.5 c 128,-1,32
 493 547 493 547 470 582.5 c 128,-1,33
 447 618 447 618 415.5 634.5 c 128,-1,34
 384 651 384 651 347 651 c 0,35,36
 297 651 297 651 261 630 c 128,-1,37
 225 609 225 609 201.5 569.5 c 128,-1,38
 178 530 178 530 162 472 c 1,39,-1
 73 472 l 1,40,-1
 73 719 l 1,41,-1
 152 719 l 1,42,-1
 167 538 l 1,43,-1
 143 506 l 1,44,45
 149 582 149 582 175.5 632.5 c 128,-1,46
 202 683 202 683 247.5 708 c 128,-1,47
 293 733 293 733 353 733 c 0,48,49
 415 733 415 733 467 710 c 128,-1,50
 519 687 519 687 558 640 c 128,-1,51
 597 593 597 593 618.5 522 c 128,-1,52
 640 451 640 451 640 355 c 0,53,54
 640 263 640 263 618 192.5 c 128,-1,55
 596 122 596 122 557.5 74 c 128,-1,56
 519 26 519 26 467 1.5 c 128,-1,57
 415 -23 415 -23 353 -23 c 0,12,13
EndSplineSet
Substitution2: "'ss01' Style Set 1 lookup 61 subtable" Ecyr.alt1
EndChar

StartChar: Yucyr
Encoding: 1070 1070 300
Width: 996
GlyphClass: 2
Flags: W
AnchorPoint: "Anchor-1" 518 0 basechar 0
AnchorPoint: "Anchor-0" 518 741 basechar 0
LayerCount: 2
Fore
SplineSet
181 408 m 1,0,-1
 401 408 l 1,1,-1
 401 324 l 1,2,-1
 181 324 l 1,3,-1
 181 408 l 1,0,-1
51 0 m 1,4,-1
 51 83 l 1,5,-1
 60 83 l 2,6,7
 83 83 83 83 101.5 90 c 128,-1,8
 120 97 120 97 120 119 c 2,9,-1
 120 591 l 2,10,11
 120 613 120 613 101.5 620 c 128,-1,12
 83 627 83 627 60 627 c 2,13,-1
 51 627 l 1,14,-1
 51 710 l 1,15,-1
 311 710 l 1,16,-1
 311 628 l 1,17,-1
 303 628 l 2,18,19
 291 628 291 628 279 627 c 128,-1,20
 267 626 267 626 257 624.5 c 128,-1,21
 247 623 247 623 240 621.5 c 128,-1,22
 233 620 233 620 233 617 c 2,23,-1
 233 92 l 2,24,25
 233 89 233 89 240 88 c 128,-1,26
 247 87 247 87 257 85.5 c 128,-1,27
 267 84 267 84 279.5 83.5 c 128,-1,28
 292 83 292 83 302 83 c 2,29,-1
 311 83 l 1,30,-1
 311 0 l 1,31,-1
 51 0 l 1,4,-1
646 -23 m 0,32,33
 578 -23 578 -23 523 1.5 c 128,-1,34
 468 26 468 26 428.5 74 c 128,-1,35
 389 122 389 122 367 192.5 c 128,-1,36
 345 263 345 263 345 355 c 0,37,38
 345 448 345 448 367 518.5 c 128,-1,39
 389 589 389 589 428.5 637 c 128,-1,40
 468 685 468 685 523 709 c 128,-1,41
 578 733 578 733 646 733 c 0,42,43
 713 733 713 733 768 709 c 128,-1,44
 823 685 823 685 862.5 637 c 128,-1,45
 902 589 902 589 923.5 518.5 c 128,-1,46
 945 448 945 448 945 355 c 0,47,48
 945 263 945 263 923.5 192.5 c 128,-1,49
 902 122 902 122 862.5 74 c 128,-1,50
 823 26 823 26 768 1.5 c 128,-1,51
 713 -23 713 -23 646 -23 c 0,32,33
646 61 m 0,52,53
 690 61 690 61 723.5 78 c 128,-1,54
 757 95 757 95 779.5 130.5 c 128,-1,55
 802 166 802 166 813 221.5 c 128,-1,56
 824 277 824 277 824 355 c 0,57,58
 824 432 824 432 813 488 c 128,-1,59
 802 544 802 544 779.5 579.5 c 128,-1,60
 757 615 757 615 723.5 632 c 128,-1,61
 690 649 690 649 646 649 c 0,62,63
 601 649 601 649 567 632 c 128,-1,64
 533 615 533 615 511 579.5 c 128,-1,65
 489 544 489 544 477.5 488 c 128,-1,66
 466 432 466 432 466 355 c 256,67,68
 466 278 466 278 477.5 222 c 128,-1,69
 489 166 489 166 511.5 130.5 c 128,-1,70
 534 95 534 95 567.5 78 c 128,-1,71
 601 61 601 61 646 61 c 0,52,53
EndSplineSet
EndChar

StartChar: Yacyr
Encoding: 1071 1071 301
Width: 682
GlyphClass: 2
Flags: W
AnchorPoint: "Anchor-1" 341 0 basechar 0
AnchorPoint: "Anchor-0" 375 741 basechar 0
LayerCount: 2
Fore
SplineSet
336 322 m 1,0,-1
 178 0 l 1,1,-1
 28 0 l 1,2,-1
 28 83 l 1,3,-1
 36 83 l 2,4,5
 56 83 56 83 72 87.5 c 128,-1,6
 88 92 88 92 102 105.5 c 128,-1,7
 116 119 116 119 129 145 c 2,8,-1
 244 371 l 1,9,-1
 336 322 l 1,0,-1
448 93 m 2,10,-1
 448 629 l 1,11,-1
 337 629 l 2,12,13
 296 629 296 629 268.5 614 c 128,-1,14
 241 599 241 599 228 571 c 128,-1,15
 215 543 215 543 215 503 c 0,16,17
 215 462 215 462 227.5 431.5 c 128,-1,18
 240 401 240 401 267.5 385 c 128,-1,19
 295 369 295 369 341 369 c 2,20,-1
 462 369 l 1,21,-1
 462 287 l 1,22,-1
 301 287 l 1,23,-1
 276 299 l 1,24,25
 224 308 224 308 184 332 c 128,-1,26
 144 356 144 356 121.5 398.5 c 128,-1,27
 99 441 99 441 99 504 c 0,28,29
 99 570 99 570 126 616 c 128,-1,30
 153 662 153 662 204.5 686 c 128,-1,31
 256 710 256 710 328 710 c 2,32,-1
 631 710 l 1,33,-1
 631 627 l 1,34,-1
 621 627 l 2,35,36
 599 627 599 627 580.5 620 c 128,-1,37
 562 613 562 613 562 591 c 2,38,-1
 562 119 l 2,39,40
 562 97 562 97 580.5 90 c 128,-1,41
 599 83 599 83 621 83 c 2,42,-1
 631 83 l 1,43,-1
 631 0 l 1,44,-1
 355 0 l 1,45,-1
 355 83 l 1,46,-1
 372 83 l 2,47,48
 387 83 387 83 400.5 83.5 c 128,-1,49
 414 84 414 84 424.5 85.5 c 128,-1,50
 435 87 435 87 441.5 88.5 c 128,-1,51
 448 90 448 90 448 93 c 2,10,-1
EndSplineSet
EndChar

StartChar: Geupcyr
Encoding: 1168 1168 302
Width: 586
GlyphClass: 2
Flags: W
AnchorPoint: "Anchor-0" 276 741 basechar 0
LayerCount: 2
Fore
SplineSet
233 628 m 1,0,-1
 233 119 l 2,1,2
 233 105 233 105 243.5 97 c 128,-1,3
 254 89 254 89 271 86 c 128,-1,4
 288 83 288 83 310 83 c 2,5,-1
 329 83 l 1,6,-1
 329 0 l 1,7,-1
 51 0 l 1,8,-1
 51 83 l 1,9,-1
 60 83 l 2,10,11
 83 83 83 83 101.5 90 c 128,-1,12
 120 97 120 97 120 119 c 2,13,-1
 120 591 l 2,14,15
 120 613 120 613 101.5 620 c 128,-1,16
 83 627 83 627 60 627 c 2,17,-1
 51 627 l 1,18,-1
 51 710 l 1,19,-1
 339 710 l 2,20,21
 380 710 380 710 405 715 c 128,-1,22
 430 720 430 720 441 732.5 c 128,-1,23
 452 745 452 745 454 766 c 2,24,-1
 466 892 l 1,25,-1
 546 892 l 1,26,-1
 546 628 l 1,27,-1
 233 628 l 1,0,-1
EndSplineSet
EndChar

StartChar: Gestrokecyr
Encoding: 1170 1170 303
Width: 591
GlyphClass: 2
Flags: W
AnchorPoint: "Anchor-0" 301 741 basechar 0
LayerCount: 2
Fore
SplineSet
46 401 m 1,0,-1
 391 401 l 1,1,-1
 391 320 l 1,2,-1
 46 320 l 1,3,-1
 46 401 l 1,0,-1
233 628 m 1,4,-1
 233 119 l 2,5,6
 233 105 233 105 243.5 97 c 128,-1,7
 254 89 254 89 271 86 c 128,-1,8
 288 83 288 83 310 83 c 2,9,-1
 329 83 l 1,10,-1
 329 0 l 1,11,-1
 51 0 l 1,12,-1
 51 83 l 1,13,-1
 60 83 l 2,14,15
 83 83 83 83 101.5 90 c 128,-1,16
 120 97 120 97 120 119 c 2,17,-1
 120 591 l 2,18,19
 120 613 120 613 101.5 620 c 128,-1,20
 83 627 83 627 60 627 c 2,21,-1
 51 627 l 1,22,-1
 51 710 l 1,23,-1
 546 710 l 1,24,-1
 546 476 l 1,25,-1
 466 476 l 1,26,-1
 455 570 l 2,27,28
 453 594 453 594 442.5 606.5 c 128,-1,29
 432 619 432 619 410.5 623.5 c 128,-1,30
 389 628 389 628 354 628 c 2,31,-1
 233 628 l 1,4,-1
EndSplineSet
EndChar

StartChar: Zhetailcyr
Encoding: 1174 1174 304
Width: 1021
GlyphClass: 2
Flags: W
AnchorPoint: "Anchor-0" 500 741 basechar 0
LayerCount: 2
Fore
SplineSet
726 0 m 1,0,-1
 726 83 l 1,1,-1
 733 83 l 2,2,3
 750 83 750 83 765 84 c 128,-1,4
 780 85 780 85 789.5 87.5 c 128,-1,5
 799 90 799 90 799 93 c 2,6,-1
 602 347 l 1,7,-1
 602 371 l 1,8,-1
 812 616 l 2,9,10
 812 620 812 620 802.5 622 c 128,-1,11
 793 624 793 624 778.5 625.5 c 128,-1,12
 764 627 764 627 749 627 c 2,13,-1
 740 627 l 1,14,-1
 740 710 l 1,15,-1
 974 710 l 1,16,-1
 974 627 l 1,17,-1
 953 627 l 2,18,19
 943 627 943 627 934.5 625 c 128,-1,20
 926 623 926 623 917 616.5 c 128,-1,21
 908 610 908 610 899 598 c 2,22,-1
 688 354 l 1,23,-1
 692 404 l 1,24,-1
 940 84 l 1,25,-1
 940 0 l 1,26,-1
 726 0 l 1,0,-1
290 0 m 1,27,-1
 22 0 l 1,28,-1
 22 83 l 1,29,-1
 40 83 l 2,30,31
 51 83 51 83 61 84 c 128,-1,32
 71 85 71 85 80 90.5 c 128,-1,33
 89 96 89 96 96 106 c 2,34,-1
 328 404 l 1,35,-1
 326 354 l 1,36,-1
 116 599 l 2,37,38
 106 610 106 610 97 616.5 c 128,-1,39
 88 623 88 623 80 625 c 128,-1,40
 72 627 72 627 61 627 c 2,41,-1
 40 627 l 1,42,-1
 40 710 l 1,43,-1
 276 710 l 1,44,-1
 276 627 l 1,45,-1
 267 627 l 2,46,47
 252 627 252 627 237.5 625.5 c 128,-1,48
 223 624 223 624 213.5 622 c 128,-1,49
 204 620 204 620 204 616 c 2,50,-1
 414 371 l 1,51,-1
 414 347 l 1,52,-1
 217 93 l 2,53,54
 217 90 217 90 227 87.5 c 128,-1,55
 237 85 237 85 252 84 c 128,-1,56
 267 83 267 83 283 83 c 2,57,-1
 290 83 l 1,58,-1
 290 0 l 1,27,-1
802 0 m 2,59,-1
 792 0 l 1,60,-1
 810 84 l 1,61,-1
 1005 84 l 1,62,-1
 1005 -182 l 1,63,-1
 925 -182 l 1,64,-1
 914 -55 l 2,65,66
 912 -35 912 -35 901 -23 c 128,-1,67
 890 -11 890 -11 866 -5.5 c 128,-1,68
 842 0 842 0 802 0 c 2,59,-1
382 0 m 1,69,-1
 382 83 l 1,70,-1
 390 83 l 2,71,72
 400 83 400 83 410.5 83.5 c 128,-1,73
 421 84 421 84 430.5 85.5 c 128,-1,74
 440 87 440 87 445.5 88.5 c 128,-1,75
 451 90 451 90 451 93 c 2,76,-1
 451 618 l 2,77,78
 451 621 451 621 445 622 c 128,-1,79
 439 623 439 623 429.5 624.5 c 128,-1,80
 420 626 420 626 409 626.5 c 128,-1,81
 398 627 398 627 388 627 c 2,82,-1
 379 627 l 1,83,-1
 379 710 l 1,84,-1
 637 710 l 1,85,-1
 637 627 l 1,86,-1
 629 627 l 2,87,88
 619 627 619 627 607.5 626.5 c 128,-1,89
 596 626 596 626 586.5 624.5 c 128,-1,90
 577 623 577 623 571 621.5 c 128,-1,91
 565 620 565 620 565 617 c 2,92,-1
 565 92 l 2,93,94
 565 89 565 89 570.5 88 c 128,-1,95
 576 87 576 87 585.5 85.5 c 128,-1,96
 595 84 595 84 606 83.5 c 128,-1,97
 617 83 617 83 627 83 c 2,98,-1
 634 83 l 1,99,-1
 634 0 l 1,100,-1
 382 0 l 1,69,-1
EndSplineSet
EndChar

StartChar: Katailcyr
Encoding: 1178 1178 306
Width: 706
GlyphClass: 2
Flags: W
AnchorPoint: "Anchor-0" 360 741 basechar 0
LayerCount: 2
Fore
SplineSet
51 0 m 1,0,-1
 51 83 l 1,1,-1
 60 83 l 2,2,3
 83 83 83 83 101.5 90 c 128,-1,4
 120 97 120 97 120 119 c 2,5,-1
 120 591 l 2,6,7
 120 613 120 613 101.5 620 c 128,-1,8
 83 627 83 627 60 627 c 2,9,-1
 51 627 l 1,10,-1
 51 710 l 1,11,-1
 309 710 l 1,12,-1
 309 627 l 1,13,-1
 300 627 l 2,14,15
 290 627 290 627 278 626.5 c 128,-1,16
 266 626 266 626 256 624.5 c 128,-1,17
 246 623 246 623 239.5 621.5 c 128,-1,18
 233 620 233 620 233 618 c 2,19,-1
 233 93 l 2,20,21
 233 90 233 90 239 88.5 c 128,-1,22
 245 87 245 87 255 85.5 c 128,-1,23
 265 84 265 84 277 83.5 c 128,-1,24
 289 83 289 83 298 83 c 2,25,-1
 305 83 l 1,26,-1
 305 0 l 1,27,-1
 51 0 l 1,0,-1
409 0 m 1,28,-1
 409 83 l 1,29,-1
 417 83 l 2,30,31
 434 83 434 83 448.5 84 c 128,-1,32
 463 85 463 85 472.5 87.5 c 128,-1,33
 482 90 482 90 482 93 c 2,34,-1
 273 347 l 1,35,-1
 273 371 l 1,36,-1
 496 616 l 2,37,38
 496 620 496 620 486.5 622 c 128,-1,39
 477 624 477 624 462.5 625.5 c 128,-1,40
 448 627 448 627 433 627 c 2,41,-1
 425 627 l 1,42,-1
 425 710 l 1,43,-1
 659 710 l 1,44,-1
 659 627 l 1,45,-1
 639 627 l 2,46,47
 629 627 629 627 621 624.5 c 128,-1,48
 613 622 613 622 604 616 c 128,-1,49
 595 610 595 610 585 599 c 2,50,-1
 361 354 l 1,51,-1
 364 404 l 1,52,-1
 627 84 l 1,53,-1
 627 0 l 1,54,-1
 409 0 l 1,28,-1
487 0 m 2,55,-1
 478 0 l 1,56,-1
 496 84 l 1,57,-1
 691 84 l 1,58,-1
 691 -182 l 1,59,-1
 611 -182 l 1,60,-1
 599 -55 l 2,61,62
 598 -35 598 -35 587 -23 c 128,-1,63
 576 -11 576 -11 552 -5.5 c 128,-1,64
 528 0 528 0 487 0 c 2,55,-1
EndSplineSet
EndChar

StartChar: Kaverticalstrokecyr
Encoding: 1180 1180 307
Width: 803
GlyphClass: 2
Flags: W
AnchorPoint: "Anchor-0" 417 741 basechar 0
LayerCount: 2
Fore
SplineSet
301 171 m 1,0,-1
 301 544 l 1,1,-1
 385 544 l 1,2,-1
 385 171 l 1,3,-1
 301 171 l 1,0,-1
51 0 m 1,4,-1
 51 83 l 1,5,-1
 60 83 l 2,6,7
 83 83 83 83 101.5 90 c 128,-1,8
 120 97 120 97 120 119 c 2,9,-1
 120 591 l 2,10,11
 120 613 120 613 101.5 620 c 128,-1,12
 83 627 83 627 60 627 c 2,13,-1
 51 627 l 1,14,-1
 51 710 l 1,15,-1
 309 710 l 1,16,-1
 309 627 l 1,17,-1
 300 627 l 2,18,19
 290 627 290 627 278 626.5 c 128,-1,20
 266 626 266 626 256 624.5 c 128,-1,21
 246 623 246 623 239.5 621.5 c 128,-1,22
 233 620 233 620 233 618 c 2,23,-1
 233 93 l 2,24,25
 233 90 233 90 239 88.5 c 128,-1,26
 245 87 245 87 255 85.5 c 128,-1,27
 265 84 265 84 277 83.5 c 128,-1,28
 289 83 289 83 298 83 c 2,29,-1
 305 83 l 1,30,-1
 305 0 l 1,31,-1
 51 0 l 1,4,-1
512 0 m 1,32,-1
 512 83 l 1,33,-1
 520 83 l 2,34,35
 537 83 537 83 552 84 c 128,-1,36
 567 85 567 85 576 87.5 c 128,-1,37
 585 90 585 90 585 93 c 2,38,-1
 415 347 l 1,39,-1
 415 371 l 1,40,-1
 601 616 l 2,41,42
 602 620 602 620 592.5 622 c 128,-1,43
 583 624 583 624 567.5 625.5 c 128,-1,44
 552 627 552 627 536 627 c 2,45,-1
 527 627 l 1,46,-1
 527 710 l 1,47,-1
 759 710 l 1,48,-1
 759 627 l 1,49,-1
 737 627 l 2,50,51
 724 627 724 627 711.5 621.5 c 128,-1,52
 699 616 699 616 686 599 c 2,53,-1
 498 354 l 1,54,-1
 506 405 l 1,55,-1
 706 106 l 2,56,57
 713 95 713 95 723 90 c 128,-1,58
 733 85 733 85 743.5 84 c 128,-1,59
 754 83 754 83 764 83 c 2,60,-1
 781 83 l 1,61,-1
 781 0 l 1,62,-1
 512 0 l 1,32,-1
EndSplineSet
EndChar

StartChar: Kabashkcyr
Encoding: 1184 1184 308
Width: 840
GlyphClass: 2
Flags: W
AnchorPoint: "Anchor-0" 496 741 basechar 0
LayerCount: 2
Fore
SplineSet
544 0 m 1,0,-1
 544 83 l 1,1,-1
 551 83 l 2,2,3
 568 83 568 83 582.5 84 c 128,-1,4
 597 85 597 85 607 87.5 c 128,-1,5
 617 90 617 90 617 93 c 2,6,-1
 408 347 l 1,7,-1
 408 371 l 1,8,-1
 630 616 l 2,9,10
 630 620 630 620 621 622 c 128,-1,11
 612 624 612 624 597 625.5 c 128,-1,12
 582 627 582 627 568 627 c 2,13,-1
 559 627 l 1,14,-1
 559 710 l 1,15,-1
 794 710 l 1,16,-1
 794 627 l 1,17,-1
 774 627 l 2,18,19
 763 627 763 627 755 624.5 c 128,-1,20
 747 622 747 622 738.5 616 c 128,-1,21
 730 610 730 610 719 599 c 2,22,-1
 496 354 l 1,23,-1
 499 404 l 1,24,-1
 744 106 l 2,25,26
 752 96 752 96 761 91 c 128,-1,27
 770 86 770 86 780 84.5 c 128,-1,28
 790 83 790 83 799 83 c 2,29,-1
 819 83 l 1,30,-1
 819 0 l 1,31,-1
 544 0 l 1,0,-1
185 0 m 1,32,-1
 185 83 l 1,33,-1
 195 83 l 2,34,35
 217 83 217 83 235.5 90 c 128,-1,36
 254 97 254 97 254 119 c 2,37,-1
 254 628 l 1,38,-1
 218 628 l 2,39,40
 183 628 183 628 166 622 c 128,-1,41
 149 616 149 616 143.5 603 c 128,-1,42
 138 590 138 590 135 569 c 2,43,-1
 125 470 l 1,44,-1
 45 470 l 1,45,-1
 45 710 l 1,46,-1
 443 710 l 1,47,-1
 443 627 l 1,48,-1
 435 627 l 2,49,50
 421 627 421 627 405.5 626 c 128,-1,51
 390 625 390 625 379 623 c 128,-1,52
 368 621 368 621 368 617 c 2,53,-1
 368 93 l 2,54,55
 368 90 368 90 378.5 87.5 c 128,-1,56
 389 85 389 85 404.5 84 c 128,-1,57
 420 83 420 83 432 83 c 2,58,-1
 440 83 l 1,59,-1
 440 0 l 1,60,-1
 185 0 l 1,32,-1
EndSplineSet
EndChar

StartChar: Entailcyr
Encoding: 1186 1186 309
Width: 767
GlyphClass: 2
Flags: W
AnchorPoint: "Anchor-0" 384 741 basechar 0
LayerCount: 2
Fore
SplineSet
198 408 m 1,0,-1
 562 408 l 1,1,-1
 562 324 l 1,2,-1
 198 324 l 1,3,-1
 198 408 l 1,0,-1
51 0 m 1,4,-1
 51 83 l 1,5,-1
 60 83 l 2,6,7
 83 83 83 83 101.5 90 c 128,-1,8
 120 97 120 97 120 119 c 2,9,-1
 120 591 l 2,10,11
 120 613 120 613 101.5 620 c 128,-1,12
 83 627 83 627 60 627 c 2,13,-1
 51 627 l 1,14,-1
 51 710 l 1,15,-1
 311 710 l 1,16,-1
 311 628 l 1,17,-1
 303 628 l 2,18,19
 291 628 291 628 279 627 c 128,-1,20
 267 626 267 626 257 624.5 c 128,-1,21
 247 623 247 623 240 621.5 c 128,-1,22
 233 620 233 620 233 617 c 2,23,-1
 233 92 l 2,24,25
 233 89 233 89 240 88 c 128,-1,26
 247 87 247 87 257 85.5 c 128,-1,27
 267 84 267 84 279.5 83.5 c 128,-1,28
 292 83 292 83 302 83 c 2,29,-1
 311 83 l 1,30,-1
 311 0 l 1,31,-1
 51 0 l 1,4,-1
456 0 m 1,32,-1
 456 82 l 1,33,-1
 463 82 l 2,34,35
 474 82 474 82 486.5 83 c 128,-1,36
 499 84 499 84 509 85.5 c 128,-1,37
 519 87 519 87 525.5 88.5 c 128,-1,38
 532 90 532 90 532 93 c 2,39,-1
 532 618 l 2,40,41
 532 621 532 621 525.5 622 c 128,-1,42
 519 623 519 623 508.5 624.5 c 128,-1,43
 498 626 498 626 486 626.5 c 128,-1,44
 474 627 474 627 463 627 c 2,45,-1
 456 627 l 1,46,-1
 456 710 l 1,47,-1
 715 710 l 1,48,-1
 715 627 l 1,49,-1
 705 627 l 2,50,51
 683 627 683 627 664.5 620 c 128,-1,52
 646 613 646 613 646 591 c 2,53,-1
 646 0 l 1,54,-1
 456 0 l 1,32,-1
523 0 m 2,55,-1
 514 0 l 1,56,-1
 533 84 l 1,57,-1
 727 84 l 1,58,-1
 727 -182 l 1,59,-1
 646 -182 l 1,60,-1
 635 -55 l 2,61,62
 633 -35 633 -35 622 -23 c 128,-1,63
 611 -11 611 -11 587 -5.5 c 128,-1,64
 563 0 563 0 523 0 c 2,55,-1
EndSplineSet
EndChar

StartChar: Tetailcyr
Encoding: 1196 1196 311
Width: 655
GlyphClass: 2
Flags: W
AnchorPoint: "Anchor-0" 321 741 basechar 0
LayerCount: 2
Fore
SplineSet
270 119 m 2,0,-1
 270 628 l 1,1,-1
 218 628 l 2,2,3
 183 628 183 628 166 622 c 128,-1,4
 149 616 149 616 143.5 603 c 128,-1,5
 138 590 138 590 135 569 c 2,6,-1
 125 470 l 1,7,-1
 45 470 l 1,8,-1
 45 710 l 1,9,-1
 610 710 l 1,10,-1
 610 470 l 1,11,-1
 530 470 l 1,12,-1
 520 569 l 2,13,14
 518 590 518 590 512 603 c 128,-1,15
 506 616 506 616 489 622 c 128,-1,16
 472 628 472 628 436 628 c 2,17,-1
 384 628 l 1,18,-1
 384 0 l 1,19,-1
 185 0 l 1,20,-1
 185 83 l 1,21,-1
 202 83 l 2,22,23
 229 83 229 83 249.5 90 c 128,-1,24
 270 97 270 97 270 119 c 2,0,-1
276 0 m 2,25,-1
 263 0 l 1,26,-1
 271 84 l 1,27,-1
 480 84 l 1,28,-1
 480 -182 l 1,29,-1
 400 -182 l 1,30,-1
 388 -55 l 2,31,32
 386 -35 386 -35 375 -23 c 128,-1,33
 364 -11 364 -11 340.5 -5.5 c 128,-1,34
 317 0 317 0 276 0 c 2,25,-1
EndSplineSet
EndChar

StartChar: Ustraightstrokecyr
Encoding: 1200 1200 313
Width: 635
GlyphClass: 2
Flags: W
AnchorPoint: "Anchor-1" 317 0 basechar 0
AnchorPoint: "Anchor-0" 317 741 basechar 0
LayerCount: 2
Fore
SplineSet
138 278 m 1,0,-1
 499 278 l 1,1,-1
 499 194 l 1,2,-1
 138 194 l 1,3,-1
 138 278 l 1,0,-1
261 299 m 1,4,-1
 268 266 l 1,5,-1
 89 583 l 2,6,7
 80 600 80 600 71.5 610 c 128,-1,8
 63 620 63 620 54 623.5 c 128,-1,9
 45 627 45 627 33 627 c 2,10,-1
 23 627 l 1,11,-1
 23 710 l 1,12,-1
 262 710 l 1,13,-1
 262 627 l 1,14,-1
 248 627 l 2,15,16
 233 627 233 627 220 625.5 c 128,-1,17
 207 624 207 624 199 622 c 128,-1,18
 191 620 191 620 191 616 c 2,19,-1
 361 308 l 1,20,-1
 304 308 l 1,21,-1
 462 605 l 2,22,23
 462 612 462 612 454 616.5 c 128,-1,24
 446 621 446 621 436 624 c 128,-1,25
 426 627 426 627 417 627 c 2,26,-1
 407 627 l 1,27,-1
 407 710 l 1,28,-1
 608 710 l 1,29,-1
 608 627 l 1,30,-1
 598 627 l 2,31,32
 589 627 589 627 579.5 622.5 c 128,-1,33
 570 618 570 618 560 606 c 128,-1,34
 550 594 550 594 539 574 c 2,35,-1
 369 266 l 1,36,-1
 375 299 l 1,37,-1
 375 119 l 2,38,39
 375 97 375 97 395 90 c 128,-1,40
 415 83 415 83 442 83 c 2,41,-1
 460 83 l 1,42,-1
 460 0 l 1,43,-1
 177 0 l 1,44,-1
 177 83 l 1,45,-1
 195 83 l 2,46,47
 223 83 223 83 242 90 c 128,-1,48
 261 97 261 97 261 119 c 2,49,-1
 261 299 l 1,4,-1
EndSplineSet
EndChar

StartChar: Xatailcyr
Encoding: 1202 1202 314
Width: 678
GlyphClass: 2
Flags: W
AnchorPoint: "Anchor-0" 346 741 basechar 0
LayerCount: 2
Fore
SplineSet
35 627 m 1,0,-1
 35 710 l 1,1,-1
 296 710 l 1,2,-1
 296 627 l 1,3,-1
 282 627 l 2,4,5
 266 627 266 627 253 626 c 128,-1,6
 240 625 240 625 231.5 623 c 128,-1,7
 223 621 223 621 223 618 c 2,8,-1
 376 392 l 1,9,-1
 390 387 l 1,10,-1
 593 84 l 1,11,-1
 593 0 l 1,12,-1
 384 0 l 1,13,-1
 384 83 l 1,14,-1
 398 83 l 2,15,16
 414 83 414 83 427.5 84 c 128,-1,17
 441 85 441 85 449 87.5 c 128,-1,18
 457 90 457 90 457 92 c 2,19,-1
 292 340 l 1,20,-1
 279 345 l 1,21,-1
 110 593 l 2,22,23
 95 616 95 616 79.5 621.5 c 128,-1,24
 64 627 64 627 47 627 c 2,25,-1
 35 627 l 1,0,-1
25 0 m 1,26,-1
 25 83 l 1,27,-1
 42 83 l 2,28,29
 55 83 55 83 68.5 92.5 c 128,-1,30
 82 102 82 102 99 128 c 2,31,-1
 267 381 l 1,32,-1
 339 340 l 1,33,-1
 181 100 l 2,34,35
 181 95 181 95 190 91.5 c 128,-1,36
 199 88 199 88 211 85.5 c 128,-1,37
 223 83 223 83 234 83 c 2,38,-1
 249 83 l 1,39,-1
 249 0 l 1,40,-1
 25 0 l 1,26,-1
401 349 m 1,41,-1
 332 394 l 1,42,-1
 481 610 l 2,43,44
 481 616 481 616 471.5 619.5 c 128,-1,45
 462 623 462 623 449.5 625 c 128,-1,46
 437 627 437 627 425 627 c 2,47,-1
 413 627 l 1,48,-1
 413 710 l 1,49,-1
 634 710 l 1,50,-1
 634 627 l 1,51,-1
 623 627 l 2,52,53
 608 627 608 627 595 618 c 128,-1,54
 582 609 582 609 562 583 c 2,55,-1
 401 349 l 1,41,-1
459 0 m 2,56,-1
 452 0 l 1,57,-1
 470 84 l 1,58,-1
 663 84 l 1,59,-1
 663 -182 l 1,60,-1
 583 -182 l 1,61,-1
 571 -55 l 2,62,63
 570 -35 570 -35 559 -23 c 128,-1,64
 548 -11 548 -11 524 -5.5 c 128,-1,65
 500 0 500 0 459 0 c 2,56,-1
EndSplineSet
EndChar

StartChar: Chetailcyr
Encoding: 1206 1206 315
Width: 730
GlyphClass: 2
Flags: W
AnchorPoint: "Anchor-0" 357 741 basechar 0
LayerCount: 2
Fore
SplineSet
334 268 m 0,0,1
 252 268 252 268 200.5 287.5 c 128,-1,2
 149 307 149 307 124.5 351.5 c 128,-1,3
 100 396 100 396 100 470 c 2,4,-1
 100 591 l 2,5,6
 100 613 100 613 82 620 c 128,-1,7
 64 627 64 627 41 627 c 2,8,-1
 32 627 l 1,9,-1
 32 710 l 1,10,-1
 291 710 l 1,11,-1
 291 627 l 1,12,-1
 283 627 l 2,13,14
 269 627 269 627 252.5 626 c 128,-1,15
 236 625 236 625 225 623 c 128,-1,16
 214 621 214 621 214 617 c 2,17,-1
 214 476 l 2,18,19
 214 432 214 432 227 405 c 128,-1,20
 240 378 240 378 269 365.5 c 128,-1,21
 298 353 298 353 347 353 c 0,22,23
 390 353 390 353 436.5 361.5 c 128,-1,24
 483 370 483 370 522 392 c 1,25,-1
 522 308 l 1,26,27
 480 288 480 288 431.5 278 c 128,-1,28
 383 268 383 268 334 268 c 0,0,1
418 0 m 1,29,-1
 418 83 l 1,30,-1
 426 83 l 2,31,32
 441 83 441 83 457 84 c 128,-1,33
 473 85 473 85 484 87.5 c 128,-1,34
 495 90 495 90 495 93 c 2,35,-1
 495 618 l 2,36,37
 495 621 495 621 484 623 c 128,-1,38
 473 625 473 625 457 626 c 128,-1,39
 441 627 441 627 426 627 c 2,40,-1
 418 627 l 1,41,-1
 418 710 l 1,42,-1
 677 710 l 1,43,-1
 677 627 l 1,44,-1
 668 627 l 2,45,46
 645 627 645 627 627 620 c 128,-1,47
 609 613 609 613 609 591 c 2,48,-1
 609 0 l 1,49,-1
 418 0 l 1,29,-1
485 0 m 2,50,-1
 477 0 l 1,51,-1
 496 84 l 1,52,-1
 689 84 l 1,53,-1
 689 -182 l 1,54,-1
 609 -182 l 1,55,-1
 598 -55 l 2,56,57
 596 -35 596 -35 585 -23 c 128,-1,58
 574 -11 574 -11 550 -5.5 c 128,-1,59
 526 0 526 0 485 0 c 2,50,-1
EndSplineSet
EndChar

StartChar: Chevertcyr
Encoding: 1208 1208 316
Width: 752
GlyphClass: 2
Flags: W
AnchorPoint: "Anchor-0" 368 741 basechar 0
LayerCount: 2
Fore
SplineSet
442 0 m 1,0,-1
 442 83 l 1,1,-1
 450 83 l 2,2,3
 465 83 465 83 480.5 84 c 128,-1,4
 496 85 496 85 507 87.5 c 128,-1,5
 518 90 518 90 518 93 c 2,6,-1
 518 618 l 2,7,8
 518 621 518 621 507 623 c 128,-1,9
 496 625 496 625 480.5 626 c 128,-1,10
 465 627 465 627 450 627 c 2,11,-1
 442 627 l 1,12,-1
 442 710 l 1,13,-1
 701 710 l 1,14,-1
 701 627 l 1,15,-1
 692 627 l 2,16,17
 669 627 669 627 650.5 620 c 128,-1,18
 632 613 632 613 632 591 c 2,19,-1
 632 119 l 2,20,21
 632 97 632 97 650.5 90 c 128,-1,22
 669 83 669 83 692 83 c 2,23,-1
 701 83 l 1,24,-1
 701 0 l 1,25,-1
 442 0 l 1,0,-1
345 268 m 0,26,27
 259 268 259 268 205 287.5 c 128,-1,28
 151 307 151 307 125.5 351.5 c 128,-1,29
 100 396 100 396 100 470 c 2,30,-1
 100 591 l 2,31,32
 100 613 100 613 82 620 c 128,-1,33
 64 627 64 627 41 627 c 2,34,-1
 32 627 l 1,35,-1
 32 710 l 1,36,-1
 291 710 l 1,37,-1
 291 627 l 1,38,-1
 283 627 l 2,39,40
 269 627 269 627 252.5 626 c 128,-1,41
 236 625 236 625 225 623 c 128,-1,42
 214 621 214 621 214 617 c 2,43,-1
 214 476 l 2,44,45
 214 432 214 432 228.5 405 c 128,-1,46
 243 378 243 378 274.5 365.5 c 128,-1,47
 306 353 306 353 358 353 c 0,48,49
 404 353 404 353 454.5 360.5 c 128,-1,50
 505 368 505 368 546 392 c 1,51,-1
 546 308 l 1,52,53
 501 287 501 287 449 277.5 c 128,-1,54
 397 268 397 268 345 268 c 0,26,27
328 158 m 1,55,-1
 328 531 l 1,56,-1
 412 531 l 1,57,-1
 412 158 l 1,58,-1
 328 158 l 1,55,-1
EndSplineSet
EndChar

StartChar: Shhacyr
Encoding: 1210 1210 317
Width: 728
GlyphClass: 1
Flags: W
LayerCount: 2
Fore
SplineSet
310 710 m 1,0,-1
 310 627 l 1,1,-1
 302 627 l 2,2,3
 288 627 288 627 272 626 c 128,-1,4
 256 625 256 625 244.5 623 c 128,-1,5
 233 621 233 621 233 617 c 2,6,-1
 233 92 l 2,7,8
 233 90 233 90 244.5 87.5 c 128,-1,9
 256 85 256 85 272 84 c 128,-1,10
 288 83 288 83 302 83 c 2,11,-1
 310 83 l 1,12,-1
 310 0 l 1,13,-1
 51 0 l 1,14,-1
 51 83 l 1,15,-1
 60 83 l 2,16,17
 83 83 83 83 101.5 90 c 128,-1,18
 120 97 120 97 120 119 c 2,19,-1
 120 591 l 2,20,21
 120 613 120 613 101.5 620 c 128,-1,22
 83 627 83 627 60 627 c 2,23,-1
 51 627 l 1,24,-1
 51 710 l 1,25,-1
 310 710 l 1,0,-1
395 442 m 0,26,27
 476 442 476 442 527.5 422.5 c 128,-1,28
 579 403 579 403 603.5 359 c 128,-1,29
 628 315 628 315 628 240 c 2,30,-1
 628 119 l 2,31,32
 628 97 628 97 646.5 90 c 128,-1,33
 665 83 665 83 687 83 c 2,34,-1
 697 83 l 1,35,-1
 697 0 l 1,36,-1
 437 0 l 1,37,-1
 437 83 l 1,38,-1
 445 83 l 2,39,40
 460 83 460 83 476 84 c 128,-1,41
 492 85 492 85 503 87.5 c 128,-1,42
 514 90 514 90 514 93 c 2,43,-1
 514 234 l 2,44,45
 514 278 514 278 501 305 c 128,-1,46
 488 332 488 332 458.5 344.5 c 128,-1,47
 429 357 429 357 381 357 c 0,48,49
 339 357 339 357 292 349 c 128,-1,50
 245 341 245 341 206 319 c 1,51,-1
 206 403 l 1,52,53
 248 422 248 422 296.5 432 c 128,-1,54
 345 442 345 442 395 442 c 0,26,27
EndSplineSet
EndChar

StartChar: Obarcyr
Encoding: 1256 1256 320
Width: 718
GlyphClass: 2
Flags: W
AnchorPoint: "Anchor-1" 352 0 basechar 0
AnchorPoint: "Anchor-0" 352 741 basechar 0
LayerCount: 2
Fore
SplineSet
110 408 m 1,0,-1
 608 408 l 1,1,-1
 608 324 l 1,2,-1
 110 324 l 1,3,-1
 110 408 l 1,0,-1
359 -23 m 0,4,5
 290 -23 290 -23 233.5 1.5 c 128,-1,6
 177 26 177 26 136 74 c 128,-1,7
 95 122 95 122 73.5 192.5 c 128,-1,8
 52 263 52 263 52 355 c 0,9,10
 52 448 52 448 73.5 518.5 c 128,-1,11
 95 589 95 589 136 637 c 128,-1,12
 177 685 177 685 233.5 709 c 128,-1,13
 290 733 290 733 359 733 c 0,14,15
 429 733 429 733 485.5 709 c 128,-1,16
 542 685 542 685 582.5 637 c 128,-1,17
 623 589 623 589 644.5 518.5 c 128,-1,18
 666 448 666 448 666 355 c 0,19,20
 666 263 666 263 644.5 192.5 c 128,-1,21
 623 122 623 122 582.5 74 c 128,-1,22
 542 26 542 26 485.5 1.5 c 128,-1,23
 429 -23 429 -23 359 -23 c 0,4,5
359 61 m 0,24,25
 406 61 406 61 441.5 78 c 128,-1,26
 477 95 477 95 499.5 130.5 c 128,-1,27
 522 166 522 166 534 221.5 c 128,-1,28
 546 277 546 277 546 355 c 0,29,30
 546 432 546 432 534 488 c 128,-1,31
 522 544 522 544 499.5 579.5 c 128,-1,32
 477 615 477 615 441.5 632 c 128,-1,33
 406 649 406 649 359 649 c 0,34,35
 313 649 313 649 277.5 632 c 128,-1,36
 242 615 242 615 219 579.5 c 128,-1,37
 196 544 196 544 184 488 c 128,-1,38
 172 432 172 432 172 355 c 256,39,40
 172 278 172 278 184 222 c 128,-1,41
 196 166 196 166 219 130.5 c 128,-1,42
 242 95 242 95 277.5 78 c 128,-1,43
 313 61 313 61 359 61 c 0,24,25
EndSplineSet
EndChar

StartChar: Hastrokecyr
Encoding: 1278 1278 321
Width: 674
GlyphClass: 2
Flags: W
AnchorPoint: "Anchor-1" 317 0 basechar 0
AnchorPoint: "Anchor-0" 344 741 basechar 0
LayerCount: 2
Fore
SplineSet
143 409 m 1,0,-1
 526 409 l 1,1,-1
 526 325 l 1,2,-1
 143 325 l 1,3,-1
 143 409 l 1,0,-1
35 627 m 1,4,-1
 35 710 l 1,5,-1
 296 710 l 1,6,-1
 296 627 l 1,7,-1
 282 627 l 2,8,9
 266 627 266 627 253 626 c 128,-1,10
 240 625 240 625 231.5 623 c 128,-1,11
 223 621 223 621 223 618 c 2,12,-1
 376 392 l 1,13,-1
 389 387 l 1,14,-1
 571 117 l 2,15,16
 586 95 586 95 601.5 89 c 128,-1,17
 617 83 617 83 633 83 c 2,18,-1
 650 83 l 1,19,-1
 650 0 l 1,20,-1
 384 0 l 1,21,-1
 384 83 l 1,22,-1
 398 83 l 2,23,24
 414 83 414 83 427.5 84 c 128,-1,25
 441 85 441 85 449 87.5 c 128,-1,26
 457 90 457 90 457 92 c 2,27,-1
 292 340 l 1,28,-1
 280 345 l 1,29,-1
 110 593 l 2,30,31
 95 616 95 616 79.5 621.5 c 128,-1,32
 64 627 64 627 47 627 c 2,33,-1
 35 627 l 1,4,-1
25 0 m 1,34,-1
 25 83 l 1,35,-1
 42 83 l 2,36,37
 55 83 55 83 68.5 92.5 c 128,-1,38
 82 102 82 102 99 128 c 2,39,-1
 268 381 l 1,40,-1
 339 340 l 1,41,-1
 181 100 l 2,42,43
 181 95 181 95 190 91.5 c 128,-1,44
 199 88 199 88 211 85.5 c 128,-1,45
 223 83 223 83 234 83 c 2,46,-1
 249 83 l 1,47,-1
 249 0 l 1,48,-1
 25 0 l 1,34,-1
400 349 m 1,49,-1
 332 394 l 1,50,-1
 481 610 l 2,51,52
 481 616 481 616 471.5 619.5 c 128,-1,53
 462 623 462 623 449.5 625 c 128,-1,54
 437 627 437 627 425 627 c 2,55,-1
 413 627 l 1,56,-1
 413 710 l 1,57,-1
 634 710 l 1,58,-1
 634 627 l 1,59,-1
 623 627 l 2,60,61
 608 627 608 627 594.5 618 c 128,-1,62
 581 609 581 609 562 583 c 2,63,-1
 400 349 l 1,49,-1
EndSplineSet
EndChar

StartChar: a
Encoding: 97 97 322
Width: 555
GlyphClass: 2
Flags: W
AnchorPoint: "Anchor-2" 417 -10 basechar 0
AnchorPoint: "Anchor-1" 286 0 basechar 0
AnchorPoint: "Anchor-0" 257 565 basechar 0
LayerCount: 2
Fore
SplineSet
366 349 m 1,0,-1
 366 284 l 1,1,2
 310 274 310 274 272.5 263 c 128,-1,3
 235 252 235 252 212.5 239.5 c 128,-1,4
 190 227 190 227 179 212.5 c 128,-1,5
 168 198 168 198 164 180.5 c 128,-1,6
 160 163 160 163 160 142 c 0,7,8
 160 112 160 112 168.5 95.5 c 128,-1,9
 177 79 177 79 192 73 c 128,-1,10
 207 67 207 67 226 67 c 0,11,12
 249 67 249 67 271.5 76 c 128,-1,13
 294 85 294 85 317.5 107.5 c 128,-1,14
 341 130 341 130 365 169 c 1,15,-1
 370 108 l 1,16,17
 352 69 352 69 327 42 c 128,-1,18
 302 15 302 15 271.5 1.5 c 128,-1,19
 241 -12 241 -12 205 -12 c 0,20,21
 156 -12 156 -12 122 4.5 c 128,-1,22
 88 21 88 21 70.5 54 c 128,-1,23
 53 87 53 87 53 138 c 0,24,25
 53 183 53 183 67.5 216 c 128,-1,26
 82 249 82 249 116.5 273 c 128,-1,27
 151 297 151 297 212 315.5 c 128,-1,28
 273 334 273 334 366 349 c 1,0,-1
386 0 m 1,29,-1
 363 116 l 1,30,-1
 361 124 l 1,31,-1
 361 412 l 2,32,33
 361 439 361 439 354.5 457 c 128,-1,34
 348 475 348 475 328 485 c 128,-1,35
 308 495 308 495 266 495 c 0,36,37
 210 495 210 495 173 482.5 c 128,-1,38
 136 470 136 470 120 458 c 1,39,40
 119 462 119 462 123.5 472 c 128,-1,41
 128 482 128 482 137 493 c 128,-1,42
 146 504 146 504 157.5 511 c 128,-1,43
 169 518 169 518 183 517 c 1,44,-1
 183 391 l 1,45,-1
 82 391 l 1,46,-1
 82 528 l 1,47,48
 96 538 96 538 122 549 c 128,-1,49
 148 560 148 560 185.5 568 c 128,-1,50
 223 576 223 576 272 576 c 0,51,52
 316 576 316 576 352.5 568 c 128,-1,53
 389 560 389 560 415 543 c 128,-1,54
 441 526 441 526 455 498 c 128,-1,55
 469 470 469 470 469 432 c 2,56,-1
 469 122 l 2,57,58
 469 107 469 107 474 98.5 c 128,-1,59
 479 90 479 90 491.5 85 c 128,-1,60
 504 80 504 80 524 75 c 2,61,-1
 532 73 l 1,62,-1
 532 0 l 1,63,-1
 386 0 l 1,29,-1
EndSplineSet
Substitution2: "'ss06' Style Set 6 lookup 66 subtable" a.alt
EndChar

StartChar: aogonek
Encoding: 261 261 331
Width: 555
GlyphClass: 1
Flags: W
LayerCount: 2
Fore
SplineSet
227 -159 m 0,0,1
 227 -135 227 -135 235 -116.5 c 128,-1,2
 243 -98 243 -98 264 -78 c 128,-1,3
 285 -58 285 -58 322 -30.5 c 128,-1,4
 359 -3 359 -3 416 38 c 1,5,-1
 448 2 l 1,6,7
 414 -28 414 -28 392 -49.5 c 128,-1,8
 370 -71 370 -71 358.5 -87 c 128,-1,9
 347 -103 347 -103 342 -117 c 128,-1,10
 337 -131 337 -131 337 -149 c 0,11,12
 337 -165 337 -165 346 -176 c 128,-1,13
 355 -187 355 -187 374 -187 c 0,14,15
 399 -187 399 -187 416.5 -173 c 128,-1,16
 434 -159 434 -159 446 -143 c 1,17,-1
 486 -183 l 1,18,19
 462 -213 462 -213 430 -232.5 c 128,-1,20
 398 -252 398 -252 347 -252 c 0,21,22
 295 -252 295 -252 261 -229.5 c 128,-1,23
 227 -207 227 -207 227 -159 c 0,0,1
532 0 m 1,24,-1
 388 0 l 1,25,-1
 365 116 l 1,26,-1
 357 124 l 1,27,-1
 357 414 l 2,28,29
 357 441 357 441 351 459 c 128,-1,30
 345 477 345 477 326 486.5 c 128,-1,31
 307 496 307 496 266 496 c 0,32,33
 209 496 209 496 171 487 c 128,-1,34
 133 478 133 478 119 467 c 1,35,36
 118 472 118 472 122 480 c 128,-1,37
 126 488 126 488 134.5 497.5 c 128,-1,38
 143 507 143 507 154.5 512.5 c 128,-1,39
 166 518 166 518 179 517 c 1,40,-1
 179 391 l 1,41,-1
 78 391 l 1,42,-1
 78 528 l 1,43,44
 93 539 93 539 119 550 c 128,-1,45
 145 561 145 561 183 568.5 c 128,-1,46
 221 576 221 576 272 576 c 0,47,48
 315 576 315 576 350.5 568 c 128,-1,49
 386 560 386 560 412 543 c 128,-1,50
 438 526 438 526 451.5 498 c 128,-1,51
 465 470 465 470 465 432 c 2,52,-1
 465 119 l 2,53,54
 465 106 465 106 470.5 98 c 128,-1,55
 476 90 476 90 489 85.5 c 128,-1,56
 502 81 502 81 524 76 c 2,57,-1
 532 74 l 1,58,-1
 532 0 l 1,24,-1
48 138 m 0,59,60
 48 184 48 184 62.5 217 c 128,-1,61
 77 250 77 250 111.5 274 c 128,-1,62
 146 298 146 298 208 316 c 128,-1,63
 270 334 270 334 365 350 c 1,64,-1
 365 285 l 1,65,66
 307 274 307 274 268.5 263 c 128,-1,67
 230 252 230 252 207.5 239.5 c 128,-1,68
 185 227 185 227 173.5 212.5 c 128,-1,69
 162 198 162 198 158.5 180.5 c 128,-1,70
 155 163 155 163 155 142 c 0,71,72
 155 112 155 112 163.5 95.5 c 128,-1,73
 172 79 172 79 187.5 73 c 128,-1,74
 203 67 203 67 222 67 c 0,75,76
 245 67 245 67 268.5 75.5 c 128,-1,77
 292 84 292 84 316 105.5 c 128,-1,78
 340 127 340 127 364 166 c 1,79,-1
 369 106 l 1,80,81
 352 67 352 67 326 40.5 c 128,-1,82
 300 14 300 14 268.5 1 c 128,-1,83
 237 -12 237 -12 199 -12 c 0,84,85
 150 -12 150 -12 116.5 4.5 c 128,-1,86
 83 21 83 21 65.5 54 c 128,-1,87
 48 87 48 87 48 138 c 0,59,60
EndSplineSet
Substitution2: "'ss06' Style Set 6 lookup 66 subtable" aogonek.alt
EndChar

StartChar: acaron
Encoding: 462 462 332
Width: 555
GlyphClass: 1
Flags: W
LayerCount: 2
Fore
SplineSet
230 654 m 1,0,-1
 302 654 l 1,1,-1
 428 823 l 1,2,-1
 428 847 l 1,3,-1
 368 847 l 1,4,-1
 210 707 l 1,5,-1
 323 710 l 1,6,-1
 167 847 l 1,7,-1
 103 847 l 1,8,-1
 103 823 l 1,9,-1
 230 654 l 1,0,-1
366 349 m 1,10,-1
 366 284 l 1,11,12
 310 274 310 274 272.5 263 c 128,-1,13
 235 252 235 252 212.5 239.5 c 128,-1,14
 190 227 190 227 179 212.5 c 128,-1,15
 168 198 168 198 164 180.5 c 128,-1,16
 160 163 160 163 160 142 c 0,17,18
 160 112 160 112 168.5 95.5 c 128,-1,19
 177 79 177 79 192 73 c 128,-1,20
 207 67 207 67 226 67 c 0,21,22
 249 67 249 67 271.5 76 c 128,-1,23
 294 85 294 85 317.5 107.5 c 128,-1,24
 341 130 341 130 365 169 c 1,25,-1
 370 108 l 1,26,27
 352 69 352 69 327 42 c 128,-1,28
 302 15 302 15 271.5 1.5 c 128,-1,29
 241 -12 241 -12 205 -12 c 0,30,31
 156 -12 156 -12 122 4.5 c 128,-1,32
 88 21 88 21 70.5 54 c 128,-1,33
 53 87 53 87 53 138 c 0,34,35
 53 183 53 183 67.5 216 c 128,-1,36
 82 249 82 249 116.5 273 c 128,-1,37
 151 297 151 297 212 315.5 c 128,-1,38
 273 334 273 334 366 349 c 1,10,-1
386 0 m 1,39,-1
 363 116 l 1,40,-1
 361 124 l 1,41,-1
 361 412 l 2,42,43
 361 439 361 439 354.5 457 c 128,-1,44
 348 475 348 475 328 485 c 128,-1,45
 308 495 308 495 266 495 c 0,46,47
 210 495 210 495 173 482.5 c 128,-1,48
 136 470 136 470 120 458 c 1,49,50
 119 462 119 462 123.5 472 c 128,-1,51
 128 482 128 482 137 493 c 128,-1,52
 146 504 146 504 157.5 511 c 128,-1,53
 169 518 169 518 183 517 c 1,54,-1
 183 391 l 1,55,-1
 82 391 l 1,56,-1
 82 528 l 1,57,58
 96 538 96 538 122 549 c 128,-1,59
 148 560 148 560 185.5 568 c 128,-1,60
 223 576 223 576 272 576 c 0,61,62
 316 576 316 576 352.5 568 c 128,-1,63
 389 560 389 560 415 543 c 128,-1,64
 441 526 441 526 455 498 c 128,-1,65
 469 470 469 470 469 432 c 2,66,-1
 469 122 l 2,67,68
 469 107 469 107 474 98.5 c 128,-1,69
 479 90 479 90 491.5 85 c 128,-1,70
 504 80 504 80 524 75 c 2,71,-1
 532 73 l 1,72,-1
 532 0 l 1,73,-1
 386 0 l 1,39,-1
EndSplineSet
Substitution2: "'ss06' Style Set 6 lookup 66 subtable" acaron.alt
EndChar

StartChar: adblgrave
Encoding: 513 513 334
Width: 555
GlyphClass: 1
Flags: W
LayerCount: 2
Fore
SplineSet
373 803 m 2,0,-1
 401 691 l 1,1,-1
 398 659 l 1,2,-1
 356 659 l 1,3,-1
 286 740 l 2,4,5
 269 761 269 761 259 778.5 c 128,-1,6
 249 796 249 796 249 816 c 0,7,8
 249 841 249 841 263.5 856 c 128,-1,9
 278 871 278 871 302 871 c 0,10,11
 331 871 331 871 349 851.5 c 128,-1,12
 367 832 367 832 373 803 c 2,0,-1
192 803 m 2,13,-1
 217 691 l 1,14,-1
 217 659 l 1,15,-1
 174 659 l 1,16,-1
 105 740 l 2,17,18
 87 761 87 761 77 778.5 c 128,-1,19
 67 796 67 796 67 816 c 0,20,21
 67 841 67 841 81.5 856 c 128,-1,22
 96 871 96 871 121 871 c 0,23,24
 149 871 149 871 166.5 851.5 c 128,-1,25
 184 832 184 832 192 803 c 2,13,-1
366 349 m 1,26,-1
 366 284 l 1,27,28
 310 274 310 274 272.5 263 c 128,-1,29
 235 252 235 252 212.5 239.5 c 128,-1,30
 190 227 190 227 179 212.5 c 128,-1,31
 168 198 168 198 164 180.5 c 128,-1,32
 160 163 160 163 160 142 c 0,33,34
 160 112 160 112 168.5 95.5 c 128,-1,35
 177 79 177 79 192 73 c 128,-1,36
 207 67 207 67 226 67 c 0,37,38
 249 67 249 67 271.5 76 c 128,-1,39
 294 85 294 85 317.5 107.5 c 128,-1,40
 341 130 341 130 365 169 c 1,41,-1
 370 108 l 1,42,43
 352 69 352 69 327 42 c 128,-1,44
 302 15 302 15 271.5 1.5 c 128,-1,45
 241 -12 241 -12 205 -12 c 0,46,47
 156 -12 156 -12 122 4.5 c 128,-1,48
 88 21 88 21 70.5 54 c 128,-1,49
 53 87 53 87 53 138 c 0,50,51
 53 183 53 183 67.5 216 c 128,-1,52
 82 249 82 249 116.5 273 c 128,-1,53
 151 297 151 297 212 315.5 c 128,-1,54
 273 334 273 334 366 349 c 1,26,-1
386 0 m 1,55,-1
 363 116 l 1,56,-1
 361 124 l 1,57,-1
 361 412 l 2,58,59
 361 439 361 439 354.5 457 c 128,-1,60
 348 475 348 475 328 485 c 128,-1,61
 308 495 308 495 266 495 c 0,62,63
 210 495 210 495 173 482.5 c 128,-1,64
 136 470 136 470 120 458 c 1,65,66
 119 462 119 462 123.5 472 c 128,-1,67
 128 482 128 482 137 493 c 128,-1,68
 146 504 146 504 157.5 511 c 128,-1,69
 169 518 169 518 183 517 c 1,70,-1
 183 391 l 1,71,-1
 82 391 l 1,72,-1
 82 528 l 1,73,74
 96 538 96 538 122 549 c 128,-1,75
 148 560 148 560 185.5 568 c 128,-1,76
 223 576 223 576 272 576 c 0,77,78
 316 576 316 576 352.5 568 c 128,-1,79
 389 560 389 560 415 543 c 128,-1,80
 441 526 441 526 455 498 c 128,-1,81
 469 470 469 470 469 432 c 2,82,-1
 469 122 l 2,83,84
 469 107 469 107 474 98.5 c 128,-1,85
 479 90 479 90 491.5 85 c 128,-1,86
 504 80 504 80 524 75 c 2,87,-1
 532 73 l 1,88,-1
 532 0 l 1,89,-1
 386 0 l 1,55,-1
EndSplineSet
Substitution2: "'ss06' Style Set 6 lookup 66 subtable" adblgrave.alt
EndChar

StartChar: ainvertedbreve
Encoding: 515 515 335
Width: 555
GlyphClass: 1
Flags: W
LayerCount: 2
Fore
SplineSet
261 831 m 0,0,1
 207 831 207 831 172.5 815.5 c 128,-1,2
 138 800 138 800 122 763.5 c 128,-1,3
 106 727 106 727 106 664 c 1,4,-1
 187 664 l 1,5,6
 189 701 189 701 194 720 c 128,-1,7
 199 739 199 739 214 746 c 128,-1,8
 229 753 229 753 259 753 c 256,9,10
 289 753 289 753 304 746 c 128,-1,11
 319 739 319 739 325 720 c 128,-1,12
 331 701 331 701 332 664 c 1,13,-1
 417 664 l 1,14,15
 418 727 418 727 402 763.5 c 128,-1,16
 386 800 386 800 351 815.5 c 128,-1,17
 316 831 316 831 261 831 c 0,0,1
366 349 m 1,18,-1
 366 284 l 1,19,20
 310 274 310 274 272.5 263 c 128,-1,21
 235 252 235 252 212.5 239.5 c 128,-1,22
 190 227 190 227 179 212.5 c 128,-1,23
 168 198 168 198 164 180.5 c 128,-1,24
 160 163 160 163 160 142 c 0,25,26
 160 112 160 112 168.5 95.5 c 128,-1,27
 177 79 177 79 192 73 c 128,-1,28
 207 67 207 67 226 67 c 0,29,30
 249 67 249 67 271.5 76 c 128,-1,31
 294 85 294 85 317.5 107.5 c 128,-1,32
 341 130 341 130 365 169 c 1,33,-1
 370 108 l 1,34,35
 352 69 352 69 327 42 c 128,-1,36
 302 15 302 15 271.5 1.5 c 128,-1,37
 241 -12 241 -12 205 -12 c 0,38,39
 156 -12 156 -12 122 4.5 c 128,-1,40
 88 21 88 21 70.5 54 c 128,-1,41
 53 87 53 87 53 138 c 0,42,43
 53 183 53 183 67.5 216 c 128,-1,44
 82 249 82 249 116.5 273 c 128,-1,45
 151 297 151 297 212 315.5 c 128,-1,46
 273 334 273 334 366 349 c 1,18,-1
386 0 m 1,47,-1
 363 116 l 1,48,-1
 361 124 l 1,49,-1
 361 412 l 2,50,51
 361 439 361 439 354.5 457 c 128,-1,52
 348 475 348 475 328 485 c 128,-1,53
 308 495 308 495 266 495 c 0,54,55
 210 495 210 495 173 482.5 c 128,-1,56
 136 470 136 470 120 458 c 1,57,58
 119 462 119 462 123.5 472 c 128,-1,59
 128 482 128 482 137 493 c 128,-1,60
 146 504 146 504 157.5 511 c 128,-1,61
 169 518 169 518 183 517 c 1,62,-1
 183 391 l 1,63,-1
 82 391 l 1,64,-1
 82 528 l 1,65,66
 96 538 96 538 122 549 c 128,-1,67
 148 560 148 560 185.5 568 c 128,-1,68
 223 576 223 576 272 576 c 0,69,70
 316 576 316 576 352.5 568 c 128,-1,71
 389 560 389 560 415 543 c 128,-1,72
 441 526 441 526 455 498 c 128,-1,73
 469 470 469 470 469 432 c 2,74,-1
 469 122 l 2,75,76
 469 107 469 107 474 98.5 c 128,-1,77
 479 90 479 90 491.5 85 c 128,-1,78
 504 80 504 80 524 75 c 2,79,-1
 532 73 l 1,80,-1
 532 0 l 1,81,-1
 386 0 l 1,47,-1
EndSplineSet
Substitution2: "'ss06' Style Set 6 lookup 66 subtable" ainvertedbreve.alt
EndChar

StartChar: b
Encoding: 98 98 348
Width: 610
GlyphClass: 2
Flags: W
AnchorPoint: "Anchor-1" 349 0 basechar 0
AnchorPoint: "Anchor-0" 329 755 basechar 0
LayerCount: 2
Fore
SplineSet
350 -13 m 0,0,1
 310 -13 310 -13 276.5 2 c 128,-1,2
 243 17 243 17 216.5 47.5 c 128,-1,3
 190 78 190 78 170 122 c 1,4,-1
 175 179 l 1,5,6
 199 143 199 143 224 120 c 128,-1,7
 249 97 249 97 276.5 86.5 c 128,-1,8
 304 76 304 76 335 76 c 0,9,10
 364 76 364 76 386.5 88.5 c 128,-1,11
 409 101 409 101 424 126.5 c 128,-1,12
 439 152 439 152 446.5 191.5 c 128,-1,13
 454 231 454 231 454 286 c 256,14,15
 454 341 454 341 446.5 379 c 128,-1,16
 439 417 439 417 425 441 c 128,-1,17
 411 465 411 465 389.5 475.5 c 128,-1,18
 368 486 368 486 341 486 c 0,19,20
 308 486 308 486 280 475.5 c 128,-1,21
 252 465 252 465 226 440.5 c 128,-1,22
 200 416 200 416 173 375 c 1,23,-1
 171 433 l 1,24,25
 192 479 192 479 219.5 510.5 c 128,-1,26
 247 542 247 542 282 559 c 128,-1,27
 317 576 317 576 360 576 c 0,28,29
 429 576 429 576 475.5 539 c 128,-1,30
 522 502 522 502 545 437 c 128,-1,31
 568 372 568 372 568 286 c 0,32,33
 568 199 568 199 542.5 131.5 c 128,-1,34
 517 64 517 64 468.5 25.5 c 128,-1,35
 420 -13 420 -13 350 -13 c 0,0,1
84 655 m 2,36,37
 84 670 84 670 77.5 677.5 c 128,-1,38
 71 685 71 685 58.5 690 c 128,-1,39
 46 695 46 695 29 699 c 2,40,-1
 20 701 l 1,41,-1
 20 780 l 1,42,-1
 193 780 l 1,43,-1
 193 123 l 1,44,-1
 194 122 l 1,45,-1
 159 -16 l 1,46,-1
 84 -16 l 1,47,-1
 84 655 l 2,36,37
EndSplineSet
EndChar

StartChar: c
Encoding: 99 99 349
Width: 524
GlyphClass: 2
Flags: W
AnchorPoint: "Anchor-1" 289 0 basechar 0
AnchorPoint: "Anchor-0" 280 565 basechar 0
LayerCount: 2
Fore
SplineSet
295 71 m 0,0,1
 328 71 328 71 350.5 79.5 c 128,-1,2
 373 88 373 88 390 106 c 128,-1,3
 407 124 407 124 421 152 c 1,4,-1
 483 113 l 1,5,6
 467 74 467 74 439 45.5 c 128,-1,7
 411 17 411 17 373.5 2 c 128,-1,8
 336 -13 336 -13 291 -13 c 0,9,10
 213 -13 213 -13 157 21 c 128,-1,11
 101 55 101 55 71.5 121 c 128,-1,12
 42 187 42 187 42 282 c 0,13,14
 42 375 42 375 71 440.5 c 128,-1,15
 100 506 100 506 156 541 c 128,-1,16
 212 576 212 576 292 576 c 0,17,18
 339 576 339 576 374 570 c 128,-1,19
 409 564 409 564 432 556 c 128,-1,20
 455 548 455 548 465 543 c 1,21,-1
 465 370 l 1,22,-1
 360 370 l 1,23,-1
 360 515 l 1,24,25
 370 515 370 515 379 509 c 128,-1,26
 388 503 388 503 395.5 494 c 128,-1,27
 403 485 403 485 408 477 c 128,-1,28
 413 469 413 469 413 464 c 1,29,30
 393 474 393 474 363.5 483 c 128,-1,31
 334 492 334 492 295 492 c 0,32,33
 244 492 244 492 213 468.5 c 128,-1,34
 182 445 182 445 168.5 399 c 128,-1,35
 155 353 155 353 155 282 c 0,36,37
 155 226 155 226 162.5 186 c 128,-1,38
 170 146 170 146 186 120.5 c 128,-1,39
 202 95 202 95 229 83 c 128,-1,40
 256 71 256 71 295 71 c 0,0,1
EndSplineSet
EndChar

StartChar: ccaron
Encoding: 269 269 354
Width: 524
GlyphClass: 1
Flags: W
LayerCount: 2
Fore
SplineSet
243 654 m 1,0,-1
 315 654 l 1,1,-1
 441 823 l 1,2,-1
 441 847 l 1,3,-1
 381 847 l 1,4,-1
 223 707 l 1,5,-1
 336 710 l 1,6,-1
 179 847 l 1,7,-1
 116 847 l 1,8,-1
 116 823 l 1,9,-1
 243 654 l 1,0,-1
295 71 m 0,10,11
 328 71 328 71 350.5 79.5 c 128,-1,12
 373 88 373 88 390 106 c 128,-1,13
 407 124 407 124 421 152 c 1,14,-1
 483 113 l 1,15,16
 467 74 467 74 439 45.5 c 128,-1,17
 411 17 411 17 373.5 2 c 128,-1,18
 336 -13 336 -13 291 -13 c 0,19,20
 213 -13 213 -13 157 21 c 128,-1,21
 101 55 101 55 71.5 121 c 128,-1,22
 42 187 42 187 42 282 c 0,23,24
 42 375 42 375 71 440.5 c 128,-1,25
 100 506 100 506 156 541 c 128,-1,26
 212 576 212 576 292 576 c 0,27,28
 339 576 339 576 374 570 c 128,-1,29
 409 564 409 564 432 556 c 128,-1,30
 455 548 455 548 465 543 c 1,31,-1
 465 370 l 1,32,-1
 360 370 l 1,33,-1
 360 515 l 1,34,35
 370 515 370 515 379 509 c 128,-1,36
 388 503 388 503 395.5 494 c 128,-1,37
 403 485 403 485 408 477 c 128,-1,38
 413 469 413 469 413 464 c 1,39,40
 393 474 393 474 363.5 483 c 128,-1,41
 334 492 334 492 295 492 c 0,42,43
 244 492 244 492 213 468.5 c 128,-1,44
 182 445 182 445 168.5 399 c 128,-1,45
 155 353 155 353 155 282 c 0,46,47
 155 226 155 226 162.5 186 c 128,-1,48
 170 146 170 146 186 120.5 c 128,-1,49
 202 95 202 95 229 83 c 128,-1,50
 256 71 256 71 295 71 c 0,10,11
EndSplineSet
EndChar

StartChar: d
Encoding: 100 100 356
Width: 615
GlyphClass: 2
Flags: W
AnchorPoint: "Anchor-2" 583 735 basechar 0
AnchorPoint: "Anchor-1" 287 0 basechar 0
LayerCount: 2
Fore
SplineSet
526 119 m 2,0,1
 526 98 526 98 540.5 90.5 c 128,-1,2
 555 83 555 83 580 75 c 2,3,-1
 589 73 l 1,4,-1
 589 0 l 1,5,-1
 449 0 l 1,6,-1
 426 124 l 1,7,-1
 417 121 l 1,8,-1
 417 655 l 2,9,10
 417 670 417 670 409.5 677 c 128,-1,11
 402 684 402 684 387.5 689 c 128,-1,12
 373 694 373 694 352 699 c 2,13,-1
 344 701 l 1,14,-1
 344 780 l 1,15,-1
 526 780 l 1,16,-1
 526 119 l 2,0,1
259 576 m 0,17,18
 299 576 299 576 332 560.5 c 128,-1,19
 365 545 365 545 391.5 515.5 c 128,-1,20
 418 486 418 486 439 441 c 1,21,-1
 435 386 l 1,22,23
 411 421 411 421 386 443.5 c 128,-1,24
 361 466 361 466 334 476 c 128,-1,25
 307 486 307 486 275 486 c 0,26,27
 246 486 246 486 224 474 c 128,-1,28
 202 462 202 462 186.5 437 c 128,-1,29
 171 412 171 412 163 372 c 128,-1,30
 155 332 155 332 155 277 c 0,31,32
 155 223 155 223 163 184 c 128,-1,33
 171 145 171 145 185.5 121.5 c 128,-1,34
 200 98 200 98 221 87 c 128,-1,35
 242 76 242 76 269 76 c 0,36,37
 302 76 302 76 330 87 c 128,-1,38
 358 98 358 98 384.5 122.5 c 128,-1,39
 411 147 411 147 437 186 c 1,40,-1
 439 129 l 1,41,42
 418 84 418 84 390.5 52 c 128,-1,43
 363 20 363 20 328 3.5 c 128,-1,44
 293 -13 293 -13 250 -13 c 0,45,46
 182 -13 182 -13 135.5 23.5 c 128,-1,47
 89 60 89 60 65.5 125.5 c 128,-1,48
 42 191 42 191 42 277 c 0,49,50
 42 364 42 364 67.5 431 c 128,-1,51
 93 498 93 498 141.5 537 c 128,-1,52
 190 576 190 576 259 576 c 0,17,18
EndSplineSet
EndChar

StartChar: e
Encoding: 101 101 360
Width: 532
GlyphClass: 2
Flags: W
AnchorPoint: "Anchor-2" 421 1 basechar 0
AnchorPoint: "Anchor-1" 292 0 basechar 0
AnchorPoint: "Anchor-0" 272 565 basechar 0
LayerCount: 2
Fore
SplineSet
151 276 m 0,0,1
 151 214 151 214 162 174 c 128,-1,2
 173 134 173 134 193 111.5 c 128,-1,3
 213 89 213 89 239.5 80 c 128,-1,4
 266 71 266 71 298 71 c 0,5,6
 332 71 332 71 355.5 80 c 128,-1,7
 379 89 379 89 396 107 c 128,-1,8
 413 125 413 125 428 151 c 1,9,-1
 491 112 l 1,10,11
 474 73 474 73 444.5 45 c 128,-1,12
 415 17 415 17 376.5 2 c 128,-1,13
 338 -13 338 -13 291 -13 c 0,14,15
 218 -13 218 -13 162 18.5 c 128,-1,16
 106 50 106 50 74 114.5 c 128,-1,17
 42 179 42 179 42 276 c 0,18,19
 42 370 42 370 71 437 c 128,-1,20
 100 504 100 504 152.5 540 c 128,-1,21
 205 576 205 576 277 576 c 0,22,23
 332 576 332 576 372 556 c 128,-1,24
 412 536 412 536 438 495.5 c 128,-1,25
 464 455 464 455 477 393.5 c 128,-1,26
 490 332 490 332 491 247 c 1,27,-1
 114 247 l 1,28,-1
 114 325 l 1,29,-1
 407 325 l 1,30,-1
 385 293 l 1,31,32
 384 351 384 351 377.5 389.5 c 128,-1,33
 371 428 371 428 357.5 451 c 128,-1,34
 344 474 344 474 324.5 483.5 c 128,-1,35
 305 493 305 493 278 493 c 0,36,37
 248 493 248 493 224.5 482 c 128,-1,38
 201 471 201 471 184.5 445.5 c 128,-1,39
 168 420 168 420 159.5 378 c 128,-1,40
 151 336 151 336 151 276 c 0,0,1
EndSplineSet
EndChar

StartChar: eogonek
Encoding: 281 281 368
Width: 532
GlyphClass: 1
Flags: W
LayerCount: 2
Fore
SplineSet
369 40 m 1,0,-1
 368 1 l 1,1,2
 351 -6 351 -6 332 -9.5 c 128,-1,3
 313 -13 313 -13 292 -13 c 0,4,5
 219 -13 219 -13 162.5 18.5 c 128,-1,6
 106 50 106 50 74 114.5 c 128,-1,7
 42 179 42 179 42 276 c 0,8,9
 42 370 42 370 70.5 437 c 128,-1,10
 99 504 99 504 152 540 c 128,-1,11
 205 576 205 576 278 576 c 0,12,13
 333 576 333 576 372.5 556 c 128,-1,14
 412 536 412 536 438 496 c 128,-1,15
 464 456 464 456 477 395 c 128,-1,16
 490 334 490 334 491 250 c 1,17,-1
 111 250 l 1,18,-1
 111 325 l 1,19,-1
 405 325 l 1,20,-1
 386 293 l 1,21,22
 385 351 385 351 378 390 c 128,-1,23
 371 429 371 429 358 452 c 128,-1,24
 345 475 345 475 325.5 485 c 128,-1,25
 306 495 306 495 279 495 c 0,26,27
 249 495 249 495 225 483.5 c 128,-1,28
 201 472 201 472 184.5 446.5 c 128,-1,29
 168 421 168 421 159 379 c 128,-1,30
 150 337 150 337 150 276 c 0,31,32
 150 214 150 214 161 174 c 128,-1,33
 172 134 172 134 192 111.5 c 128,-1,34
 212 89 212 89 238.5 80 c 128,-1,35
 265 71 265 71 297 71 c 0,36,37
 333 71 333 71 357 80 c 128,-1,38
 381 89 381 89 398 107.5 c 128,-1,39
 415 126 415 126 430 153 c 1,40,-1
 491 112 l 1,41,42
 480 88 480 88 464 67.5 c 128,-1,43
 448 47 448 47 417 22 c 0,44,45
 383 -6 383 -6 359 -30.5 c 128,-1,46
 335 -55 335 -55 320 -77 c 128,-1,47
 305 -99 305 -99 297.5 -117 c 128,-1,48
 290 -135 290 -135 290 -149 c 0,49,50
 290 -165 290 -165 299.5 -176 c 128,-1,51
 309 -187 309 -187 327 -187 c 0,52,53
 348 -187 348 -187 365.5 -173 c 128,-1,54
 383 -159 383 -159 395 -143 c 1,55,-1
 435 -183 l 1,56,57
 411 -214 411 -214 380 -233 c 128,-1,58
 349 -252 349 -252 301 -252 c 0,59,60
 267 -252 267 -252 239.5 -242 c 128,-1,61
 212 -232 212 -232 196 -211 c 128,-1,62
 180 -190 180 -190 180 -160 c 0,63,64
 180 -136 180 -136 188.5 -116 c 128,-1,65
 197 -96 197 -96 217.5 -75 c 128,-1,66
 238 -54 238 -54 275 -26.5 c 128,-1,67
 312 1 312 1 369 40 c 1,0,-1
EndSplineSet
EndChar

